Ramaraja-Regular.ufo
<glyph name="exclam" format="1">
  <advance width="168"/>
  <unicode hex="0021"/>
  <outline>
    <contour>
      <point x="137" y="42" type="qcurve"/>
      <point x="137" y="22"/>
      <point x="108" y="-7"/>
      <point x="88" y="-7" type="qcurve"/>
      <point x="68" y="-7"/>
      <point x="38" y="22"/>
      <point x="38" y="44" type="qcurve"/>
      <point x="38" y="64"/>
      <point x="68" y="92"/>
      <point x="88" y="92" type="qcurve"/>
      <point x="108" y="92"/>
      <point x="137" y="62"/>
    </contour>
    <contour>
      <point x="90" y="424" type="qcurve"/>
      <point x="106" y="424"/>
      <point x="131" y="400"/>
      <point x="131" y="379" type="qcurve"/>
      <point x="131" y="372"/>
      <point x="125" y="314"/>
      <point x="116" y="241"/>
      <point x="107" y="168"/>
      <point x="104" y="146" type="qcurve"/>
      <point x="102" y="139"/>
      <point x="96" y="131"/>
      <point x="90" y="129" type="qcurve"/>
      <point x="88" y="129"/>
      <point x="78" y="135"/>
      <point x="75" y="140" type="qcurve"/>
      <point x="72" y="156"/>
      <point x="63" y="226"/>
      <point x="54" y="301"/>
      <point x="47" y="367"/>
      <point x="47" y="379" type="qcurve" name="hr01"/>
      <point x="47" y="400"/>
      <point x="73" y="424"/>
    </contour>
  </outline>
</glyph>
<glyph name="quotedbl" format="1">
  <advance width="221"/>
  <unicode hex="0022"/>
  <outline>
    <contour>
      <point x="71" y="461" type="line" name="hr00"/>
      <point x="79" y="461"/>
      <point x="91" y="447"/>
      <point x="91" y="418" type="qcurve"/>
      <point x="91" y="390"/>
      <point x="74" y="330"/>
      <point x="71" y="296" type="qcurve"/>
      <point x="70" y="291"/>
      <point x="61" y="286"/>
      <point x="57" y="286" type="qcurve"/>
      <point x="53" y="286"/>
      <point x="46" y="291"/>
      <point x="46" y="295" type="qcurve"/>
      <point x="41" y="340"/>
      <point x="23" y="399"/>
      <point x="23" y="419" type="qcurve"/>
      <point x="23" y="423"/>
      <point x="29" y="438"/>
      <point x="40" y="451"/>
      <point x="53" y="461"/>
      <point x="59" y="461" type="qcurve"/>
    </contour>
    <contour>
      <point x="180" y="461" type="line"/>
      <point x="188" y="461"/>
      <point x="199" y="447"/>
      <point x="199" y="418" type="qcurve"/>
      <point x="199" y="390"/>
      <point x="180" y="330"/>
      <point x="177" y="296" type="qcurve"/>
      <point x="176" y="291"/>
      <point x="167" y="286"/>
      <point x="164" y="286" type="qcurve"/>
      <point x="154" y="286"/>
      <point x="154" y="295" type="qcurve"/>
      <point x="149" y="340"/>
      <point x="131" y="399"/>
      <point x="131" y="419" type="qcurve"/>
      <point x="131" y="423"/>
      <point x="137" y="438"/>
      <point x="148" y="451"/>
      <point x="161" y="461"/>
      <point x="167" y="461" type="qcurve"/>
    </contour>
  </outline>
</glyph>
<glyph name="numbersign" format="1">
  <advance width="331"/>
  <unicode hex="0023"/>
  <outline>
    <contour>
      <point x="51" y="224" type="line"/>
      <point x="48" y="224"/>
      <point x="49" y="237"/>
      <point x="52" y="253"/>
      <point x="59" y="267"/>
      <point x="62" y="268" type="qcurve"/>
      <point x="277" y="268" type="line"/>
      <point x="280" y="268"/>
      <point x="281" y="255"/>
      <point x="278" y="240"/>
      <point x="272" y="225"/>
      <point x="269" y="224" type="qcurve"/>
    </contour>
    <contour>
      <point x="33" y="98" type="line"/>
      <point x="30" y="98"/>
      <point x="30" y="111"/>
      <point x="35" y="127"/>
      <point x="41" y="141"/>
      <point x="44" y="142" type="qcurve"/>
      <point x="259" y="142" type="line"/>
      <point x="263" y="142"/>
      <point x="263" y="129"/>
      <point x="260" y="114"/>
      <point x="253" y="99"/>
      <point x="250" y="98" type="qcurve"/>
    </contour>
    <contour>
      <point x="197" y="24" type="line"/>
      <point x="197" y="22"/>
      <point x="185" y="15"/>
      <point x="177" y="15" type="qcurve"/>
      <point x="172" y="15"/>
      <point x="171" y="16" type="qcurve"/>
      <point x="170" y="17"/>
      <point x="170" y="18" type="qcurve"/>
      <point x="222" y="342" type="line"/>
      <point x="224" y="347"/>
      <point x="231" y="350"/>
      <point x="241" y="350" type="qcurve"/>
      <point x="246" y="350"/>
      <point x="247" y="350"/>
      <point x="249" y="348" type="qcurve"/>
    </contour>
    <contour>
      <point x="90" y="24" type="line"/>
      <point x="90" y="22"/>
      <point x="79" y="15"/>
      <point x="71" y="15" type="qcurve"/>
      <point x="65" y="15"/>
      <point x="64" y="16" type="qcurve"/>
      <point x="63" y="17"/>
      <point x="63" y="18" type="qcurve"/>
      <point x="115" y="342" type="line" name="hr01"/>
      <point x="118" y="350"/>
      <point x="135" y="350" type="qcurve"/>
      <point x="140" y="350"/>
      <point x="141" y="350"/>
      <point x="143" y="348" type="qcurve"/>
    </contour>
  </outline>
</glyph>
<glyph name="dollar" format="1">
  <advance width="271"/>
  <unicode hex="0024"/>
  <outline>
    <contour>
      <point x="164" y="20" type="qcurve"/>
      <point x="173" y="20"/>
      <point x="195" y="25"/>
      <point x="213" y="39"/>
      <point x="226" y="63"/>
      <point x="226" y="82" type="qcurve"/>
      <point x="226" y="100"/>
      <point x="206" y="131"/>
      <point x="177" y="157"/>
      <point x="145" y="178"/>
      <point x="133" y="186" type="qcurve"/>
      <point x="115" y="198"/>
      <point x="82" y="220"/>
      <point x="56" y="248"/>
      <point x="40" y="284"/>
      <point x="40" y="309" type="qcurve"/>
      <point x="40" y="333"/>
      <point x="64" y="375"/>
      <point x="102" y="406"/>
      <point x="151" y="423"/>
      <point x="175" y="423" type="qcurve" name="hr01"/>
      <point x="203" y="423"/>
      <point x="252" y="411"/>
      <point x="281" y="405" type="qcurve"/>
      <point x="283" y="380"/>
      <point x="286" y="329"/>
      <point x="288" y="300" type="qcurve"/>
      <point x="285" y="297"/>
      <point x="281" y="297" type="qcurve"/>
      <point x="279" y="297"/>
      <point x="263" y="297"/>
      <point x="262" y="301" type="qcurve"/>
      <point x="260" y="314"/>
      <point x="247" y="348"/>
      <point x="226" y="377"/>
      <point x="196" y="397"/>
      <point x="178" y="397" type="qcurve"/>
      <point x="160" y="397"/>
      <point x="124" y="373"/>
      <point x="124" y="342" type="qcurve"/>
      <point x="124" y="327"/>
      <point x="141" y="299"/>
      <point x="168" y="272"/>
      <point x="200" y="248"/>
      <point x="216" y="238" type="qcurve"/>
      <point x="232" y="228"/>
      <point x="265" y="209"/>
      <point x="292" y="182"/>
      <point x="309" y="141"/>
      <point x="309" y="110" type="qcurve"/>
      <point x="309" y="84"/>
      <point x="285" y="41"/>
      <point x="246" y="10"/>
      <point x="197" y="-7"/>
      <point x="171" y="-7" type="qcurve"/>
      <point x="143" y="-7"/>
      <point x="79" y="3"/>
      <point x="51" y="10" type="qcurve"/>
      <point x="48" y="20"/>
      <point x="43" y="52"/>
      <point x="39" y="83"/>
      <point x="36" y="111"/>
      <point x="36" y="117" type="qcurve"/>
      <point x="38" y="120"/>
      <point x="52" y="126"/>
      <point x="54" y="126" type="qcurve"/>
      <point x="61" y="126"/>
      <point x="62" y="121" type="qcurve"/>
      <point x="64" y="108"/>
      <point x="81" y="73"/>
      <point x="108" y="42"/>
      <point x="143" y="20"/>
    </contour>
    <contour>
      <point x="190" y="441" type="line"/>
      <point x="194" y="441"/>
      <point x="216" y="439"/>
      <point x="216" y="436" type="qcurve"/>
      <point x="141" y="-26" type="line"/>
      <point x="136" y="-26"/>
      <point x="115" y="-24"/>
      <point x="115" y="-20" type="qcurve"/>
    </contour>
  </outline>
</glyph>
<glyph name="percent" format="1">
  <advance width="382"/>
  <unicode hex="0025"/>
  <outline>
    <contour>
      <point x="70" y="-3" type="line"/>
      <point x="68" y="-6"/>
      <point x="51" y="-13"/>
      <point x="43" y="-13" type="qcurve"/>
      <point x="36" y="-13"/>
      <point x="34" y="-9" type="qcurve"/>
      <point x="33" y="-7"/>
      <point x="33" y="-5" type="qcurve"/>
      <point x="374" y="417" type="line"/>
      <point x="383" y="426"/>
      <point x="400" y="426" type="qcurve"/>
      <point x="411" y="426"/>
      <point x="411" y="419" type="qcurve"/>
    </contour>
    <contour>
      <point x="319" y="181" type="qcurve"/>
      <point x="307" y="181"/>
      <point x="293" y="167"/>
      <point x="286" y="145"/>
      <point x="284" y="120"/>
      <point x="284" y="108" type="qcurve"/>
      <point x="284" y="93"/>
      <point x="289" y="62"/>
      <point x="300" y="37"/>
      <point x="317" y="20"/>
      <point x="329" y="20" type="qcurve"/>
      <point x="341" y="20"/>
      <point x="356" y="34"/>
      <point x="363" y="55"/>
      <point x="365" y="80"/>
      <point x="365" y="92" type="qcurve"/>
      <point x="365" y="107"/>
      <point x="360" y="138"/>
      <point x="348" y="164"/>
      <point x="331" y="181"/>
    </contour>
    <contour>
      <point x="324" y="201" type="qcurve" name="hr01"/>
      <point x="370" y="201"/>
      <point x="428" y="144"/>
      <point x="428" y="102" type="qcurve"/>
      <point x="428" y="81"/>
      <point x="412" y="44"/>
      <point x="384" y="16"/>
      <point x="347" y="0"/>
      <point x="325" y="0" type="qcurve"/>
      <point x="278" y="0"/>
      <point x="221" y="57"/>
      <point x="221" y="99" type="qcurve"/>
      <point x="221" y="120"/>
      <point x="237" y="157"/>
      <point x="265" y="185"/>
      <point x="302" y="201"/>
    </contour>
    <contour>
      <point x="123" y="403" type="qcurve"/>
      <point x="111" y="403"/>
      <point x="97" y="389"/>
      <point x="90" y="368"/>
      <point x="88" y="342"/>
      <point x="88" y="330" type="qcurve"/>
      <point x="88" y="316"/>
      <point x="93" y="285"/>
      <point x="104" y="259"/>
      <point x="121" y="243"/>
      <point x="133" y="243" type="qcurve"/>
      <point x="145" y="243"/>
      <point x="160" y="257"/>
      <point x="167" y="278"/>
      <point x="169" y="303"/>
      <point x="169" y="315" type="qcurve"/>
      <point x="169" y="330"/>
      <point x="164" y="361"/>
      <point x="152" y="386"/>
      <point x="135" y="403"/>
    </contour>
    <contour>
      <point x="128" y="423" type="qcurve"/>
      <point x="174" y="423"/>
      <point x="232" y="367"/>
      <point x="232" y="325" type="qcurve"/>
      <point x="232" y="304"/>
      <point x="216" y="267"/>
      <point x="188" y="238"/>
      <point x="151" y="222"/>
      <point x="129" y="222" type="qcurve"/>
      <point x="82" y="222"/>
      <point x="25" y="279"/>
      <point x="25" y="321" type="qcurve"/>
      <point x="25" y="342"/>
      <point x="41" y="379"/>
      <point x="69" y="407"/>
      <point x="106" y="423"/>
    </contour>
  </outline>
</glyph>
<glyph name="ampersand" format="1">
  <advance width="441"/>
  <unicode hex="0026"/>
  <outline>
    <contour>
      <point x="143" y="207" type="line"/>
      <point x="132" y="197"/>
      <point x="117" y="168"/>
      <point x="117" y="145" type="qcurve"/>
      <point x="117" y="129"/>
      <point x="128" y="95"/>
      <point x="149" y="66"/>
      <point x="182" y="48"/>
      <point x="205" y="48" type="qcurve"/>
      <point x="222" y="48"/>
      <point x="240" y="57"/>
      <point x="247" y="63" type="qcurve" name="hr01"/>
    </contour>
    <contour>
      <point x="201" y="400" type="qcurve"/>
      <point x="179" y="400"/>
      <point x="163" y="362"/>
      <point x="163" y="339" type="qcurve"/>
      <point x="163" y="317"/>
      <point x="187" y="280"/>
      <point x="195" y="269" type="qcurve" name="hr02"/>
      <point x="217" y="280"/>
      <point x="238" y="312"/>
      <point x="238" y="339" type="qcurve"/>
      <point x="238" y="347"/>
      <point x="235" y="368"/>
      <point x="226" y="387"/>
      <point x="212" y="400"/>
    </contour>
    <contour>
      <point x="201" y="426" type="qcurve"/>
      <point x="252" y="426"/>
      <point x="306" y="384"/>
      <point x="306" y="349" type="qcurve"/>
      <point x="306" y="327"/>
      <point x="290" y="294"/>
      <point x="264" y="268"/>
      <point x="230" y="249"/>
      <point x="213" y="242" type="qcurve"/>
      <point x="305" y="119" type="line"/>
      <point x="311" y="126"/>
      <point x="325" y="143"/>
      <point x="337" y="158"/>
      <point x="345" y="170"/>
      <point x="345" y="173" type="qcurve"/>
      <point x="345" y="179"/>
      <point x="336" y="183"/>
      <point x="325" y="185"/>
      <point x="314" y="184"/>
      <point x="313" y="185" type="qcurve"/>
      <point x="311" y="188"/>
      <point x="311" y="205"/>
      <point x="313" y="206" type="qcurve"/>
      <point x="358" y="205" type="line"/>
      <point x="375" y="205"/>
      <point x="420" y="206"/>
      <point x="443" y="207" type="qcurve"/>
      <point x="445" y="206"/>
      <point x="444" y="188"/>
      <point x="442" y="185" type="qcurve"/>
      <point x="440" y="185"/>
      <point x="428" y="185"/>
      <point x="414" y="183"/>
      <point x="400" y="179"/>
      <point x="396" y="176" type="qcurve"/>
      <point x="393" y="173"/>
      <point x="374" y="152"/>
      <point x="352" y="127"/>
      <point x="330" y="103"/>
      <point x="323" y="96" type="qcurve"/>
      <point x="325" y="94"/>
      <point x="337" y="80"/>
      <point x="352" y="65"/>
      <point x="367" y="53"/>
      <point x="372" y="53" type="qcurve"/>
      <point x="379" y="53"/>
      <point x="392" y="61"/>
      <point x="403" y="73"/>
      <point x="411" y="85"/>
      <point x="414" y="88" type="qcurve"/>
      <point x="419" y="88"/>
      <point x="429" y="81"/>
      <point x="431" y="76" type="qcurve"/>
      <point x="430" y="73"/>
      <point x="412" y="48"/>
      <point x="385" y="20"/>
      <point x="352" y="-2"/>
      <point x="337" y="-2" type="qcurve"/>
      <point x="311" y="-2"/>
      <point x="279" y="23"/>
      <point x="265" y="40" type="qcurve"/>
      <point x="242" y="18"/>
      <point x="184" y="-3"/>
      <point x="151" y="-3" type="qcurve"/>
      <point x="130" y="-3"/>
      <point x="88" y="11"/>
      <point x="54" y="38"/>
      <point x="32" y="78"/>
      <point x="32" y="103" type="qcurve"/>
      <point x="32" y="132"/>
      <point x="51" y="174"/>
      <point x="78" y="204"/>
      <point x="110" y="225"/>
      <point x="124" y="234" type="qcurve"/>
      <point x="113" y="249"/>
      <point x="86" y="290"/>
      <point x="86" y="323" type="qcurve" name="hr03"/>
      <point x="86" y="345"/>
      <point x="104" y="383"/>
      <point x="136" y="411"/>
      <point x="178" y="426"/>
    </contour>
  </outline>
</glyph>
<glyph name="quotesingle" format="1">
  <advance width="148"/>
  <unicode hex="0027"/>
  <outline>
    <contour>
      <point x="70" y="469" type="qcurve" name="hr00"/>
      <point x="88" y="469"/>
      <point x="95" y="455" type="qcurve"/>
      <point x="93" y="423"/>
      <point x="86" y="345"/>
      <point x="80" y="310" type="qcurve"/>
      <point x="78" y="307"/>
      <point x="68" y="300"/>
      <point x="63" y="298" type="qcurve"/>
      <point x="58" y="298"/>
      <point x="55" y="302" type="qcurve"/>
      <point x="44" y="331"/>
      <point x="22" y="391"/>
      <point x="22" y="414" type="qcurve"/>
      <point x="22" y="436"/>
      <point x="49" y="469"/>
    </contour>
  </outline>
</glyph>
<glyph name="parenleft" format="1">
  <advance width="196"/>
  <unicode hex="0028"/>
  <outline>
    <contour>
      <point x="20" y="201" type="qcurve" name="hr00"/>
      <point x="20" y="268"/>
      <point x="56" y="369"/>
      <point x="106" y="441"/>
      <point x="160" y="485"/>
      <point x="178" y="493" type="qcurve"/>
      <point x="180" y="491"/>
      <point x="185" y="477"/>
      <point x="184" y="475" type="qcurve"/>
      <point x="174" y="467"/>
      <point x="144" y="422"/>
      <point x="115" y="352"/>
      <point x="94" y="258"/>
      <point x="94" y="201" type="qcurve"/>
      <point x="94" y="144"/>
      <point x="115" y="51"/>
      <point x="144" y="-19"/>
      <point x="174" y="-64"/>
      <point x="184" y="-73" type="qcurve"/>
      <point x="185" y="-75"/>
      <point x="180" y="-88"/>
      <point x="178" y="-90" type="qcurve"/>
      <point x="160" y="-82"/>
      <point x="106" y="-39"/>
      <point x="56" y="33"/>
      <point x="20" y="135"/>
    </contour>
  </outline>
</glyph>
<glyph name="parenright" format="1">
  <advance width="196"/>
  <unicode hex="0029"/>
  <outline>
    <contour>
      <point x="168" y="201" type="qcurve" name="hr00"/>
      <point x="168" y="135"/>
      <point x="133" y="33"/>
      <point x="83" y="-39"/>
      <point x="29" y="-82"/>
      <point x="11" y="-90" type="qcurve"/>
      <point x="8" y="-88"/>
      <point x="4" y="-75"/>
      <point x="5" y="-73" type="qcurve"/>
      <point x="14" y="-64"/>
      <point x="45" y="-19"/>
      <point x="74" y="51"/>
      <point x="95" y="144"/>
      <point x="95" y="201" type="qcurve"/>
      <point x="95" y="258"/>
      <point x="74" y="352"/>
      <point x="45" y="422"/>
      <point x="14" y="467"/>
      <point x="5" y="475" type="qcurve"/>
      <point x="4" y="477"/>
      <point x="8" y="491"/>
      <point x="11" y="493" type="qcurve"/>
      <point x="29" y="485"/>
      <point x="83" y="441"/>
      <point x="133" y="369"/>
      <point x="168" y="268"/>
    </contour>
  </outline>
</glyph>
<glyph name="asterisk" format="1">
  <advance width="295"/>
  <unicode hex="002A"/>
  <outline>
    <contour>
      <point x="79" y="391" type="qcurve"/>
      <point x="71" y="405"/>
      <point x="80" y="431"/>
      <point x="88" y="436" type="qcurve"/>
      <point x="99" y="441"/>
      <point x="123" y="436"/>
      <point x="131" y="422" type="qcurve"/>
      <point x="137" y="411"/>
      <point x="140" y="393"/>
      <point x="140" y="376"/>
      <point x="140" y="359"/>
      <point x="144" y="350" type="qcurve"/>
      <point x="145" y="349"/>
      <point x="146" y="347" type="qcurve"/>
      <point x="148" y="343"/>
      <point x="150" y="343" type="qcurve"/>
      <point x="154" y="343"/>
      <point x="156" y="346" type="qcurve"/>
      <point x="163" y="353"/>
      <point x="169" y="367"/>
      <point x="175" y="382"/>
      <point x="182" y="399"/>
      <point x="190" y="408" type="qcurve"/>
      <point x="201" y="420"/>
      <point x="228" y="420"/>
      <point x="236" y="413" type="qcurve"/>
      <point x="244" y="405"/>
      <point x="246" y="379"/>
      <point x="235" y="368" type="qcurve"/>
      <point x="227" y="359"/>
      <point x="210" y="351"/>
      <point x="194" y="346"/>
      <point x="178" y="341"/>
      <point x="171" y="334" type="qcurve"/>
      <point x="169" y="333"/>
      <point x="168" y="331" type="qcurve"/>
      <point x="166" y="327"/>
      <point x="166" y="325" type="qcurve"/>
      <point x="166" y="321"/>
      <point x="172" y="320" type="qcurve"/>
      <point x="181" y="316"/>
      <point x="196" y="315"/>
      <point x="213" y="315"/>
      <point x="231" y="312"/>
      <point x="242" y="308" type="qcurve"/>
      <point x="256" y="302"/>
      <point x="266" y="275"/>
      <point x="261" y="265" type="qcurve"/>
      <point x="256" y="255"/>
      <point x="231" y="246"/>
      <point x="217" y="252" type="qcurve"/>
      <point x="206" y="257"/>
      <point x="193" y="270"/>
      <point x="183" y="284"/>
      <point x="173" y="297"/>
      <point x="165" y="302" type="qcurve"/>
      <point x="161" y="304" type="line"/>
      <point x="158" y="306"/>
      <point x="156" y="304" type="qcurve"/>
      <point x="154" y="304"/>
      <point x="153" y="299" type="qcurve"/>
      <point x="152" y="290"/>
      <point x="156" y="274"/>
      <point x="160" y="259"/>
      <point x="163" y="241"/>
      <point x="162" y="229" type="qcurve"/>
      <point x="160" y="214"/>
      <point x="139" y="197"/>
      <point x="129" y="198" type="qcurve"/>
      <point x="118" y="200"/>
      <point x="100" y="219"/>
      <point x="102" y="235" type="qcurve"/>
      <point x="103" y="247"/>
      <point x="112" y="263"/>
      <point x="123" y="277"/>
      <point x="132" y="291"/>
      <point x="134" y="300" type="qcurve"/>
      <point x="134" y="304" type="line"/>
      <point x="134" y="308"/>
      <point x="133" y="310" type="qcurve"/>
      <point x="132" y="311"/>
      <point x="127" y="310" type="qcurve"/>
      <point x="118" y="308"/>
      <point x="104" y="300"/>
      <point x="90" y="291"/>
      <point x="75" y="283"/>
      <point x="63" y="280" type="qcurve"/>
      <point x="47" y="276"/>
      <point x="25" y="292"/>
      <point x="23" y="302" type="qcurve"/>
      <point x="21" y="313"/>
      <point x="35" y="335"/>
      <point x="50" y="339" type="qcurve"/>
      <point x="62" y="342"/>
      <point x="80" y="338"/>
      <point x="96" y="332"/>
      <point x="112" y="327"/>
      <point x="122" y="329" type="qcurve"/>
      <point x="124" y="328"/>
      <point x="126" y="329" type="qcurve"/>
      <point x="129" y="329"/>
      <point x="131" y="333" type="qcurve"/>
      <point x="131" y="335"/>
      <point x="128" y="340" type="qcurve"/>
      <point x="118" y="356"/>
      <point x="92" y="371"/>
    </contour>
  </outline>
</glyph>
<glyph name="plus" format="1">
  <advance width="300"/>
  <unicode hex="002B"/>
  <outline>
    <contour>
      <point x="200" y="13" type="line" name="hr00"/>
      <point x="194" y="8"/>
      <point x="170" y="5"/>
      <point x="165" y="5" type="qcurve"/>
      <point x="158" y="5"/>
      <point x="158" y="11" type="qcurve"/>
      <point x="158" y="141" type="line"/>
      <point x="25" y="141" type="line"/>
      <point x="21" y="141"/>
      <point x="21" y="152" type="qcurve"/>
      <point x="21" y="153"/>
      <point x="24" y="178"/>
      <point x="28" y="183" type="qcurve"/>
      <point x="158" y="183" type="line"/>
      <point x="158" y="313" type="line"/>
      <point x="161" y="315"/>
      <point x="170" y="318"/>
      <point x="180" y="319"/>
      <point x="188" y="320"/>
      <point x="189" y="320" type="qcurve"/>
      <point x="200" y="320"/>
      <point x="200" y="314" type="qcurve"/>
      <point x="200" y="183" type="line"/>
      <point x="333" y="183" type="line"/>
      <point x="336" y="183"/>
      <point x="339" y="177"/>
      <point x="339" y="174" type="qcurve"/>
      <point x="339" y="163"/>
      <point x="333" y="146"/>
      <point x="329" y="141" type="qcurve"/>
      <point x="200" y="141" type="line"/>
    </contour>
  </outline>
</glyph>
<glyph name="comma" format="1">
  <advance width="165"/>
  <unicode hex="002C"/>
  <outline>
    <contour>
      <point x="78" y="92" type="qcurve"/>
      <point x="86" y="92"/>
      <point x="102" y="85"/>
      <point x="107" y="81" type="qcurve"/>
      <point x="111" y="73"/>
      <point x="116" y="50"/>
      <point x="116" y="38" type="qcurve" name="hr01"/>
      <point x="116" y="15"/>
      <point x="101" y="-29"/>
      <point x="76" y="-66"/>
      <point x="43" y="-95"/>
      <point x="26" y="-104" type="qcurve"/>
      <point x="20" y="-102"/>
      <point x="12" y="-91"/>
      <point x="12" y="-88" type="qcurve"/>
      <point x="16" y="-85"/>
      <point x="32" y="-71"/>
      <point x="48" y="-53"/>
      <point x="59" y="-30"/>
      <point x="59" y="-18" type="qcurve"/>
      <point x="59" y="-10"/>
      <point x="49" y="0"/>
      <point x="37" y="11"/>
      <point x="27" y="29"/>
      <point x="27" y="45" type="qcurve"/>
      <point x="27" y="49"/>
      <point x="31" y="64"/>
      <point x="43" y="80"/>
      <point x="63" y="92"/>
    </contour>
  </outline>
</glyph>
<glyph name="hyphen" format="1">
  <advance width="246"/>
  <unicode hex="002D"/>
  <outline>
    <contour>
      <point x="46" y="176" type="qcurve"/>
      <point x="84" y="178"/>
      <point x="117" y="180" type="qcurve"/>
      <point x="145" y="182"/>
      <point x="197" y="183"/>
      <point x="205" y="184" type="qcurve"/>
      <point x="210" y="184"/>
      <point x="210" y="178" type="qcurve"/>
      <point x="210" y="170"/>
      <point x="204" y="147"/>
      <point x="200" y="139" type="qcurve"/>
      <point x="188" y="138"/>
      <point x="153" y="136"/>
      <point x="110" y="134"/>
      <point x="63" y="132"/>
      <point x="41" y="131" type="qcurve" name="hr01"/>
      <point x="36" y="131"/>
      <point x="36" y="139" type="qcurve"/>
      <point x="36" y="148"/>
      <point x="43" y="168"/>
    </contour>
  </outline>
</glyph>
<glyph name="period" format="1">
  <advance width="161"/>
  <unicode hex="002E"/>
  <outline>
    <contour>
      <point x="127" y="42" type="qcurve" name="hr00"/>
      <point x="127" y="22"/>
      <point x="98" y="-7"/>
      <point x="78" y="-7" type="qcurve"/>
      <point x="57" y="-7"/>
      <point x="28" y="22"/>
      <point x="28" y="44" type="qcurve"/>
      <point x="28" y="64"/>
      <point x="57" y="92"/>
      <point x="77" y="92" type="qcurve"/>
      <point x="98" y="92"/>
      <point x="127" y="62"/>
    </contour>
  </outline>
</glyph>
<glyph name="slash" format="1">
  <advance width="274"/>
  <unicode hex="002F"/>
  <outline>
    <contour>
      <point x="64" y="-9" type="line" name="hr00"/>
      <point x="63" y="-13"/>
      <point x="48" y="-23"/>
      <point x="31" y="-23" type="qcurve"/>
      <point x="25" y="-23"/>
      <point x="21" y="-21" type="qcurve"/>
      <point x="19" y="-20"/>
      <point x="19" y="-18" type="qcurve"/>
      <point x="214" y="488" type="line"/>
      <point x="218" y="496"/>
      <point x="232" y="502"/>
      <point x="247" y="502" type="qcurve"/>
      <point x="254" y="502"/>
      <point x="257" y="498"/>
      <point x="259" y="497" type="qcurve"/>
    </contour>
  </outline>
</glyph>
<glyph name="zero" format="1">
  <advance width="348"/>
  <unicode hex="0030"/>
  <outline>
    <contour>
      <point x="119" y="199" type="qcurve" name="hr00"/>
      <point x="119" y="160"/>
      <point x="129" y="97"/>
      <point x="146" y="51"/>
      <point x="169" y="26"/>
      <point x="181" y="26" type="qcurve"/>
      <point x="197" y="26"/>
      <point x="219" y="56"/>
      <point x="233" y="108"/>
      <point x="239" y="177"/>
      <point x="239" y="216" type="qcurve"/>
      <point x="239" y="294"/>
      <point x="209" y="385"/>
      <point x="181" y="385" type="qcurve"/>
      <point x="165" y="385"/>
      <point x="142" y="356"/>
      <point x="127" y="306"/>
      <point x="119" y="238"/>
    </contour>
    <contour>
      <point x="34" y="205" type="qcurve"/>
      <point x="34" y="248"/>
      <point x="58" y="324"/>
      <point x="98" y="380"/>
      <point x="151" y="412"/>
      <point x="181" y="412" type="qcurve"/>
      <point x="211" y="412"/>
      <point x="263" y="384"/>
      <point x="302" y="332"/>
      <point x="325" y="254"/>
      <point x="325" y="205" type="qcurve"/>
      <point x="325" y="162"/>
      <point x="302" y="86"/>
      <point x="263" y="30"/>
      <point x="211" y="-2"/>
      <point x="181" y="-2" type="qcurve"/>
      <point x="151" y="-2"/>
      <point x="98" y="26"/>
      <point x="58" y="78"/>
      <point x="34" y="155"/>
    </contour>
  </outline>
</glyph>
<glyph name="one" format="1">
  <advance width="240"/>
  <unicode hex="0031"/>
  <outline>
    <contour>
      <point x="87" y="318" type="line" name="hr00"/>
      <point x="87" y="340"/>
      <point x="81" y="353"/>
      <point x="73" y="353" type="qcurve"/>
      <point x="68" y="353"/>
      <point x="37" y="344"/>
      <point x="26" y="338" type="qcurve"/>
      <point x="17" y="342"/>
      <point x="17" y="350" type="qcurve"/>
      <point x="17" y="352"/>
      <point x="16" y="358"/>
      <point x="18" y="358" type="qcurve"/>
      <point x="46" y="370"/>
      <point x="101" y="394"/>
      <point x="143" y="413"/>
      <point x="169" y="424"/>
      <point x="170" y="424" type="qcurve"/>
      <point x="171" y="424" type="line"/>
      <point x="174" y="424"/>
      <point x="178" y="414"/>
      <point x="179" y="412" type="qcurve"/>
      <point x="177" y="406"/>
      <point x="176" y="397" type="qcurve"/>
      <point x="173" y="382"/>
      <point x="173" y="350" type="qcurve"/>
      <point x="173" y="96" type="line"/>
      <point x="173" y="74"/>
      <point x="174" y="44"/>
      <point x="178" y="34" type="qcurve"/>
      <point x="179" y="31"/>
      <point x="190" y="26"/>
      <point x="204" y="23"/>
      <point x="217" y="22"/>
      <point x="220" y="22" type="qcurve"/>
      <point x="223" y="18"/>
      <point x="222" y="0"/>
      <point x="220" y="-3" type="qcurve"/>
      <point x="201" y="-1"/>
      <point x="151" y="2"/>
      <point x="130" y="2" type="qcurve"/>
      <point x="109" y="2"/>
      <point x="59" y="-1"/>
      <point x="40" y="-3" type="qcurve"/>
      <point x="38" y="0"/>
      <point x="37" y="18"/>
      <point x="40" y="22" type="qcurve"/>
      <point x="43" y="22"/>
      <point x="56" y="23"/>
      <point x="70" y="26"/>
      <point x="81" y="31"/>
      <point x="82" y="34" type="qcurve"/>
      <point x="86" y="44"/>
      <point x="87" y="74"/>
      <point x="87" y="96" type="qcurve"/>
    </contour>
  </outline>
</glyph>
<glyph name="two" format="1">
  <advance width="327"/>
  <unicode hex="0032"/>
  <outline>
    <contour>
      <point x="302" y="127" type="qcurve" name="hr00"/>
      <point x="299" y="115"/>
      <point x="287" y="76"/>
      <point x="274" y="37"/>
      <point x="263" y="5"/>
      <point x="262" y="0" type="qcurve"/>
      <point x="22" y="0" type="line"/>
      <point x="19" y="2"/>
      <point x="16" y="10"/>
      <point x="16" y="12" type="qcurve"/>
      <point x="35" y="33"/>
      <point x="70" y="70"/>
      <point x="103" y="108"/>
      <point x="136" y="152"/>
      <point x="153" y="179" type="qcurve"/>
      <point x="176" y="215"/>
      <point x="191" y="274"/>
      <point x="191" y="296" type="qcurve"/>
      <point x="191" y="312"/>
      <point x="179" y="340"/>
      <point x="159" y="361"/>
      <point x="134" y="372"/>
      <point x="121" y="372" type="qcurve"/>
      <point x="104" y="372"/>
      <point x="77" y="359"/>
      <point x="58" y="342"/>
      <point x="47" y="327"/>
      <point x="45" y="325" type="qcurve"/>
      <point x="43" y="325"/>
      <point x="31" y="333"/>
      <point x="31" y="341" type="qcurve"/>
      <point x="35" y="350"/>
      <point x="57" y="379"/>
      <point x="90" y="405"/>
      <point x="135" y="424"/>
      <point x="163" y="424" type="qcurve"/>
      <point x="187" y="424"/>
      <point x="228" y="409"/>
      <point x="260" y="381"/>
      <point x="278" y="340"/>
      <point x="278" y="313" type="qcurve"/>
      <point x="278" y="283"/>
      <point x="251" y="225"/>
      <point x="228" y="198" type="qcurve"/>
      <point x="200" y="166"/>
      <point x="138" y="99"/>
      <point x="104" y="67" type="qcurve"/>
      <point x="217" y="67" type="line"/>
      <point x="232" y="67"/>
      <point x="252" y="79"/>
      <point x="266" y="96"/>
      <point x="275" y="117"/>
      <point x="279" y="126" type="qcurve"/>
      <point x="281" y="131"/>
      <point x="288" y="131" type="qcurve"/>
      <point x="294" y="131"/>
    </contour>
  </outline>
</glyph>
<glyph name="three" format="1">
  <advance width="318"/>
  <unicode hex="0033"/>
  <outline>
    <contour>
      <point x="166" y="424" type="qcurve"/>
      <point x="178" y="424"/>
      <point x="211" y="416"/>
      <point x="243" y="396"/>
      <point x="265" y="364"/>
      <point x="265" y="339" type="qcurve"/>
      <point x="265" y="318"/>
      <point x="247" y="286"/>
      <point x="223" y="262"/>
      <point x="199" y="248"/>
      <point x="193" y="246" type="qcurve"/>
      <point x="201" y="245"/>
      <point x="234" y="236"/>
      <point x="267" y="213"/>
      <point x="292" y="175"/>
      <point x="292" y="145" type="qcurve"/>
      <point x="292" y="110"/>
      <point x="261" y="55"/>
      <point x="210" y="16"/>
      <point x="147" y="-4"/>
      <point x="115" y="-4" type="qcurve"/>
      <point x="83" y="-4"/>
      <point x="37" y="12"/>
      <point x="26" y="20" type="qcurve"/>
      <point x="23" y="25"/>
      <point x="18" y="44"/>
      <point x="18" y="49" type="qcurve"/>
      <point x="18" y="61"/>
      <point x="36" y="84"/>
      <point x="53" y="84" type="qcurve"/>
      <point x="67" y="84"/>
      <point x="87" y="62"/>
      <point x="95" y="53" type="qcurve"/>
      <point x="104" y="42"/>
      <point x="129" y="24"/>
      <point x="142" y="24" type="qcurve" name="hr01"/>
      <point x="173" y="24"/>
      <point x="204" y="72"/>
      <point x="204" y="117" type="qcurve"/>
      <point x="204" y="136"/>
      <point x="194" y="170"/>
      <point x="175" y="197"/>
      <point x="148" y="213"/>
      <point x="132" y="213" type="qcurve"/>
      <point x="129" y="213"/>
      <point x="109" y="210"/>
      <point x="96" y="207" type="qcurve" name="hr02"/>
      <point x="90" y="213"/>
      <point x="90" y="222" type="qcurve"/>
      <point x="90" y="228" type="line"/>
      <point x="104" y="231"/>
      <point x="138" y="241"/>
      <point x="167" y="259"/>
      <point x="187" y="284"/>
      <point x="187" y="302" type="qcurve"/>
      <point x="187" y="333"/>
      <point x="155" y="375"/>
      <point x="125" y="375" type="qcurve"/>
      <point x="112" y="375"/>
      <point x="87" y="366"/>
      <point x="68" y="354"/>
      <point x="55" y="343"/>
      <point x="53" y="341" type="qcurve"/>
      <point x="50" y="342"/>
      <point x="46" y="354"/>
      <point x="46" y="359" type="qcurve" name="hr03"/>
      <point x="64" y="383"/>
      <point x="126" y="424"/>
    </contour>
  </outline>
</glyph>
<glyph name="four" format="1">
  <advance width="325"/>
  <unicode hex="0034"/>
  <outline>
    <contour>
      <point x="244" y="425" type="qcurve"/>
      <point x="247" y="425"/>
      <point x="262" y="412"/>
      <point x="262" y="407" type="qcurve"/>
      <point x="262" y="160" type="line"/>
      <point x="292" y="160" type="line"/>
      <point x="295" y="160"/>
      <point x="301" y="143"/>
      <point x="301" y="129" type="qcurve"/>
      <point x="301" y="125"/>
      <point x="299" y="120"/>
      <point x="298" y="118" type="qcurve"/>
      <point x="295" y="115" type="line" name="hr01"/>
      <point x="262" y="115" type="line"/>
      <point x="262" y="3" type="line"/>
      <point x="257" y="1"/>
      <point x="250" y="0" type="qcurve" name="hr02"/>
      <point x="238" y="-3"/>
      <point x="217" y="-3" type="qcurve"/>
      <point x="200" y="-3"/>
      <point x="179" y="0"/>
      <point x="179" y="5" type="qcurve"/>
      <point x="179" y="115" type="line" name="hr03"/>
      <point x="11" y="115" type="line"/>
      <point x="4" y="118"/>
      <point x="4" y="131" type="qcurve"/>
      <point x="231" y="416" type="line" name="hr04"/>
      <point x="235" y="420"/>
      <point x="240" y="425"/>
    </contour>
    <contour>
      <point x="179" y="308" type="line"/>
      <point x="170" y="297"/>
      <point x="135" y="251"/>
      <point x="97" y="204"/>
      <point x="65" y="165"/>
      <point x="61" y="160" type="qcurve" name="hr05"/>
      <point x="179" y="160" type="line"/>
    </contour>
  </outline>
</glyph>
<glyph name="five" format="1">
  <advance width="319"/>
  <unicode hex="0035"/>
  <outline>
    <contour>
      <point x="47" y="220" type="qcurve"/>
      <point x="47" y="220"/>
      <point x="52" y="246"/>
      <point x="60" y="285"/>
      <point x="68" y="331"/>
      <point x="76" y="375"/>
      <point x="83" y="411"/>
      <point x="84" y="419" type="qcurve"/>
      <point x="201" y="419" type="line"/>
      <point x="222" y="419"/>
      <point x="255" y="424"/>
      <point x="262" y="426" type="qcurve"/>
      <point x="264" y="425"/>
      <point x="271" y="422"/>
      <point x="271" y="417" type="qcurve"/>
      <point x="271" y="413"/>
      <point x="265" y="394"/>
      <point x="256" y="374"/>
      <point x="248" y="357"/>
      <point x="246" y="354" type="qcurve"/>
      <point x="223" y="352"/>
      <point x="178" y="349"/>
      <point x="138" y="348"/>
      <point x="109" y="348"/>
      <point x="103" y="348" type="qcurve" name="hr01"/>
      <point x="88" y="271" type="line"/>
      <point x="100" y="274"/>
      <point x="139" y="279"/>
      <point x="158" y="279" type="qcurve"/>
      <point x="182" y="279"/>
      <point x="229" y="259"/>
      <point x="267" y="224"/>
      <point x="290" y="178"/>
      <point x="290" y="152" type="qcurve"/>
      <point x="290" y="117"/>
      <point x="260" y="60"/>
      <point x="210" y="19"/>
      <point x="148" y="-4"/>
      <point x="117" y="-4" type="qcurve"/>
      <point x="85" y="-4"/>
      <point x="38" y="12"/>
      <point x="28" y="20" type="qcurve"/>
      <point x="24" y="25"/>
      <point x="20" y="44"/>
      <point x="20" y="49" type="qcurve"/>
      <point x="20" y="61"/>
      <point x="37" y="84"/>
      <point x="54" y="84" type="qcurve"/>
      <point x="68" y="84"/>
      <point x="88" y="62"/>
      <point x="96" y="53" type="qcurve"/>
      <point x="105" y="42"/>
      <point x="130" y="24"/>
      <point x="143" y="24" type="qcurve"/>
      <point x="174" y="24"/>
      <point x="205" y="72"/>
      <point x="205" y="117" type="qcurve"/>
      <point x="205" y="140"/>
      <point x="187" y="177"/>
      <point x="160" y="202"/>
      <point x="128" y="216"/>
      <point x="114" y="216" type="qcurve"/>
      <point x="83" y="216"/>
      <point x="58" y="209"/>
      <point x="53" y="207" type="qcurve"/>
      <point x="50" y="207"/>
      <point x="47" y="217"/>
    </contour>
  </outline>
</glyph>
<glyph name="six" format="1">
  <advance width="330"/>
  <unicode hex="0036"/>
  <outline>
    <contour>
      <point x="116" y="146" type="qcurve" name="hr00"/>
      <point x="116" y="125"/>
      <point x="121" y="82"/>
      <point x="134" y="46"/>
      <point x="156" y="24"/>
      <point x="172" y="24" type="qcurve"/>
      <point x="191" y="24"/>
      <point x="217" y="75"/>
      <point x="217" y="120" type="qcurve"/>
      <point x="217" y="141"/>
      <point x="211" y="180"/>
      <point x="196" y="210"/>
      <point x="172" y="228"/>
      <point x="154" y="228" type="qcurve"/>
      <point x="148" y="228"/>
      <point x="128" y="223"/>
      <point x="121" y="216" type="qcurve"/>
      <point x="117" y="199"/>
      <point x="116" y="170"/>
    </contour>
    <contour>
      <point x="280" y="409" type="qcurve"/>
      <point x="217" y="383"/>
      <point x="145" y="301"/>
      <point x="129" y="251" type="qcurve"/>
      <point x="156" y="267"/>
      <point x="183" y="267" type="qcurve"/>
      <point x="207" y="267"/>
      <point x="251" y="253"/>
      <point x="284" y="222"/>
      <point x="304" y="173"/>
      <point x="304" y="137" type="qcurve"/>
      <point x="304" y="108"/>
      <point x="280" y="56"/>
      <point x="241" y="18"/>
      <point x="190" y="-4"/>
      <point x="164" y="-4" type="qcurve"/>
      <point x="136" y="-4"/>
      <point x="87" y="23"/>
      <point x="51" y="68"/>
      <point x="30" y="128"/>
      <point x="30" y="160" type="qcurve"/>
      <point x="30" y="215"/>
      <point x="77" y="306"/>
      <point x="106" y="337" type="qcurve"/>
      <point x="149" y="382"/>
      <point x="241" y="421"/>
      <point x="275" y="426" type="qcurve"/>
      <point x="282" y="420"/>
    </contour>
  </outline>
</glyph>
<glyph name="seven" format="1">
  <advance width="305"/>
  <unicode hex="0037"/>
  <outline>
    <contour>
      <point x="234" y="420" type="line"/>
      <point x="243" y="420"/>
      <point x="262" y="421"/>
      <point x="280" y="422"/>
      <point x="292" y="423"/>
      <point x="294" y="423" type="qcurve"/>
      <point x="297" y="423"/>
      <point x="298" y="415"/>
      <point x="298" y="413" type="qcurve"/>
      <point x="298" y="408"/>
      <point x="288" y="390"/>
      <point x="280" y="373" type="qcurve"/>
      <point x="101" y="-5" type="line"/>
      <point x="99" y="-7"/>
      <point x="91" y="-7"/>
      <point x="90" y="-7" type="qcurve"/>
      <point x="88" y="-7"/>
      <point x="79" y="-6"/>
      <point x="69" y="-2"/>
      <point x="61" y="4"/>
      <point x="61" y="9" type="qcurve"/>
      <point x="71" y="24"/>
      <point x="114" y="99"/>
      <point x="166" y="198"/>
      <point x="221" y="306"/>
      <point x="244" y="354" type="qcurve"/>
      <point x="91" y="354" type="line"/>
      <point x="79" y="354"/>
      <point x="62" y="344"/>
      <point x="50" y="327"/>
      <point x="42" y="307"/>
      <point x="39" y="298" type="qcurve"/>
      <point x="38" y="296"/>
      <point x="36" y="295"/>
      <point x="31" y="294" type="qcurve"/>
      <point x="21" y="294"/>
      <point x="15" y="300" type="qcurve" name="hr01"/>
      <point x="18" y="312"/>
      <point x="27" y="347"/>
      <point x="36" y="382"/>
      <point x="42" y="412"/>
      <point x="44" y="420" type="qcurve" name="hr02"/>
    </contour>
  </outline>
</glyph>
<glyph name="eight" format="1">
  <advance width="337"/>
  <unicode hex="0038"/>
  <outline>
    <contour>
      <point x="176" y="24" type="qcurve"/>
      <point x="200" y="24"/>
      <point x="225" y="55"/>
      <point x="225" y="78" type="qcurve"/>
      <point x="225" y="97"/>
      <point x="208" y="130"/>
      <point x="184" y="155"/>
      <point x="159" y="174"/>
      <point x="152" y="180" type="qcurve"/>
      <point x="146" y="183"/>
      <point x="146" y="183" type="qcurve"/>
      <point x="143" y="183"/>
      <point x="143" y="182" type="qcurve" name="hr01"/>
      <point x="132" y="168"/>
      <point x="121" y="127"/>
      <point x="121" y="103" type="qcurve"/>
      <point x="121" y="89"/>
      <point x="127" y="60"/>
      <point x="141" y="38"/>
      <point x="161" y="24"/>
    </contour>
    <contour>
      <point x="170" y="391" type="qcurve"/>
      <point x="152" y="391"/>
      <point x="130" y="360"/>
      <point x="130" y="338" type="qcurve"/>
      <point x="130" y="321"/>
      <point x="143" y="292"/>
      <point x="161" y="270"/>
      <point x="181" y="256"/>
      <point x="187" y="253" type="qcurve"/>
      <point x="191" y="249"/>
      <point x="195" y="249" type="qcurve" name="hr02"/>
      <point x="197" y="249"/>
      <point x="198" y="251"/>
      <point x="199" y="251" type="qcurve"/>
      <point x="208" y="265"/>
      <point x="213" y="301"/>
      <point x="213" y="321" type="qcurve"/>
      <point x="213" y="332"/>
      <point x="208" y="356"/>
      <point x="197" y="377"/>
      <point x="181" y="391"/>
    </contour>
    <contour>
      <point x="172" y="418" type="qcurve"/>
      <point x="194" y="418"/>
      <point x="239" y="406"/>
      <point x="273" y="382"/>
      <point x="295" y="346"/>
      <point x="295" y="323" type="qcurve"/>
      <point x="295" y="291"/>
      <point x="250" y="243"/>
      <point x="222" y="232" type="qcurve"/>
      <point x="218" y="230"/>
      <point x="222" y="228" type="qcurve"/>
      <point x="231" y="223"/>
      <point x="261" y="201"/>
      <point x="291" y="171"/>
      <point x="312" y="132"/>
      <point x="312" y="110" type="qcurve"/>
      <point x="312" y="84"/>
      <point x="288" y="42"/>
      <point x="248" y="12"/>
      <point x="197" y="-4"/>
      <point x="170" y="-4" type="qcurve"/>
      <point x="145" y="-4"/>
      <point x="97" y="7"/>
      <point x="59" y="31"/>
      <point x="35" y="71"/>
      <point x="35" y="101" type="qcurve"/>
      <point x="35" y="122"/>
      <point x="50" y="154"/>
      <point x="74" y="179"/>
      <point x="104" y="195"/>
      <point x="119" y="200" type="qcurve" name="hr03"/>
      <point x="121" y="201"/>
      <point x="118" y="203" type="qcurve"/>
      <point x="109" y="210"/>
      <point x="84" y="232"/>
      <point x="61" y="261"/>
      <point x="45" y="298"/>
      <point x="45" y="321" type="qcurve"/>
      <point x="45" y="343"/>
      <point x="67" y="378"/>
      <point x="103" y="404"/>
      <point x="149" y="418"/>
    </contour>
  </outline>
</glyph>
<glyph name="nine" format="1">
  <advance width="328"/>
  <unicode hex="0039"/>
  <outline>
    <contour>
      <point x="215" y="276" type="qcurve" name="hr00"/>
      <point x="215" y="297"/>
      <point x="210" y="340"/>
      <point x="197" y="375"/>
      <point x="176" y="398"/>
      <point x="160" y="398" type="qcurve"/>
      <point x="140" y="398"/>
      <point x="114" y="347"/>
      <point x="114" y="302" type="qcurve"/>
      <point x="114" y="281"/>
      <point x="121" y="242"/>
      <point x="136" y="211"/>
      <point x="160" y="193"/>
      <point x="178" y="193" type="qcurve"/>
      <point x="183" y="193"/>
      <point x="203" y="199"/>
      <point x="211" y="206" type="qcurve"/>
      <point x="214" y="223"/>
      <point x="215" y="252"/>
    </contour>
    <contour>
      <point x="51" y="13" type="qcurve"/>
      <point x="114" y="39"/>
      <point x="186" y="120"/>
      <point x="203" y="171" type="qcurve"/>
      <point x="189" y="163"/>
      <point x="161" y="154"/>
      <point x="148" y="154" type="qcurve"/>
      <point x="124" y="154"/>
      <point x="80" y="168"/>
      <point x="47" y="199"/>
      <point x="28" y="249"/>
      <point x="28" y="285" type="qcurve"/>
      <point x="28" y="314"/>
      <point x="52" y="365"/>
      <point x="91" y="404"/>
      <point x="141" y="426"/>
      <point x="167" y="426" type="qcurve"/>
      <point x="195" y="426"/>
      <point x="244" y="399"/>
      <point x="281" y="354"/>
      <point x="302" y="294"/>
      <point x="302" y="262" type="qcurve"/>
      <point x="302" y="207"/>
      <point x="254" y="115"/>
      <point x="225" y="84" type="qcurve"/>
      <point x="182" y="39"/>
      <point x="90" y="1"/>
      <point x="56" y="-4" type="qcurve"/>
      <point x="49" y="2"/>
    </contour>
  </outline>
</glyph>
<glyph name="colon" format="1">
  <advance width="161"/>
  <unicode hex="003A"/>
  <outline>
    <contour>
      <point x="135" y="234" type="qcurve" name="hr00"/>
      <point x="135" y="214"/>
      <point x="107" y="185"/>
      <point x="86" y="185" type="qcurve"/>
      <point x="66" y="185"/>
      <point x="36" y="215"/>
      <point x="36" y="236" type="qcurve"/>
      <point x="36" y="256"/>
      <point x="66" y="284"/>
      <point x="86" y="284" type="qcurve"/>
      <point x="107" y="284"/>
      <point x="135" y="254"/>
    </contour>
    <contour>
      <point x="135" y="42" type="qcurve"/>
      <point x="135" y="22"/>
      <point x="107" y="-7"/>
      <point x="86" y="-7" type="qcurve"/>
      <point x="66" y="-7"/>
      <point x="36" y="22"/>
      <point x="36" y="44" type="qcurve"/>
      <point x="36" y="64"/>
      <point x="66" y="92"/>
      <point x="86" y="92" type="qcurve"/>
      <point x="107" y="92"/>
      <point x="135" y="62"/>
    </contour>
  </outline>
</glyph>
<glyph name="semicolon" format="1">
  <advance width="165"/>
  <unicode hex="003B"/>
  <outline>
    <contour>
      <point x="31" y="237" type="qcurve"/>
      <point x="31" y="257"/>
      <point x="61" y="285"/>
      <point x="81" y="285" type="qcurve"/>
      <point x="101" y="285"/>
      <point x="128" y="257"/>
      <point x="128" y="237" type="qcurve"/>
      <point x="128" y="217"/>
      <point x="101" y="185"/>
      <point x="81" y="185" type="qcurve"/>
      <point x="60" y="185"/>
      <point x="31" y="217"/>
    </contour>
    <contour>
      <point x="61" y="-12" type="qcurve"/>
      <point x="61" y="-4"/>
      <point x="54" y="6"/>
      <point x="47" y="16"/>
      <point x="40" y="29"/>
      <point x="40" y="41" type="qcurve"/>
      <point x="40" y="45"/>
      <point x="45" y="60"/>
      <point x="57" y="76"/>
      <point x="78" y="88"/>
      <point x="93" y="88" type="qcurve"/>
      <point x="97" y="88"/>
      <point x="114" y="87"/>
      <point x="119" y="83" type="qcurve"/>
      <point x="122" y="75"/>
      <point x="129" y="46"/>
      <point x="129" y="34" type="qcurve"/>
      <point x="129" y="23"/>
      <point x="122" y="-13"/>
      <point x="120" y="-17" type="qcurve" name="hr01"/>
      <point x="114" y="-32"/>
      <point x="92" y="-63"/>
      <point x="66" y="-89"/>
      <point x="42" y="-108"/>
      <point x="35" y="-111" type="qcurve" name="hr02"/>
      <point x="34" y="-111" type="line"/>
      <point x="29" y="-111"/>
      <point x="19" y="-93"/>
      <point x="19" y="-88" type="qcurve"/>
      <point x="19" y="-87"/>
      <point x="32" y="-77"/>
      <point x="48" y="-59"/>
      <point x="61" y="-31"/>
    </contour>
  </outline>
</glyph>
<glyph name="less" format="1">
  <advance width="329"/>
  <unicode hex="003C"/>
  <outline>
    <contour>
      <point x="293" y="30" type="qcurve" name="hr00"/>
      <point x="293" y="28"/>
      <point x="291" y="15"/>
      <point x="287" y="1"/>
      <point x="283" y="-10"/>
      <point x="282" y="-10" type="qcurve"/>
      <point x="281" y="-10" type="line"/>
      <point x="280" y="-10"/>
      <point x="279" y="-9" type="qcurve"/>
      <point x="32" y="117" type="line"/>
      <point x="24" y="121"/>
      <point x="20" y="135"/>
      <point x="20" y="143" type="qcurve"/>
      <point x="20" y="154"/>
      <point x="32" y="159" type="qcurve"/>
      <point x="278" y="282" type="line"/>
      <point x="280" y="284"/>
      <point x="281" y="284" type="qcurve"/>
      <point x="286" y="284"/>
      <point x="292" y="246" type="qcurve"/>
      <point x="292" y="242"/>
      <point x="291" y="241" type="qcurve"/>
      <point x="290" y="240" type="line"/>
      <point x="81" y="138" type="line"/>
      <point x="291" y="34" type="line"/>
      <point x="292" y="33" type="line"/>
      <point x="292" y="32"/>
      <point x="293" y="31"/>
    </contour>
  </outline>
</glyph>
<glyph name="equal" format="1">
  <advance width="300"/>
  <unicode hex="003D"/>
  <outline>
    <contour>
      <point x="46" y="88" type="line" name="hr00"/>
      <point x="43" y="88"/>
      <point x="43" y="99"/>
      <point x="47" y="113"/>
      <point x="54" y="126"/>
      <point x="57" y="127" type="qcurve"/>
      <point x="323" y="127" type="line"/>
      <point x="326" y="127"/>
      <point x="327" y="116"/>
      <point x="324" y="103"/>
      <point x="317" y="90"/>
      <point x="314" y="88" type="qcurve"/>
    </contour>
    <contour>
      <point x="46" y="183" type="line"/>
      <point x="43" y="183"/>
      <point x="43" y="194"/>
      <point x="47" y="208"/>
      <point x="54" y="221"/>
      <point x="57" y="222" type="qcurve"/>
      <point x="323" y="222" type="line"/>
      <point x="326" y="222"/>
      <point x="327" y="211"/>
      <point x="324" y="198"/>
      <point x="317" y="185"/>
      <point x="314" y="183" type="qcurve"/>
    </contour>
  </outline>
</glyph>
<glyph name="greater" format="1">
  <advance width="329"/>
  <unicode hex="003E"/>
  <outline>
    <contour>
      <point x="34" y="30" type="qcurve"/>
      <point x="34" y="32"/>
      <point x="35" y="33" type="qcurve"/>
      <point x="35" y="34"/>
      <point x="36" y="34" type="qcurve" name="hr01"/>
      <point x="247" y="138" type="line"/>
      <point x="37" y="240" type="line"/>
      <point x="36" y="241" type="line"/>
      <point x="34" y="243"/>
      <point x="35" y="246" type="qcurve"/>
      <point x="43" y="284"/>
      <point x="46" y="284" type="qcurve"/>
      <point x="47" y="284"/>
      <point x="49" y="282" type="qcurve"/>
      <point x="296" y="159" type="line"/>
      <point x="301" y="157"/>
      <point x="308" y="148"/>
      <point x="308" y="143" type="qcurve"/>
      <point x="308" y="135"/>
      <point x="304" y="121"/>
      <point x="296" y="117" type="qcurve"/>
      <point x="48" y="-9" type="line"/>
      <point x="47" y="-9"/>
      <point x="46" y="-10"/>
      <point x="45" y="-10" type="qcurve"/>
      <point x="43" y="-10"/>
      <point x="40" y="1"/>
      <point x="36" y="15"/>
      <point x="34" y="28"/>
    </contour>
  </outline>
</glyph>
<glyph name="question" format="1">
  <advance width="290"/>
  <unicode hex="003F"/>
  <outline>
    <contour>
      <point x="44" y="44" type="qcurve"/>
      <point x="44" y="64"/>
      <point x="73" y="92"/>
      <point x="92" y="92" type="qcurve" name="hr01"/>
      <point x="112" y="92"/>
      <point x="141" y="64"/>
      <point x="141" y="44" type="qcurve"/>
      <point x="141" y="23"/>
      <point x="114" y="-7"/>
      <point x="94" y="-7" type="qcurve"/>
      <point x="76" y="-7"/>
      <point x="44" y="21"/>
    </contour>
    <contour>
      <point x="77" y="342" type="qcurve" name="hr02"/>
      <point x="57" y="342"/>
      <point x="36" y="369"/>
      <point x="36" y="385" type="qcurve"/>
      <point x="36" y="394"/>
      <point x="42" y="413"/>
      <point x="46" y="416" type="qcurve"/>
      <point x="53" y="420"/>
      <point x="81" y="427"/>
      <point x="105" y="427" type="qcurve"/>
      <point x="116" y="427"/>
      <point x="162" y="417"/>
      <point x="207" y="390"/>
      <point x="241" y="345"/>
      <point x="241" y="311" type="qcurve"/>
      <point x="241" y="289"/>
      <point x="225" y="258"/>
      <point x="200" y="234"/>
      <point x="171" y="217"/>
      <point x="158" y="209" type="qcurve"/>
      <point x="144" y="200"/>
      <point x="112" y="181"/>
      <point x="104" y="169" type="qcurve"/>
      <point x="100" y="164"/>
      <point x="100" y="146"/>
      <point x="100" y="141" type="qcurve"/>
      <point x="99" y="138"/>
      <point x="93" y="129"/>
      <point x="90" y="129" type="qcurve"/>
      <point x="86" y="129"/>
      <point x="77" y="135"/>
      <point x="75" y="137" type="qcurve" name="hr03"/>
      <point x="72" y="145"/>
      <point x="62" y="183"/>
      <point x="62" y="203" type="qcurve"/>
      <point x="62" y="232"/>
      <point x="97" y="267"/>
      <point x="115" y="279" type="qcurve"/>
      <point x="140" y="295"/>
      <point x="185" y="334"/>
      <point x="185" y="351" type="qcurve"/>
      <point x="185" y="362"/>
      <point x="167" y="383"/>
      <point x="149" y="383" type="qcurve"/>
      <point x="140" y="383"/>
      <point x="123" y="370"/>
      <point x="105" y="355"/>
      <point x="87" y="342"/>
    </contour>
  </outline>
</glyph>
<glyph name="at" format="1">
  <advance width="329"/>
  <unicode hex="0040"/>
  <outline>
    <contour>
      <point x="294" y="381" type="qcurve"/>
      <point x="343" y="381"/>
      <point x="414" y="351"/>
      <point x="460" y="299"/>
      <point x="483" y="230"/>
      <point x="483" y="191" type="qcurve"/>
      <point x="483" y="153"/>
      <point x="459" y="82"/>
      <point x="419" y="28"/>
      <point x="366" y="-5"/>
      <point x="337" y="-5" type="qcurve"/>
      <point x="313" y="-5"/>
      <point x="273" y="22"/>
      <point x="273" y="52" type="qcurve"/>
      <point x="273" y="56"/>
      <point x="273" y="67"/>
      <point x="275" y="71" type="qcurve"/>
      <point x="270" y="62"/>
      <point x="252" y="37"/>
      <point x="226" y="13"/>
      <point x="196" y="-3"/>
      <point x="181" y="-3" type="qcurve"/>
      <point x="169" y="-3"/>
      <point x="146" y="3"/>
      <point x="128" y="21"/>
      <point x="117" y="53"/>
      <point x="117" y="79" type="qcurve"/>
      <point x="117" y="115"/>
      <point x="154" y="191"/>
      <point x="212" y="253"/>
      <point x="285" y="292"/>
      <point x="320" y="292" type="qcurve"/>
      <point x="337" y="292"/>
      <point x="382" y="287"/>
      <point x="392" y="284" type="qcurve"/>
      <point x="355" y="84" type="line"/>
      <point x="354" y="82"/>
      <point x="353" y="70"/>
      <point x="353" y="67" type="qcurve"/>
      <point x="353" y="64"/>
      <point x="353" y="53"/>
      <point x="355" y="43"/>
      <point x="361" y="36"/>
      <point x="368" y="36" type="qcurve"/>
      <point x="380" y="36"/>
      <point x="410" y="60"/>
      <point x="436" y="101"/>
      <point x="454" y="156"/>
      <point x="454" y="187" type="qcurve"/>
      <point x="454" y="220"/>
      <point x="436" y="281"/>
      <point x="398" y="328"/>
      <point x="337" y="355"/>
      <point x="294" y="355" type="qcurve"/>
      <point x="244" y="355"/>
      <point x="159" y="311"/>
      <point x="97" y="242"/>
      <point x="62" y="155"/>
      <point x="62" y="112" type="qcurve"/>
      <point x="62" y="54"/>
      <point x="116" y="-30"/>
      <point x="151" y="-51" type="qcurve" name="hr01"/>
      <point x="169" y="-62"/>
      <point x="192" y="-67"/>
      <point x="202" y="-69" type="qcurve"/>
      <point x="202" y="-73"/>
      <point x="184" y="-82"/>
      <point x="176" y="-82" type="qcurve"/>
      <point x="167" y="-82"/>
      <point x="152" y="-78"/>
      <point x="146" y="-76" type="qcurve"/>
      <point x="123" y="-67"/>
      <point x="81" y="-34"/>
      <point x="49" y="14"/>
      <point x="30" y="74"/>
      <point x="30" y="109" type="qcurve"/>
      <point x="30" y="157"/>
      <point x="69" y="254"/>
      <point x="140" y="332"/>
      <point x="237" y="381"/>
    </contour>
    <contour>
      <point x="292" y="257" type="qcurve"/>
      <point x="272" y="257"/>
      <point x="238" y="229"/>
      <point x="213" y="183"/>
      <point x="199" y="126"/>
      <point x="199" y="98" type="qcurve"/>
      <point x="199" y="79"/>
      <point x="214" y="62"/>
      <point x="225" y="62" type="qcurve"/>
      <point x="246" y="62"/>
      <point x="285" y="126"/>
      <point x="296" y="181" type="qcurve"/>
      <point x="310" y="248" type="line" name="hr02"/>
      <point x="305" y="253"/>
      <point x="299" y="257"/>
    </contour>
  </outline>
</glyph>
<glyph name="A" format="1">
  <advance width="444"/>
  <unicode hex="0041"/>
  <outline>
    <contour>
      <point x="205" y="412" type="line" name="hr00"/>
      <point x="208" y="418"/>
      <point x="224" y="437"/>
      <point x="229" y="437" type="qcurve"/>
      <point x="240" y="437"/>
      <point x="243" y="432" type="qcurve"/>
      <point x="378" y="98" type="line"/>
      <point x="385" y="82"/>
      <point x="392" y="61"/>
      <point x="397" y="50" type="qcurve"/>
      <point x="401" y="40"/>
      <point x="417" y="29"/>
      <point x="433" y="23"/>
      <point x="447" y="22"/>
      <point x="449" y="22" type="qcurve"/>
      <point x="451" y="17"/>
      <point x="452" y="-1"/>
      <point x="450" y="-3" type="qcurve"/>
      <point x="430" y="-1"/>
      <point x="384" y="3"/>
      <point x="362" y="3" type="qcurve"/>
      <point x="339" y="3"/>
      <point x="280" y="-1"/>
      <point x="262" y="-3" type="qcurve"/>
      <point x="260" y="0"/>
      <point x="260" y="22"/>
      <point x="262" y="22" type="qcurve"/>
      <point x="270" y="22"/>
      <point x="294" y="28"/>
      <point x="301" y="34" type="qcurve"/>
      <point x="307" y="38"/>
      <point x="307" y="45" type="qcurve"/>
      <point x="307" y="47"/>
      <point x="295" y="79"/>
      <point x="287" y="97" type="qcurve"/>
      <point x="267" y="145" type="line"/>
      <point x="266" y="146" type="line"/>
      <point x="264" y="148"/>
      <point x="263" y="148" type="qcurve"/>
      <point x="244" y="149"/>
      <point x="212" y="148"/>
      <point x="199" y="148" type="qcurve"/>
      <point x="131" y="148" type="line"/>
      <point x="129" y="148"/>
      <point x="126" y="145" type="qcurve"/>
      <point x="121" y="135"/>
      <point x="117" y="124" type="qcurve"/>
      <point x="109" y="104"/>
      <point x="102" y="89" type="qcurve"/>
      <point x="97" y="77"/>
      <point x="88" y="48"/>
      <point x="88" y="44" type="qcurve"/>
      <point x="88" y="38"/>
      <point x="102" y="29"/>
      <point x="120" y="24"/>
      <point x="137" y="22"/>
      <point x="139" y="22" type="qcurve"/>
      <point x="142" y="18"/>
      <point x="141" y="-1"/>
      <point x="139" y="-3" type="qcurve"/>
      <point x="122" y="-1"/>
      <point x="90" y="3"/>
      <point x="68" y="3" type="qcurve"/>
      <point x="45" y="3"/>
      <point x="13" y="-1"/>
      <point x="-4" y="-3" type="qcurve"/>
      <point x="-6" y="-1"/>
      <point x="-7" y="16"/>
      <point x="-5" y="21" type="qcurve"/>
      <point x="-2" y="21"/>
      <point x="11" y="25"/>
      <point x="26" y="31"/>
      <point x="38" y="38"/>
      <point x="41" y="42" type="qcurve"/>
      <point x="49" y="56"/>
      <point x="58" y="74"/>
      <point x="64" y="88" type="qcurve"/>
    </contour>
    <contour>
      <point x="142" y="182" type="qcurve"/>
      <point x="152" y="181"/>
      <point x="186" y="180"/>
      <point x="197" y="180" type="qcurve"/>
      <point x="212" y="180"/>
      <point x="234" y="180"/>
      <point x="250" y="181" type="qcurve"/>
      <point x="250" y="181"/>
      <point x="251" y="183" type="qcurve"/>
      <point x="251" y="185" type="line"/>
      <point x="197" y="314" type="line"/>
      <point x="141" y="185" type="line"/>
      <point x="141" y="183" type="line"/>
      <point x="141" y="182"/>
    </contour>
  </outline>
</glyph>
<glyph name="B" format="1">
  <advance width="398"/>
  <unicode hex="0042"/>
  <outline>
    <contour>
      <point x="164" y="245" type="line"/>
      <point x="199" y="245" type="line"/>
      <point x="224" y="245"/>
      <point x="256" y="284"/>
      <point x="256" y="321" type="qcurve"/>
      <point x="256" y="369"/>
      <point x="226" y="409"/>
      <point x="201" y="409" type="qcurve"/>
      <point x="189" y="409"/>
      <point x="170" y="407"/>
      <point x="168" y="401" type="qcurve"/>
      <point x="165" y="395"/>
      <point x="164" y="375"/>
      <point x="164" y="361" type="qcurve"/>
    </contour>
    <contour>
      <point x="220" y="436" type="qcurve"/>
      <point x="243" y="436"/>
      <point x="290" y="425"/>
      <point x="329" y="400"/>
      <point x="354" y="360"/>
      <point x="354" y="331" type="qcurve"/>
      <point x="354" y="311"/>
      <point x="337" y="280"/>
      <point x="313" y="258"/>
      <point x="289" y="244"/>
      <point x="282" y="242" type="qcurve"/>
      <point x="278" y="240"/>
      <point x="278" y="238"/>
      <point x="279" y="238" type="qcurve"/>
      <point x="291" y="236"/>
      <point x="328" y="221"/>
      <point x="361" y="192"/>
      <point x="385" y="152"/>
      <point x="385" y="127" type="qcurve"/>
      <point x="385" y="94"/>
      <point x="347" y="38"/>
      <point x="316" y="20" type="qcurve"/>
      <point x="287" y="3"/>
      <point x="215" y="-3"/>
      <point x="178" y="-2" type="qcurve"/>
      <point x="167" y="-2"/>
      <point x="124" y="-2"/>
      <point x="76" y="-2"/>
      <point x="34" y="-2"/>
      <point x="24" y="-2" type="qcurve"/>
      <point x="22" y="1"/>
      <point x="22" y="19"/>
      <point x="24" y="22" type="qcurve"/>
      <point x="27" y="22"/>
      <point x="41" y="24"/>
      <point x="54" y="26"/>
      <point x="65" y="31"/>
      <point x="67" y="34" type="qcurve"/>
      <point x="71" y="44"/>
      <point x="72" y="74"/>
      <point x="72" y="96" type="qcurve"/>
      <point x="72" y="339" type="line"/>
      <point x="72" y="360"/>
      <point x="71" y="390"/>
      <point x="67" y="401" type="qcurve"/>
      <point x="65" y="404"/>
      <point x="54" y="408"/>
      <point x="41" y="410"/>
      <point x="27" y="411"/>
      <point x="24" y="411" type="qcurve"/>
      <point x="22" y="415"/>
      <point x="22" y="433"/>
      <point x="24" y="436" type="qcurve"/>
      <point x="47" y="434"/>
      <point x="98" y="434"/>
      <point x="119" y="434" type="qcurve" name="hr01"/>
      <point x="140" y="434"/>
      <point x="191" y="436"/>
    </contour>
    <contour>
      <point x="164" y="72" type="line"/>
      <point x="164" y="69"/>
      <point x="165" y="40"/>
      <point x="170" y="34" type="qcurve"/>
      <point x="174" y="28"/>
      <point x="198" y="26"/>
      <point x="211" y="26" type="qcurve"/>
      <point x="223" y="26"/>
      <point x="248" y="35"/>
      <point x="269" y="56"/>
      <point x="282" y="90"/>
      <point x="282" y="116" type="qcurve"/>
      <point x="282" y="135"/>
      <point x="273" y="172"/>
      <point x="254" y="201"/>
      <point x="222" y="219"/>
      <point x="199" y="219" type="qcurve"/>
      <point x="164" y="219" type="line"/>
    </contour>
  </outline>
</glyph>
<glyph name="C" format="1">
  <advance width="425"/>
  <unicode hex="0043"/>
  <outline>
    <contour>
      <point x="422" y="127" type="qcurve" name="hr00"/>
      <point x="422" y="124"/>
      <point x="416" y="93"/>
      <point x="408" y="57"/>
      <point x="399" y="27"/>
      <point x="395" y="26" type="qcurve"/>
      <point x="363" y="15"/>
      <point x="296" y="-5"/>
      <point x="250" y="-5" type="qcurve"/>
      <point x="203" y="-5"/>
      <point x="121" y="28"/>
      <point x="59" y="86"/>
      <point x="23" y="166"/>
      <point x="23" y="213" type="qcurve"/>
      <point x="23" y="261"/>
      <point x="59" y="343"/>
      <point x="121" y="405"/>
      <point x="204" y="440"/>
      <point x="251" y="440" type="qcurve"/>
      <point x="284" y="440"/>
      <point x="360" y="434"/>
      <point x="389" y="428" type="qcurve"/>
      <point x="389" y="425"/>
      <point x="396" y="395"/>
      <point x="404" y="361"/>
      <point x="411" y="331"/>
      <point x="411" y="328" type="qcurve"/>
      <point x="411" y="325"/>
      <point x="400" y="318"/>
      <point x="394" y="318" type="qcurve"/>
      <point x="387" y="318"/>
      <point x="385" y="321" type="qcurve"/>
      <point x="382" y="330"/>
      <point x="368" y="361"/>
      <point x="339" y="391"/>
      <point x="292" y="412"/>
      <point x="257" y="412" type="qcurve"/>
      <point x="222" y="412"/>
      <point x="173" y="382"/>
      <point x="143" y="332"/>
      <point x="129" y="267"/>
      <point x="129" y="232" type="qcurve"/>
      <point x="129" y="193"/>
      <point x="145" y="119"/>
      <point x="180" y="60"/>
      <point x="233" y="24"/>
      <point x="271" y="24" type="qcurve"/>
      <point x="300" y="24"/>
      <point x="339" y="40"/>
      <point x="352" y="53" type="qcurve"/>
      <point x="362" y="62"/>
      <point x="379" y="89"/>
      <point x="391" y="114"/>
      <point x="398" y="133"/>
      <point x="399" y="135" type="qcurve"/>
      <point x="407" y="135"/>
      <point x="417" y="130"/>
    </contour>
  </outline>
</glyph>
<glyph name="D" format="1">
  <advance width="481"/>
  <unicode hex="0044"/>
  <outline>
    <contour>
      <point x="164" y="93" type="line" name="hr00"/>
      <point x="164" y="91"/>
      <point x="164" y="79"/>
      <point x="165" y="62"/>
      <point x="168" y="46"/>
      <point x="170" y="41" type="qcurve"/>
      <point x="173" y="34"/>
      <point x="198" y="26"/>
      <point x="211" y="26" type="qcurve"/>
      <point x="292" y="26"/>
      <point x="368" y="117"/>
      <point x="368" y="214" type="qcurve"/>
      <point x="368" y="263"/>
      <point x="343" y="336"/>
      <point x="299" y="385"/>
      <point x="237" y="409"/>
      <point x="201" y="409" type="qcurve"/>
      <point x="189" y="409"/>
      <point x="170" y="407"/>
      <point x="168" y="401" type="qcurve"/>
      <point x="165" y="395"/>
      <point x="164" y="375"/>
      <point x="164" y="361" type="qcurve"/>
    </contour>
    <contour>
      <point x="119" y="434" type="qcurve"/>
      <point x="140" y="434"/>
      <point x="191" y="435"/>
      <point x="220" y="436" type="qcurve"/>
      <point x="277" y="436"/>
      <point x="370" y="407"/>
      <point x="437" y="352"/>
      <point x="473" y="273"/>
      <point x="473" y="222" type="qcurve"/>
      <point x="473" y="164"/>
      <point x="433" y="79"/>
      <point x="363" y="24"/>
      <point x="269" y="-2"/>
      <point x="215" y="-2" type="qcurve"/>
      <point x="204" y="-2"/>
      <point x="149" y="-2"/>
      <point x="88" y="-2"/>
      <point x="34" y="-2"/>
      <point x="24" y="-2" type="qcurve"/>
      <point x="22" y="1"/>
      <point x="22" y="19"/>
      <point x="24" y="22" type="qcurve"/>
      <point x="27" y="22"/>
      <point x="41" y="24"/>
      <point x="54" y="26"/>
      <point x="65" y="31"/>
      <point x="67" y="34" type="qcurve"/>
      <point x="71" y="44"/>
      <point x="72" y="74"/>
      <point x="72" y="96" type="qcurve"/>
      <point x="72" y="339" type="line"/>
      <point x="72" y="360"/>
      <point x="71" y="390"/>
      <point x="67" y="401" type="qcurve"/>
      <point x="65" y="404"/>
      <point x="54" y="408"/>
      <point x="41" y="410"/>
      <point x="27" y="411"/>
      <point x="24" y="411" type="qcurve"/>
      <point x="22" y="415"/>
      <point x="22" y="433"/>
      <point x="24" y="436" type="qcurve"/>
      <point x="47" y="434"/>
      <point x="98" y="434"/>
    </contour>
  </outline>
</glyph>
<glyph name="F" format="1">
  <advance width="355"/>
  <unicode hex="0046"/>
  <outline>
    <contour>
      <point x="164" y="240" type="line" name="hr00"/>
      <point x="164" y="237"/>
      <point x="182" y="233"/>
      <point x="193" y="233" type="qcurve"/>
      <point x="228" y="233" type="line"/>
      <point x="243" y="233"/>
      <point x="261" y="237"/>
      <point x="274" y="247"/>
      <point x="282" y="265"/>
      <point x="286" y="279" type="qcurve"/>
      <point x="286" y="284"/>
      <point x="294" y="284" type="qcurve"/>
      <point x="297" y="284"/>
      <point x="304" y="283"/>
      <point x="306" y="281" type="qcurve"/>
      <point x="306" y="154" type="line"/>
      <point x="304" y="152"/>
      <point x="294" y="152" type="qcurve"/>
      <point x="287" y="152"/>
      <point x="285" y="157" type="qcurve"/>
      <point x="279" y="181"/>
      <point x="267" y="195"/>
      <point x="262" y="197" type="qcurve"/>
      <point x="252" y="202"/>
      <point x="212" y="202" type="qcurve"/>
      <point x="205" y="202"/>
      <point x="188" y="201"/>
      <point x="174" y="200"/>
      <point x="164" y="196"/>
      <point x="164" y="193" type="qcurve"/>
      <point x="164" y="96" type="line"/>
      <point x="164" y="74"/>
      <point x="165" y="44"/>
      <point x="170" y="34" type="qcurve"/>
      <point x="171" y="31"/>
      <point x="182" y="26"/>
      <point x="195" y="23"/>
      <point x="209" y="22"/>
      <point x="212" y="22" type="qcurve"/>
      <point x="214" y="18"/>
      <point x="214" y="0"/>
      <point x="212" y="-3" type="qcurve"/>
      <point x="192" y="-1"/>
      <point x="138" y="2"/>
      <point x="117" y="2" type="qcurve"/>
      <point x="97" y="2"/>
      <point x="44" y="-1"/>
      <point x="24" y="-3" type="qcurve"/>
      <point x="22" y="0"/>
      <point x="22" y="18"/>
      <point x="24" y="22" type="qcurve"/>
      <point x="27" y="22"/>
      <point x="41" y="23"/>
      <point x="54" y="26"/>
      <point x="65" y="31"/>
      <point x="67" y="34" type="qcurve"/>
      <point x="71" y="44"/>
      <point x="72" y="74"/>
      <point x="72" y="96" type="qcurve"/>
      <point x="72" y="339" type="line"/>
      <point x="72" y="360"/>
      <point x="71" y="390"/>
      <point x="67" y="401" type="qcurve"/>
      <point x="65" y="404"/>
      <point x="54" y="408"/>
      <point x="41" y="410"/>
      <point x="27" y="411"/>
      <point x="24" y="411" type="qcurve"/>
      <point x="22" y="415"/>
      <point x="22" y="433"/>
      <point x="24" y="436" type="qcurve"/>
      <point x="47" y="434"/>
      <point x="98" y="434"/>
      <point x="119" y="434" type="qcurve"/>
      <point x="129" y="434"/>
      <point x="188" y="435"/>
      <point x="256" y="437"/>
      <point x="318" y="438"/>
      <point x="333" y="438" type="qcurve"/>
      <point x="337" y="413"/>
      <point x="347" y="363"/>
      <point x="352" y="341" type="qcurve"/>
      <point x="350" y="339"/>
      <point x="341" y="337"/>
      <point x="337" y="337" type="qcurve"/>
      <point x="334" y="337"/>
      <point x="328" y="340"/>
      <point x="327" y="343" type="qcurve"/>
      <point x="316" y="370"/>
      <point x="286" y="409"/>
      <point x="255" y="409" type="qcurve"/>
      <point x="201" y="409" type="line"/>
      <point x="189" y="409"/>
      <point x="170" y="407"/>
      <point x="168" y="401" type="qcurve"/>
      <point x="165" y="395"/>
      <point x="164" y="375"/>
      <point x="164" y="361" type="qcurve"/>
    </contour>
  </outline>
</glyph>
<glyph name="G" format="1">
  <advance width="446"/>
  <unicode hex="0047"/>
  <outline>
    <contour>
      <point x="323" y="154" type="qcurve" name="hr00"/>
      <point x="321" y="160"/>
      <point x="309" y="168"/>
      <point x="295" y="171"/>
      <point x="282" y="172"/>
      <point x="279" y="172" type="qcurve"/>
      <point x="277" y="172"/>
      <point x="276" y="194"/>
      <point x="279" y="197" type="qcurve"/>
      <point x="304" y="195"/>
      <point x="354" y="193"/>
      <point x="379" y="193" type="qcurve"/>
      <point x="400" y="193"/>
      <point x="441" y="195"/>
      <point x="461" y="197" type="qcurve"/>
      <point x="463" y="190"/>
      <point x="462" y="172"/>
      <point x="460" y="172" type="qcurve"/>
      <point x="456" y="172"/>
      <point x="430" y="167"/>
      <point x="425" y="164" type="qcurve"/>
      <point x="422" y="162"/>
      <point x="417" y="145"/>
      <point x="417" y="135" type="qcurve"/>
      <point x="417" y="65" type="line"/>
      <point x="417" y="60"/>
      <point x="421" y="48"/>
      <point x="421" y="46" type="qcurve"/>
      <point x="421" y="40"/>
      <point x="405" y="31"/>
      <point x="398" y="28" type="qcurve"/>
      <point x="366" y="17"/>
      <point x="296" y="-5"/>
      <point x="250" y="-5" type="qcurve"/>
      <point x="203" y="-5"/>
      <point x="120" y="28"/>
      <point x="59" y="86"/>
      <point x="23" y="166"/>
      <point x="23" y="213" type="qcurve"/>
      <point x="23" y="259"/>
      <point x="59" y="342"/>
      <point x="121" y="404"/>
      <point x="204" y="440"/>
      <point x="251" y="440" type="qcurve"/>
      <point x="284" y="440"/>
      <point x="360" y="434"/>
      <point x="389" y="428" type="qcurve"/>
      <point x="389" y="425"/>
      <point x="396" y="395"/>
      <point x="404" y="361"/>
      <point x="411" y="331"/>
      <point x="411" y="328" type="qcurve"/>
      <point x="411" y="325"/>
      <point x="400" y="318"/>
      <point x="394" y="318" type="qcurve"/>
      <point x="387" y="318"/>
      <point x="385" y="321" type="qcurve"/>
      <point x="382" y="330"/>
      <point x="368" y="361"/>
      <point x="340" y="391"/>
      <point x="294" y="412"/>
      <point x="259" y="412" type="qcurve"/>
      <point x="222" y="412"/>
      <point x="172" y="381"/>
      <point x="142" y="329"/>
      <point x="129" y="263"/>
      <point x="129" y="229" type="qcurve"/>
      <point x="129" y="190"/>
      <point x="147" y="117"/>
      <point x="182" y="59"/>
      <point x="234" y="24"/>
      <point x="269" y="24" type="qcurve"/>
      <point x="288" y="24"/>
      <point x="311" y="30"/>
      <point x="320" y="34" type="qcurve"/>
      <point x="322" y="36"/>
      <point x="326" y="39"/>
      <point x="326" y="44" type="qcurve"/>
      <point x="326" y="121" type="line"/>
      <point x="326" y="131"/>
      <point x="326" y="143"/>
    </contour>
  </outline>
</glyph>
<glyph name="H" format="1">
  <advance width="446"/>
  <unicode hex="0048"/>
  <outline>
    <contour>
      <point x="164" y="96" type="line" name="hr00"/>
      <point x="164" y="74"/>
      <point x="165" y="44"/>
      <point x="170" y="34" type="qcurve"/>
      <point x="171" y="31"/>
      <point x="182" y="26"/>
      <point x="195" y="23"/>
      <point x="209" y="22"/>
      <point x="212" y="22" type="qcurve"/>
      <point x="214" y="18"/>
      <point x="214" y="0"/>
      <point x="212" y="-3" type="qcurve"/>
      <point x="192" y="-1"/>
      <point x="138" y="2"/>
      <point x="117" y="2" type="qcurve"/>
      <point x="97" y="2"/>
      <point x="44" y="-1"/>
      <point x="24" y="-3" type="qcurve"/>
      <point x="22" y="0"/>
      <point x="22" y="18"/>
      <point x="24" y="22" type="qcurve"/>
      <point x="27" y="22"/>
      <point x="41" y="23"/>
      <point x="54" y="26"/>
      <point x="65" y="31"/>
      <point x="67" y="34" type="qcurve"/>
      <point x="71" y="44"/>
      <point x="72" y="74"/>
      <point x="72" y="96" type="qcurve"/>
      <point x="72" y="339" type="line"/>
      <point x="72" y="360"/>
      <point x="71" y="390"/>
      <point x="67" y="401" type="qcurve"/>
      <point x="65" y="404"/>
      <point x="54" y="408"/>
      <point x="41" y="411"/>
      <point x="27" y="412"/>
      <point x="24" y="412" type="qcurve"/>
      <point x="22" y="416"/>
      <point x="22" y="434"/>
      <point x="24" y="437" type="qcurve"/>
      <point x="44" y="435"/>
      <point x="98" y="432"/>
      <point x="119" y="432" type="qcurve"/>
      <point x="140" y="432"/>
      <point x="192" y="435"/>
      <point x="212" y="437" type="qcurve"/>
      <point x="214" y="434"/>
      <point x="214" y="416"/>
      <point x="212" y="412" type="qcurve"/>
      <point x="209" y="412"/>
      <point x="195" y="411"/>
      <point x="182" y="408"/>
      <point x="171" y="404"/>
      <point x="170" y="401" type="qcurve"/>
      <point x="165" y="390"/>
      <point x="164" y="360"/>
      <point x="164" y="339" type="qcurve"/>
      <point x="164" y="245" type="line"/>
      <point x="164" y="244"/>
      <point x="165" y="244" type="qcurve"/>
      <point x="166" y="243" type="line"/>
      <point x="185" y="242"/>
      <point x="223" y="241"/>
      <point x="246" y="241" type="qcurve"/>
      <point x="264" y="241"/>
      <point x="305" y="242"/>
      <point x="323" y="243" type="qcurve"/>
      <point x="323" y="244" type="line"/>
      <point x="323" y="244"/>
      <point x="324" y="246" type="qcurve"/>
      <point x="323" y="339" type="line"/>
      <point x="323" y="360"/>
      <point x="322" y="390"/>
      <point x="318" y="401" type="qcurve"/>
      <point x="317" y="404"/>
      <point x="306" y="408"/>
      <point x="292" y="411"/>
      <point x="279" y="412"/>
      <point x="276" y="412" type="qcurve"/>
      <point x="274" y="416"/>
      <point x="274" y="434"/>
      <point x="276" y="437" type="qcurve"/>
      <point x="296" y="435"/>
      <point x="350" y="432"/>
      <point x="370" y="432" type="qcurve"/>
      <point x="391" y="432"/>
      <point x="444" y="435"/>
      <point x="463" y="437" type="qcurve"/>
      <point x="465" y="434"/>
      <point x="466" y="416"/>
      <point x="463" y="412" type="qcurve"/>
      <point x="460" y="412"/>
      <point x="447" y="411"/>
      <point x="433" y="408"/>
      <point x="422" y="404"/>
      <point x="421" y="401" type="qcurve"/>
      <point x="417" y="390"/>
      <point x="416" y="360"/>
      <point x="416" y="339" type="qcurve"/>
      <point x="416" y="96" type="line"/>
      <point x="416" y="74"/>
      <point x="417" y="44"/>
      <point x="421" y="34" type="qcurve"/>
      <point x="422" y="31"/>
      <point x="433" y="26"/>
      <point x="447" y="23"/>
      <point x="460" y="22"/>
      <point x="463" y="22" type="qcurve"/>
      <point x="466" y="18"/>
      <point x="465" y="0"/>
      <point x="463" y="-3" type="qcurve"/>
      <point x="444" y="-1"/>
      <point x="390" y="2"/>
      <point x="369" y="2" type="qcurve"/>
      <point x="348" y="2"/>
      <point x="296" y="-1"/>
      <point x="276" y="-3" type="qcurve"/>
      <point x="274" y="0"/>
      <point x="274" y="18"/>
      <point x="276" y="22" type="qcurve"/>
      <point x="279" y="22"/>
      <point x="292" y="23"/>
      <point x="306" y="26"/>
      <point x="317" y="31"/>
      <point x="318" y="34" type="qcurve"/>
      <point x="322" y="44"/>
      <point x="323" y="74"/>
      <point x="323" y="96" type="qcurve"/>
      <point x="323" y="205" type="line"/>
      <point x="323" y="205"/>
      <point x="322" y="207" type="qcurve"/>
      <point x="322" y="208" type="line"/>
      <point x="304" y="209"/>
      <point x="266" y="209"/>
      <point x="246" y="209" type="qcurve"/>
      <point x="218" y="209"/>
      <point x="187" y="209"/>
      <point x="170" y="208"/>
      <point x="166" y="207"/>
      <point x="165" y="207" type="qcurve"/>
      <point x="164" y="206"/>
      <point x="164" y="205" type="qcurve"/>
      <point x="164" y="204" type="line"/>
    </contour>
  </outline>
</glyph>
<glyph name="I" format="1">
  <advance width="219"/>
  <unicode hex="0049"/>
  <outline>
    <contour>
      <point x="119" y="432" type="qcurve" name="hr00"/>
      <point x="140" y="432"/>
      <point x="192" y="435"/>
      <point x="212" y="437" type="qcurve"/>
      <point x="214" y="434"/>
      <point x="214" y="416"/>
      <point x="212" y="412" type="qcurve"/>
      <point x="209" y="412"/>
      <point x="195" y="411"/>
      <point x="182" y="408"/>
      <point x="171" y="404"/>
      <point x="170" y="401" type="qcurve"/>
      <point x="165" y="390"/>
      <point x="164" y="360"/>
      <point x="164" y="339" type="qcurve"/>
      <point x="164" y="96" type="line"/>
      <point x="164" y="74"/>
      <point x="165" y="44"/>
      <point x="170" y="34" type="qcurve"/>
      <point x="171" y="31"/>
      <point x="182" y="26"/>
      <point x="195" y="23"/>
      <point x="209" y="22"/>
      <point x="212" y="22" type="qcurve"/>
      <point x="214" y="18"/>
      <point x="214" y="0"/>
      <point x="212" y="-3" type="qcurve"/>
      <point x="192" y="-1"/>
      <point x="138" y="2"/>
      <point x="117" y="2" type="qcurve"/>
      <point x="97" y="2"/>
      <point x="44" y="-1"/>
      <point x="24" y="-3" type="qcurve"/>
      <point x="22" y="0"/>
      <point x="22" y="18"/>
      <point x="24" y="22" type="qcurve"/>
      <point x="27" y="22"/>
      <point x="41" y="23"/>
      <point x="54" y="26"/>
      <point x="65" y="31"/>
      <point x="67" y="34" type="qcurve"/>
      <point x="71" y="44"/>
      <point x="72" y="74"/>
      <point x="72" y="96" type="qcurve"/>
      <point x="72" y="339" type="line"/>
      <point x="72" y="360"/>
      <point x="71" y="390"/>
      <point x="67" y="401" type="qcurve"/>
      <point x="65" y="404"/>
      <point x="54" y="408"/>
      <point x="41" y="411"/>
      <point x="27" y="412"/>
      <point x="24" y="412" type="qcurve"/>
      <point x="22" y="416"/>
      <point x="22" y="434"/>
      <point x="24" y="437" type="qcurve"/>
      <point x="44" y="435"/>
      <point x="98" y="432"/>
    </contour>
  </outline>
</glyph>
<glyph name="J" format="1">
  <advance width="239"/>
  <unicode hex="004A"/>
  <outline>
    <contour>
      <point x="77" y="339" type="line"/>
      <point x="77" y="360"/>
      <point x="76" y="390"/>
      <point x="72" y="401" type="qcurve"/>
      <point x="71" y="404"/>
      <point x="60" y="408"/>
      <point x="46" y="411"/>
      <point x="33" y="412"/>
      <point x="30" y="412" type="qcurve" name="hr01"/>
      <point x="28" y="416"/>
      <point x="28" y="434"/>
      <point x="30" y="437" type="qcurve" name="hr02"/>
      <point x="50" y="435"/>
      <point x="103" y="432"/>
      <point x="124" y="432" type="qcurve"/>
      <point x="145" y="432"/>
      <point x="198" y="435"/>
      <point x="217" y="437" type="qcurve"/>
      <point x="219" y="434"/>
      <point x="220" y="416"/>
      <point x="217" y="412" type="qcurve"/>
      <point x="214" y="412"/>
      <point x="201" y="411"/>
      <point x="187" y="408"/>
      <point x="176" y="404"/>
      <point x="175" y="401" type="qcurve"/>
      <point x="171" y="390"/>
      <point x="170" y="360"/>
      <point x="170" y="339" type="qcurve"/>
      <point x="170" y="94" type="line"/>
      <point x="170" y="-19"/>
      <point x="65" y="-144"/>
      <point x="-26" y="-144" type="qcurve"/>
      <point x="-35" y="-144"/>
      <point x="-58" y="-136"/>
      <point x="-63" y="-132" type="qcurve"/>
      <point x="-67" y="-127"/>
      <point x="-74" y="-114"/>
      <point x="-74" y="-104" type="qcurve"/>
      <point x="-74" y="-87"/>
      <point x="-50" y="-59"/>
      <point x="-34" y="-59" type="qcurve"/>
      <point x="-23" y="-59"/>
      <point x="-4" y="-73"/>
      <point x="12" y="-90"/>
      <point x="26" y="-104"/>
      <point x="34" y="-104" type="qcurve"/>
      <point x="50" y="-104"/>
      <point x="67" y="-74"/>
      <point x="75" y="-22"/>
      <point x="77" y="48"/>
      <point x="77" y="89" type="qcurve"/>
    </contour>
  </outline>
</glyph>
<glyph name="K" format="1">
  <advance width="494"/>
  <unicode hex="004B"/>
  <outline>
    <contour>
      <point x="119" y="432" type="qcurve" name="hr00"/>
      <point x="140" y="432"/>
      <point x="192" y="435"/>
      <point x="212" y="437" type="qcurve"/>
      <point x="214" y="434"/>
      <point x="214" y="416"/>
      <point x="212" y="412" type="qcurve"/>
      <point x="209" y="412"/>
      <point x="195" y="411"/>
      <point x="182" y="408"/>
      <point x="171" y="404"/>
      <point x="170" y="401" type="qcurve"/>
      <point x="165" y="390"/>
      <point x="164" y="360"/>
      <point x="164" y="339" type="qcurve"/>
      <point x="164" y="222" type="line"/>
      <point x="186" y="240"/>
      <point x="221" y="270"/>
      <point x="233" y="282" type="qcurve"/>
      <point x="248" y="297"/>
      <point x="271" y="320"/>
      <point x="290" y="341"/>
      <point x="308" y="362"/>
      <point x="319" y="376" type="qcurve"/>
      <point x="324" y="383"/>
      <point x="325" y="394"/>
      <point x="325" y="398" type="qcurve"/>
      <point x="325" y="403"/>
      <point x="316" y="409"/>
      <point x="304" y="412"/>
      <point x="292" y="413"/>
      <point x="288" y="413" type="qcurve"/>
      <point x="286" y="417"/>
      <point x="285" y="432"/>
      <point x="287" y="437" type="qcurve"/>
      <point x="306" y="436"/>
      <point x="354" y="432"/>
      <point x="373" y="432" type="qcurve"/>
      <point x="395" y="432"/>
      <point x="436" y="435"/>
      <point x="455" y="437" type="qcurve"/>
      <point x="457" y="433"/>
      <point x="456" y="417"/>
      <point x="453" y="414" type="qcurve"/>
      <point x="451" y="414"/>
      <point x="434" y="411"/>
      <point x="412" y="405"/>
      <point x="388" y="394"/>
      <point x="379" y="385" type="qcurve"/>
      <point x="255" y="257" type="line"/>
      <point x="250" y="251"/>
      <point x="253" y="246" type="qcurve"/>
      <point x="372" y="86" type="line"/>
      <point x="390" y="63"/>
      <point x="427" y="37"/>
      <point x="458" y="25"/>
      <point x="479" y="22"/>
      <point x="481" y="22" type="qcurve"/>
      <point x="483" y="18"/>
      <point x="482" y="-1"/>
      <point x="481" y="-3" type="qcurve"/>
      <point x="467" y="-4"/>
      <point x="415" y="-5"/>
      <point x="395" y="-5" type="qcurve"/>
      <point x="357" y="-5"/>
      <point x="306" y="27"/>
      <point x="294" y="44" type="qcurve"/>
      <point x="178" y="199" type="line"/>
      <point x="175" y="202"/>
      <point x="171" y="202" type="qcurve"/>
      <point x="167" y="202"/>
      <point x="164" y="198" type="qcurve"/>
      <point x="164" y="96" type="line"/>
      <point x="164" y="74"/>
      <point x="165" y="44"/>
      <point x="170" y="34" type="qcurve"/>
      <point x="171" y="31"/>
      <point x="182" y="26"/>
      <point x="195" y="23"/>
      <point x="209" y="22"/>
      <point x="212" y="22" type="qcurve"/>
      <point x="214" y="18"/>
      <point x="214" y="0"/>
      <point x="212" y="-3" type="qcurve"/>
      <point x="192" y="-1"/>
      <point x="138" y="2"/>
      <point x="117" y="2" type="qcurve"/>
      <point x="97" y="2"/>
      <point x="44" y="-1"/>
      <point x="24" y="-3" type="qcurve"/>
      <point x="22" y="0"/>
      <point x="22" y="18"/>
      <point x="24" y="22" type="qcurve"/>
      <point x="27" y="22"/>
      <point x="41" y="23"/>
      <point x="54" y="26"/>
      <point x="65" y="31"/>
      <point x="67" y="34" type="qcurve"/>
      <point x="71" y="44"/>
      <point x="72" y="74"/>
      <point x="72" y="96" type="qcurve"/>
      <point x="72" y="339" type="line"/>
      <point x="72" y="360"/>
      <point x="71" y="390"/>
      <point x="67" y="401" type="qcurve"/>
      <point x="65" y="404"/>
      <point x="54" y="408"/>
      <point x="41" y="411"/>
      <point x="27" y="412"/>
      <point x="24" y="412" type="qcurve"/>
      <point x="22" y="416"/>
      <point x="22" y="434"/>
      <point x="24" y="437" type="qcurve"/>
      <point x="44" y="435"/>
      <point x="98" y="432"/>
    </contour>
  </outline>
</glyph>
<glyph name="L" format="1">
  <advance width="362"/>
  <unicode hex="004C"/>
  <outline>
    <contour>
      <point x="164" y="93" type="line"/>
      <point x="164" y="91"/>
      <point x="164" y="79"/>
      <point x="165" y="62"/>
      <point x="168" y="46"/>
      <point x="170" y="41" type="qcurve"/>
      <point x="173" y="34"/>
      <point x="199" y="28"/>
      <point x="213" y="28" type="qcurve"/>
      <point x="256" y="28" type="line"/>
      <point x="296" y="28"/>
      <point x="317" y="49" type="qcurve"/>
      <point x="337" y="69"/>
      <point x="353" y="112" type="qcurve"/>
      <point x="354" y="116"/>
      <point x="362" y="116" type="qcurve"/>
      <point x="367" y="116"/>
      <point x="380" y="114"/>
      <point x="382" y="112" type="qcurve"/>
      <point x="377" y="99"/>
      <point x="367" y="68"/>
      <point x="356" y="38"/>
      <point x="348" y="10"/>
      <point x="346" y="-1" type="qcurve"/>
      <point x="339" y="-1"/>
      <point x="290" y="-1"/>
      <point x="223" y="-1"/>
      <point x="147" y="-1"/>
      <point x="80" y="-1"/>
      <point x="30" y="-2"/>
      <point x="24" y="-2" type="qcurve"/>
      <point x="22" y="1"/>
      <point x="22" y="19"/>
      <point x="24" y="22" type="qcurve"/>
      <point x="27" y="22"/>
      <point x="41" y="24"/>
      <point x="54" y="26"/>
      <point x="65" y="31"/>
      <point x="67" y="34" type="qcurve"/>
      <point x="71" y="44"/>
      <point x="72" y="74"/>
      <point x="72" y="96" type="qcurve"/>
      <point x="72" y="339" type="line" name="hr01"/>
      <point x="72" y="360"/>
      <point x="71" y="390"/>
      <point x="67" y="401" type="qcurve"/>
      <point x="65" y="404"/>
      <point x="54" y="408"/>
      <point x="41" y="411"/>
      <point x="27" y="412"/>
      <point x="24" y="412" type="qcurve"/>
      <point x="22" y="416"/>
      <point x="22" y="434"/>
      <point x="24" y="437" type="qcurve"/>
      <point x="44" y="435"/>
      <point x="98" y="432"/>
      <point x="119" y="432" type="qcurve"/>
      <point x="140" y="432"/>
      <point x="192" y="435"/>
      <point x="212" y="437" type="qcurve" name="hr02"/>
      <point x="214" y="434"/>
      <point x="214" y="416"/>
      <point x="212" y="412" type="qcurve"/>
      <point x="209" y="412"/>
      <point x="195" y="411"/>
      <point x="182" y="408"/>
      <point x="171" y="404"/>
      <point x="170" y="401" type="qcurve"/>
      <point x="165" y="390"/>
      <point x="164" y="360"/>
      <point x="164" y="339" type="qcurve"/>
    </contour>
  </outline>
</glyph>
<glyph name="M" format="1">
  <advance width="583"/>
  <unicode hex="004D"/>
  <outline>
    <contour>
      <point x="40" y="437" type="qcurve"/>
      <point x="63" y="436"/>
      <point x="89" y="433"/>
      <point x="112" y="433" type="qcurve"/>
      <point x="129" y="433"/>
      <point x="161" y="436"/>
      <point x="181" y="437" type="qcurve"/>
      <point x="306" y="157" type="line"/>
      <point x="308" y="156" type="line"/>
      <point x="311" y="156"/>
      <point x="311" y="160" type="qcurve"/>
      <point x="339" y="230" type="line"/>
      <point x="351" y="260"/>
      <point x="378" y="330"/>
      <point x="389" y="360" type="qcurve"/>
      <point x="393" y="371"/>
      <point x="401" y="397"/>
      <point x="404" y="408" type="qcurve"/>
      <point x="408" y="421"/>
      <point x="411" y="434" type="qcurve"/>
      <point x="413" y="434"/>
      <point x="426" y="434"/>
      <point x="443" y="433"/>
      <point x="459" y="433"/>
      <point x="464" y="433" type="qcurve"/>
      <point x="481" y="433"/>
      <point x="539" y="436"/>
      <point x="559" y="437" type="qcurve"/>
      <point x="561" y="435"/>
      <point x="564" y="416"/>
      <point x="562" y="412" type="qcurve"/>
      <point x="557" y="412"/>
      <point x="532" y="408"/>
      <point x="527" y="405" type="qcurve"/>
      <point x="522" y="401"/>
      <point x="517" y="391"/>
      <point x="518" y="378" type="qcurve"/>
      <point x="519" y="360"/>
      <point x="521" y="293"/>
      <point x="524" y="213"/>
      <point x="526" y="132"/>
      <point x="528" y="100" type="qcurve" name="hr01"/>
      <point x="529" y="81"/>
      <point x="532" y="47"/>
      <point x="537" y="34" type="qcurve"/>
      <point x="538" y="30"/>
      <point x="550" y="26"/>
      <point x="564" y="23"/>
      <point x="576" y="22"/>
      <point x="578" y="22" type="qcurve"/>
      <point x="580" y="17"/>
      <point x="581" y="2"/>
      <point x="579" y="-3" type="qcurve"/>
      <point x="559" y="-1"/>
      <point x="512" y="3"/>
      <point x="490" y="3" type="qcurve"/>
      <point x="467" y="3"/>
      <point x="409" y="-1"/>
      <point x="386" y="-3" type="qcurve"/>
      <point x="384" y="-1"/>
      <point x="383" y="17"/>
      <point x="385" y="22" type="qcurve"/>
      <point x="388" y="22"/>
      <point x="401" y="23"/>
      <point x="416" y="26"/>
      <point x="429" y="31"/>
      <point x="431" y="34" type="qcurve"/>
      <point x="433" y="39"/>
      <point x="436" y="52"/>
      <point x="436" y="57" type="qcurve"/>
      <point x="436" y="98" type="line" name="hr02"/>
      <point x="430" y="301" type="line"/>
      <point x="430" y="305"/>
      <point x="429" y="320"/>
      <point x="428" y="334"/>
      <point x="426" y="345"/>
      <point x="424" y="345" type="qcurve"/>
      <point x="422" y="345"/>
      <point x="421" y="341" type="qcurve"/>
      <point x="305" y="26" type="line"/>
      <point x="304" y="24"/>
      <point x="298" y="15"/>
      <point x="290" y="6"/>
      <point x="281" y="-1"/>
      <point x="277" y="-1" type="qcurve"/>
      <point x="273" y="-1"/>
      <point x="271" y="0" type="qcurve" name="hr03"/>
      <point x="123" y="345" type="line"/>
      <point x="121" y="294"/>
      <point x="120" y="230"/>
      <point x="118" y="179"/>
      <point x="116" y="127"/>
      <point x="115" y="88" type="qcurve"/>
      <point x="114" y="77"/>
      <point x="116" y="47"/>
      <point x="117" y="43" type="qcurve"/>
      <point x="118" y="38"/>
      <point x="136" y="30"/>
      <point x="156" y="25"/>
      <point x="173" y="22"/>
      <point x="175" y="22" type="qcurve"/>
      <point x="177" y="18"/>
      <point x="178" y="2"/>
      <point x="176" y="-3" type="qcurve"/>
      <point x="156" y="-1"/>
      <point x="116" y="3"/>
      <point x="94" y="3" type="qcurve"/>
      <point x="71" y="3"/>
      <point x="35" y="-1"/>
      <point x="12" y="-3" type="qcurve"/>
      <point x="10" y="1"/>
      <point x="9" y="16"/>
      <point x="11" y="21" type="qcurve"/>
      <point x="14" y="21"/>
      <point x="30" y="24"/>
      <point x="48" y="30"/>
      <point x="64" y="39"/>
      <point x="67" y="45" type="qcurve"/>
      <point x="68" y="47"/>
      <point x="71" y="63"/>
      <point x="73" y="81"/>
      <point x="75" y="99"/>
      <point x="75" y="103" type="qcurve"/>
      <point x="76" y="132"/>
      <point x="80" y="218"/>
      <point x="83" y="303"/>
      <point x="86" y="371"/>
      <point x="86" y="383" type="qcurve"/>
      <point x="86" y="387"/>
      <point x="85" y="394"/>
      <point x="83" y="398" type="qcurve"/>
      <point x="81" y="401"/>
      <point x="70" y="406"/>
      <point x="57" y="410"/>
      <point x="44" y="412"/>
      <point x="40" y="412" type="qcurve"/>
      <point x="37" y="417"/>
      <point x="39" y="436"/>
    </contour>
  </outline>
</glyph>
<glyph name="N" format="1">
  <advance width="494"/>
  <unicode hex="004E"/>
  <outline>
    <contour>
      <point x="98" y="432" type="qcurve" name="hr00"/>
      <point x="115" y="432"/>
      <point x="153" y="435"/>
      <point x="170" y="437" type="qcurve"/>
      <point x="179" y="417"/>
      <point x="225" y="356"/>
      <point x="284" y="282"/>
      <point x="351" y="202"/>
      <point x="381" y="164" type="qcurve"/>
      <point x="383" y="167"/>
      <point x="383" y="183"/>
      <point x="383" y="191" type="qcurve"/>
      <point x="383" y="314" type="line"/>
      <point x="383" y="323"/>
      <point x="382" y="349"/>
      <point x="380" y="375"/>
      <point x="377" y="395"/>
      <point x="376" y="399" type="qcurve"/>
      <point x="374" y="403"/>
      <point x="359" y="409"/>
      <point x="341" y="412"/>
      <point x="325" y="413"/>
      <point x="322" y="413" type="qcurve"/>
      <point x="321" y="413"/>
      <point x="320" y="433"/>
      <point x="322" y="438" type="qcurve"/>
      <point x="345" y="436"/>
      <point x="380" y="432"/>
      <point x="403" y="432" type="qcurve"/>
      <point x="425" y="432"/>
      <point x="466" y="436"/>
      <point x="486" y="438" type="qcurve"/>
      <point x="487" y="435"/>
      <point x="487" y="417"/>
      <point x="484" y="412" type="qcurve"/>
      <point x="482" y="412"/>
      <point x="466" y="411"/>
      <point x="448" y="408"/>
      <point x="432" y="402"/>
      <point x="430" y="397" type="qcurve"/>
      <point x="428" y="394"/>
      <point x="426" y="374"/>
      <point x="424" y="350"/>
      <point x="423" y="325"/>
      <point x="423" y="316" type="qcurve"/>
      <point x="423" y="92" type="line"/>
      <point x="423" y="63"/>
      <point x="424" y="25"/>
      <point x="426" y="-1" type="qcurve"/>
      <point x="424" y="-3"/>
      <point x="411" y="-3"/>
      <point x="409" y="-3" type="qcurve"/>
      <point x="399" y="-3"/>
      <point x="389" y="12" type="qcurve"/>
      <point x="120" y="343" type="line"/>
      <point x="120" y="104" type="line"/>
      <point x="120" y="86"/>
      <point x="125" y="47"/>
      <point x="127" y="40" type="qcurve"/>
      <point x="129" y="35"/>
      <point x="145" y="28"/>
      <point x="163" y="24"/>
      <point x="179" y="22"/>
      <point x="181" y="22" type="qcurve"/>
      <point x="184" y="17"/>
      <point x="184" y="0"/>
      <point x="183" y="-3" type="qcurve"/>
      <point x="163" y="-1"/>
      <point x="122" y="3"/>
      <point x="100" y="3" type="qcurve"/>
      <point x="77" y="3"/>
      <point x="42" y="-1"/>
      <point x="19" y="-3" type="qcurve"/>
      <point x="17" y="2"/>
      <point x="18" y="22"/>
      <point x="19" y="22" type="qcurve"/>
      <point x="22" y="22"/>
      <point x="38" y="24"/>
      <point x="55" y="28"/>
      <point x="70" y="34"/>
      <point x="72" y="39" type="qcurve"/>
      <point x="76" y="47"/>
      <point x="80" y="87"/>
      <point x="80" y="106" type="qcurve"/>
      <point x="80" y="339" type="line"/>
      <point x="80" y="353"/>
      <point x="75" y="389"/>
      <point x="68" y="399" type="qcurve"/>
      <point x="66" y="402"/>
      <point x="54" y="407"/>
      <point x="40" y="410"/>
      <point x="27" y="412"/>
      <point x="24" y="412" type="qcurve"/>
      <point x="23" y="412"/>
      <point x="21" y="419"/>
      <point x="21" y="428"/>
      <point x="22" y="436"/>
      <point x="23" y="437" type="qcurve"/>
      <point x="39" y="436"/>
      <point x="75" y="432"/>
    </contour>
  </outline>
</glyph>
<glyph name="O" format="1">
  <advance width="497"/>
  <unicode hex="004F"/>
  <outline>
    <contour>
      <point x="232" y="412" type="qcurve" name="hr00"/>
      <point x="203" y="412"/>
      <point x="163" y="380"/>
      <point x="139" y="331"/>
      <point x="129" y="270"/>
      <point x="129" y="240" type="qcurve"/>
      <point x="129" y="202"/>
      <point x="143" y="125"/>
      <point x="174" y="62"/>
      <point x="224" y="22"/>
      <point x="261" y="22" type="qcurve"/>
      <point x="291" y="22"/>
      <point x="331" y="53"/>
      <point x="355" y="102"/>
      <point x="366" y="163"/>
      <point x="366" y="193" type="qcurve"/>
      <point x="366" y="231"/>
      <point x="352" y="309"/>
      <point x="320" y="372"/>
      <point x="269" y="412"/>
    </contour>
    <contour>
      <point x="247" y="440" type="qcurve"/>
      <point x="291" y="440"/>
      <point x="372" y="405"/>
      <point x="435" y="344"/>
      <point x="472" y="262"/>
      <point x="472" y="216" type="qcurve"/>
      <point x="472" y="170"/>
      <point x="435" y="89"/>
      <point x="372" y="28"/>
      <point x="291" y="-7"/>
      <point x="247" y="-7" type="qcurve"/>
      <point x="203" y="-7"/>
      <point x="123" y="28"/>
      <point x="60" y="89"/>
      <point x="23" y="170"/>
      <point x="23" y="216" type="qcurve"/>
      <point x="23" y="262"/>
      <point x="60" y="344"/>
      <point x="123" y="405"/>
      <point x="203" y="440"/>
    </contour>
  </outline>
</glyph>
<glyph name="P" format="1">
  <advance width="388"/>
  <unicode hex="0050"/>
  <outline>
    <contour>
      <point x="24" y="436" type="qcurve" name="hr00"/>
      <point x="47" y="434"/>
      <point x="98" y="434"/>
      <point x="119" y="434" type="qcurve"/>
      <point x="140" y="434"/>
      <point x="191" y="436"/>
      <point x="220" y="436" type="qcurve"/>
      <point x="251" y="436"/>
      <point x="306" y="420"/>
      <point x="348" y="390"/>
      <point x="372" y="346"/>
      <point x="372" y="318" type="qcurve"/>
      <point x="372" y="288"/>
      <point x="349" y="241"/>
      <point x="312" y="207"/>
      <point x="265" y="189"/>
      <point x="240" y="189" type="qcurve"/>
      <point x="222" y="189"/>
      <point x="198" y="201"/>
      <point x="194" y="205" type="qcurve"/>
      <point x="191" y="208"/>
      <point x="188" y="226"/>
      <point x="191" y="226" type="qcurve"/>
      <point x="196" y="224"/>
      <point x="211" y="223"/>
      <point x="218" y="223" type="qcurve"/>
      <point x="243" y="223"/>
      <point x="274" y="271"/>
      <point x="274" y="309" type="qcurve"/>
      <point x="274" y="328"/>
      <point x="264" y="365"/>
      <point x="244" y="392"/>
      <point x="217" y="409"/>
      <point x="201" y="409" type="qcurve"/>
      <point x="189" y="409"/>
      <point x="170" y="407"/>
      <point x="168" y="401" type="qcurve"/>
      <point x="165" y="395"/>
      <point x="164" y="375"/>
      <point x="164" y="361" type="qcurve"/>
      <point x="164" y="96" type="line"/>
      <point x="164" y="74"/>
      <point x="165" y="44"/>
      <point x="170" y="34" type="qcurve"/>
      <point x="171" y="31"/>
      <point x="182" y="26"/>
      <point x="195" y="23"/>
      <point x="209" y="22"/>
      <point x="212" y="22" type="qcurve"/>
      <point x="214" y="18"/>
      <point x="214" y="0"/>
      <point x="212" y="-3" type="qcurve"/>
      <point x="192" y="-1"/>
      <point x="138" y="2"/>
      <point x="117" y="2" type="qcurve"/>
      <point x="97" y="2"/>
      <point x="44" y="-1"/>
      <point x="24" y="-3" type="qcurve"/>
      <point x="22" y="0"/>
      <point x="22" y="18"/>
      <point x="24" y="22" type="qcurve"/>
      <point x="27" y="22"/>
      <point x="41" y="23"/>
      <point x="54" y="26"/>
      <point x="65" y="31"/>
      <point x="67" y="34" type="qcurve"/>
      <point x="71" y="44"/>
      <point x="72" y="74"/>
      <point x="72" y="96" type="qcurve"/>
      <point x="72" y="339" type="line"/>
      <point x="72" y="360"/>
      <point x="71" y="390"/>
      <point x="67" y="401" type="qcurve"/>
      <point x="65" y="404"/>
      <point x="54" y="408"/>
      <point x="41" y="410"/>
      <point x="27" y="411"/>
      <point x="24" y="411" type="qcurve"/>
      <point x="22" y="415"/>
      <point x="22" y="433"/>
    </contour>
  </outline>
</glyph>
<glyph name="Q" format="1">
  <advance width="481"/>
  <unicode hex="0051"/>
  <outline>
    <contour>
      <point x="247" y="440" type="qcurve"/>
      <point x="291" y="440"/>
      <point x="372" y="405"/>
      <point x="435" y="344"/>
      <point x="472" y="262"/>
      <point x="472" y="216" type="qcurve"/>
      <point x="472" y="179"/>
      <point x="447" y="112"/>
      <point x="405" y="57"/>
      <point x="348" y="16"/>
      <point x="315" y="5" type="qcurve"/>
      <point x="338" y="-6"/>
      <point x="371" y="-26"/>
      <point x="402" y="-41"/>
      <point x="437" y="-49"/>
      <point x="462" y="-49" type="qcurve"/>
      <point x="482" y="-49"/>
      <point x="509" y="-43"/>
      <point x="513" y="-43" type="qcurve"/>
      <point x="517" y="-43"/>
      <point x="520" y="-50"/>
      <point x="520" y="-55" type="qcurve"/>
      <point x="520" y="-59" type="line"/>
      <point x="493" y="-73"/>
      <point x="420" y="-94"/>
      <point x="390" y="-94" type="qcurve"/>
      <point x="363" y="-94"/>
      <point x="315" y="-71"/>
      <point x="269" y="-40"/>
      <point x="222" y="-8"/>
      <point x="195" y="0" type="qcurve"/>
      <point x="159" y="9"/>
      <point x="97" y="50"/>
      <point x="50" y="107"/>
      <point x="23" y="177"/>
      <point x="23" y="216" type="qcurve"/>
      <point x="23" y="262"/>
      <point x="60" y="344"/>
      <point x="123" y="405"/>
      <point x="203" y="440"/>
    </contour>
    <contour>
      <point x="232" y="412" type="qcurve"/>
      <point x="203" y="412"/>
      <point x="163" y="380"/>
      <point x="139" y="331"/>
      <point x="129" y="270"/>
      <point x="129" y="240" type="qcurve"/>
      <point x="129" y="202"/>
      <point x="143" y="125"/>
      <point x="174" y="62"/>
      <point x="224" y="22"/>
      <point x="261" y="22" type="qcurve" name="hr01"/>
      <point x="291" y="22"/>
      <point x="331" y="53"/>
      <point x="355" y="102"/>
      <point x="366" y="163"/>
      <point x="366" y="193" type="qcurve"/>
      <point x="366" y="231"/>
      <point x="352" y="309"/>
      <point x="320" y="372"/>
      <point x="269" y="412"/>
    </contour>
  </outline>
</glyph>
<glyph name="R" format="1">
  <advance width="490"/>
  <unicode hex="0052"/>
  <outline>
    <contour>
      <point x="220" y="436" type="qcurve" name="hr00"/>
      <point x="251" y="436"/>
      <point x="304" y="421"/>
      <point x="343" y="390"/>
      <point x="365" y="345"/>
      <point x="365" y="315" type="qcurve"/>
      <point x="365" y="295"/>
      <point x="346" y="259"/>
      <point x="318" y="230"/>
      <point x="287" y="212"/>
      <point x="275" y="209" type="qcurve"/>
      <point x="371" y="86" type="line"/>
      <point x="389" y="63"/>
      <point x="427" y="37"/>
      <point x="457" y="25"/>
      <point x="478" y="22"/>
      <point x="480" y="22" type="qcurve"/>
      <point x="483" y="18"/>
      <point x="481" y="-1"/>
      <point x="480" y="-3" type="qcurve"/>
      <point x="466" y="-4"/>
      <point x="414" y="-5"/>
      <point x="394" y="-5" type="qcurve"/>
      <point x="356" y="-5"/>
      <point x="306" y="27"/>
      <point x="293" y="44" type="qcurve"/>
      <point x="186" y="187" type="line"/>
      <point x="184" y="189"/>
      <point x="182" y="192" type="qcurve"/>
      <point x="177" y="197"/>
      <point x="174" y="197" type="qcurve"/>
      <point x="164" y="197" type="line"/>
      <point x="164" y="96" type="line"/>
      <point x="164" y="74"/>
      <point x="165" y="44"/>
      <point x="170" y="34" type="qcurve"/>
      <point x="171" y="31"/>
      <point x="182" y="26"/>
      <point x="195" y="23"/>
      <point x="209" y="22"/>
      <point x="212" y="22" type="qcurve"/>
      <point x="214" y="18"/>
      <point x="214" y="0"/>
      <point x="212" y="-3" type="qcurve"/>
      <point x="192" y="-1"/>
      <point x="138" y="2"/>
      <point x="117" y="2" type="qcurve"/>
      <point x="97" y="2"/>
      <point x="44" y="-1"/>
      <point x="24" y="-3" type="qcurve"/>
      <point x="22" y="0"/>
      <point x="22" y="18"/>
      <point x="24" y="22" type="qcurve"/>
      <point x="27" y="22"/>
      <point x="41" y="23"/>
      <point x="54" y="26"/>
      <point x="65" y="31"/>
      <point x="67" y="34" type="qcurve"/>
      <point x="71" y="44"/>
      <point x="72" y="74"/>
      <point x="72" y="96" type="qcurve"/>
      <point x="72" y="339" type="line"/>
      <point x="72" y="360"/>
      <point x="71" y="390"/>
      <point x="67" y="401" type="qcurve"/>
      <point x="65" y="404"/>
      <point x="54" y="408"/>
      <point x="41" y="410"/>
      <point x="27" y="411"/>
      <point x="24" y="411" type="qcurve"/>
      <point x="22" y="415"/>
      <point x="22" y="433"/>
      <point x="24" y="436" type="qcurve"/>
      <point x="47" y="434"/>
      <point x="98" y="434"/>
      <point x="119" y="434" type="qcurve"/>
      <point x="140" y="434"/>
      <point x="191" y="436"/>
    </contour>
    <contour>
      <point x="267" y="309" type="qcurve"/>
      <point x="267" y="328"/>
      <point x="262" y="365"/>
      <point x="247" y="392"/>
      <point x="221" y="409"/>
      <point x="201" y="409" type="qcurve"/>
      <point x="189" y="409"/>
      <point x="170" y="407"/>
      <point x="168" y="401" type="qcurve"/>
      <point x="165" y="395"/>
      <point x="164" y="375"/>
      <point x="164" y="361" type="qcurve"/>
      <point x="164" y="223" type="line"/>
      <point x="195" y="223" type="line"/>
      <point x="224" y="223"/>
      <point x="267" y="271"/>
    </contour>
  </outline>
</glyph>
<glyph name="S" format="1">
  <advance width="315"/>
  <unicode hex="0053"/>
  <outline>
    <contour>
      <point x="165" y="21" type="qcurve" name="hr00"/>
      <point x="191" y="21"/>
      <point x="229" y="50"/>
      <point x="229" y="85" type="qcurve"/>
      <point x="229" y="103"/>
      <point x="208" y="134"/>
      <point x="177" y="162"/>
      <point x="143" y="184"/>
      <point x="131" y="193" type="qcurve"/>
      <point x="113" y="205"/>
      <point x="78" y="229"/>
      <point x="51" y="259"/>
      <point x="35" y="297"/>
      <point x="35" y="323" type="qcurve"/>
      <point x="35" y="348"/>
      <point x="60" y="392"/>
      <point x="100" y="424"/>
      <point x="150" y="442"/>
      <point x="176" y="442" type="qcurve"/>
      <point x="205" y="442"/>
      <point x="256" y="430"/>
      <point x="286" y="424" type="qcurve"/>
      <point x="289" y="398"/>
      <point x="292" y="344"/>
      <point x="294" y="314" type="qcurve"/>
      <point x="290" y="310"/>
      <point x="286" y="310" type="qcurve"/>
      <point x="284" y="310"/>
      <point x="268" y="311"/>
      <point x="267" y="315" type="qcurve"/>
      <point x="265" y="329"/>
      <point x="251" y="363"/>
      <point x="229" y="393"/>
      <point x="198" y="414"/>
      <point x="179" y="414" type="qcurve"/>
      <point x="159" y="414"/>
      <point x="123" y="390"/>
      <point x="123" y="357" type="qcurve"/>
      <point x="123" y="342"/>
      <point x="141" y="313"/>
      <point x="170" y="286"/>
      <point x="203" y="261"/>
      <point x="218" y="251" type="qcurve"/>
      <point x="234" y="240"/>
      <point x="269" y="217"/>
      <point x="297" y="186"/>
      <point x="315" y="145"/>
      <point x="315" y="115" type="qcurve"/>
      <point x="315" y="88"/>
      <point x="291" y="43"/>
      <point x="250" y="11"/>
      <point x="199" y="-7"/>
      <point x="172" y="-7" type="qcurve"/>
      <point x="143" y="-7"/>
      <point x="76" y="3"/>
      <point x="46" y="11" type="qcurve"/>
      <point x="44" y="22"/>
      <point x="39" y="54"/>
      <point x="34" y="87"/>
      <point x="31" y="116"/>
      <point x="30" y="123" type="qcurve"/>
      <point x="32" y="126"/>
      <point x="47" y="132"/>
      <point x="49" y="132" type="qcurve"/>
      <point x="57" y="132"/>
      <point x="58" y="127" type="qcurve"/>
      <point x="60" y="113"/>
      <point x="78" y="77"/>
      <point x="106" y="44"/>
      <point x="143" y="21"/>
    </contour>
  </outline>
</glyph>
<glyph name="T" format="1">
  <advance width="419"/>
  <unicode hex="0054"/>
  <outline>
    <contour>
      <point x="317" y="434" type="line"/>
      <point x="335" y="434"/>
      <point x="358" y="438"/>
      <point x="372" y="442"/>
      <point x="381" y="446"/>
      <point x="386" y="446" type="qcurve" name="hr01"/>
      <point x="390" y="446"/>
      <point x="392" y="445"/>
      <point x="394" y="444" type="qcurve"/>
      <point x="412" y="323" type="line"/>
      <point x="410" y="321"/>
      <point x="398" y="318"/>
      <point x="393" y="318" type="qcurve" name="hr02"/>
      <point x="387" y="318"/>
      <point x="386" y="321" type="qcurve"/>
      <point x="383" y="337"/>
      <point x="370" y="367"/>
      <point x="351" y="391"/>
      <point x="328" y="405"/>
      <point x="315" y="405" type="qcurve" name="hr03"/>
      <point x="254" y="405" type="line"/>
      <point x="254" y="96" type="line"/>
      <point x="254" y="74"/>
      <point x="255" y="44"/>
      <point x="259" y="34" type="qcurve"/>
      <point x="260" y="31"/>
      <point x="272" y="26"/>
      <point x="285" y="23"/>
      <point x="299" y="22"/>
      <point x="302" y="22" type="qcurve"/>
      <point x="304" y="18"/>
      <point x="304" y="0"/>
      <point x="302" y="-3" type="qcurve"/>
      <point x="282" y="-1"/>
      <point x="228" y="2"/>
      <point x="207" y="2" type="qcurve"/>
      <point x="187" y="2"/>
      <point x="134" y="-1"/>
      <point x="114" y="-3" type="qcurve"/>
      <point x="112" y="0"/>
      <point x="112" y="18"/>
      <point x="114" y="22" type="qcurve"/>
      <point x="117" y="22"/>
      <point x="130" y="23"/>
      <point x="144" y="26"/>
      <point x="155" y="31"/>
      <point x="156" y="34" type="qcurve"/>
      <point x="161" y="44"/>
      <point x="162" y="74"/>
      <point x="162" y="96" type="qcurve"/>
      <point x="162" y="405" type="line"/>
      <point x="100" y="405" type="line"/>
      <point x="88" y="405"/>
      <point x="64" y="391"/>
      <point x="45" y="367"/>
      <point x="32" y="337"/>
      <point x="30" y="321" type="qcurve"/>
      <point x="28" y="318"/>
      <point x="23" y="318" type="qcurve" name="hr04"/>
      <point x="18" y="318"/>
      <point x="6" y="321"/>
      <point x="4" y="323" type="qcurve"/>
      <point x="22" y="444" type="line"/>
      <point x="24" y="445"/>
      <point x="25" y="446"/>
      <point x="30" y="446" type="qcurve" name="hr05"/>
      <point x="34" y="446"/>
      <point x="44" y="442"/>
      <point x="58" y="438"/>
      <point x="80" y="434"/>
      <point x="98" y="434" type="qcurve" name="hr06"/>
    </contour>
  </outline>
</glyph>
<glyph name="U" format="1">
  <advance width="482"/>
  <unicode hex="0055"/>
  <outline>
    <contour>
      <point x="418" y="189" type="line" name="hr00"/>
      <point x="418" y="138"/>
      <point x="388" y="65"/>
      <point x="338" y="17"/>
      <point x="273" y="-6"/>
      <point x="237" y="-6" type="qcurve"/>
      <point x="195" y="-6"/>
      <point x="121" y="23"/>
      <point x="98" y="52" type="qcurve"/>
      <point x="78" y="76"/>
      <point x="61" y="147"/>
      <point x="61" y="199" type="qcurve"/>
      <point x="61" y="339" type="line"/>
      <point x="61" y="360"/>
      <point x="60" y="390"/>
      <point x="55" y="401" type="qcurve"/>
      <point x="54" y="404"/>
      <point x="43" y="408"/>
      <point x="29" y="411"/>
      <point x="16" y="412"/>
      <point x="13" y="412" type="qcurve"/>
      <point x="11" y="416"/>
      <point x="11" y="434"/>
      <point x="13" y="437" type="qcurve"/>
      <point x="33" y="435"/>
      <point x="87" y="432"/>
      <point x="108" y="432" type="qcurve"/>
      <point x="128" y="432"/>
      <point x="181" y="435"/>
      <point x="201" y="437" type="qcurve"/>
      <point x="203" y="434"/>
      <point x="203" y="416"/>
      <point x="201" y="412" type="qcurve"/>
      <point x="198" y="412"/>
      <point x="184" y="411"/>
      <point x="171" y="408"/>
      <point x="159" y="404"/>
      <point x="158" y="401" type="qcurve"/>
      <point x="154" y="390"/>
      <point x="153" y="360"/>
      <point x="153" y="339" type="qcurve"/>
      <point x="153" y="218" type="line"/>
      <point x="153" y="184"/>
      <point x="158" y="131"/>
      <point x="170" y="105" type="qcurve"/>
      <point x="179" y="83"/>
      <point x="206" y="58"/>
      <point x="234" y="45"/>
      <point x="260" y="42"/>
      <point x="270" y="42" type="qcurve"/>
      <point x="290" y="42"/>
      <point x="328" y="60"/>
      <point x="358" y="99"/>
      <point x="377" y="160"/>
      <point x="377" y="204" type="qcurve"/>
      <point x="377" y="316" type="line"/>
      <point x="377" y="338"/>
      <point x="372" y="386"/>
      <point x="368" y="397" type="qcurve"/>
      <point x="366" y="401"/>
      <point x="352" y="407"/>
      <point x="336" y="411"/>
      <point x="321" y="412"/>
      <point x="318" y="412" type="qcurve"/>
      <point x="316" y="416"/>
      <point x="316" y="434"/>
      <point x="318" y="437" type="qcurve"/>
      <point x="341" y="435"/>
      <point x="378" y="432"/>
      <point x="401" y="432" type="qcurve"/>
      <point x="423" y="432"/>
      <point x="458" y="436"/>
      <point x="478" y="437" type="qcurve"/>
      <point x="480" y="434"/>
      <point x="480" y="416"/>
      <point x="478" y="412" type="qcurve"/>
      <point x="475" y="412"/>
      <point x="459" y="411"/>
      <point x="443" y="408"/>
      <point x="429" y="402"/>
      <point x="427" y="397" type="qcurve"/>
      <point x="423" y="386"/>
      <point x="418" y="338"/>
      <point x="418" y="317" type="qcurve"/>
    </contour>
  </outline>
</glyph>
<glyph name="V" format="1">
  <advance width="464"/>
  <unicode hex="0056"/>
  <outline>
    <contour>
      <point x="360" y="397" type="qcurve"/>
      <point x="360" y="401"/>
      <point x="346" y="407"/>
      <point x="327" y="411"/>
      <point x="310" y="412"/>
      <point x="307" y="412" type="qcurve"/>
      <point x="305" y="416"/>
      <point x="305" y="434"/>
      <point x="307" y="437" type="qcurve"/>
      <point x="330" y="435"/>
      <point x="362" y="432"/>
      <point x="385" y="432" type="qcurve"/>
      <point x="407" y="432"/>
      <point x="439" y="436"/>
      <point x="459" y="437" type="qcurve"/>
      <point x="461" y="434"/>
      <point x="462" y="416"/>
      <point x="459" y="412" type="qcurve"/>
      <point x="456" y="412"/>
      <point x="443" y="411"/>
      <point x="429" y="409"/>
      <point x="416" y="405"/>
      <point x="413" y="401" type="qcurve"/>
      <point x="405" y="390"/>
      <point x="393" y="363"/>
      <point x="386" y="346" type="qcurve" name="hr01"/>
      <point x="249" y="20" type="line" name="hr02"/>
      <point x="245" y="11"/>
      <point x="224" y="-7"/>
      <point x="218" y="-7" type="qcurve" name="hr03"/>
      <point x="213" y="-7"/>
      <point x="211" y="-2"/>
      <point x="209" y="2" type="qcurve" name="hr04"/>
      <point x="65" y="337" type="line"/>
      <point x="59" y="351"/>
      <point x="47" y="381"/>
      <point x="42" y="391" type="qcurve"/>
      <point x="36" y="404"/>
      <point x="3" y="412"/>
      <point x="-3" y="412" type="qcurve"/>
      <point x="-6" y="416"/>
      <point x="-5" y="434"/>
      <point x="-3" y="437" type="qcurve"/>
      <point x="16" y="435"/>
      <point x="70" y="432"/>
      <point x="91" y="432" type="qcurve"/>
      <point x="112" y="432"/>
      <point x="164" y="435"/>
      <point x="184" y="437" type="qcurve"/>
      <point x="186" y="434"/>
      <point x="186" y="416"/>
      <point x="184" y="412" type="qcurve"/>
      <point x="181" y="412"/>
      <point x="168" y="411"/>
      <point x="154" y="408"/>
      <point x="144" y="401"/>
      <point x="144" y="395" type="qcurve"/>
      <point x="144" y="387"/>
      <point x="154" y="359"/>
      <point x="160" y="345" type="qcurve" name="hr05"/>
      <point x="258" y="123" type="line" name="hr06"/>
      <point x="281" y="179"/>
      <point x="299" y="226" type="qcurve" name="hr07"/>
      <point x="307" y="246"/>
      <point x="322" y="285"/>
      <point x="335" y="317"/>
      <point x="344" y="340"/>
      <point x="345" y="344" type="qcurve" name="hr08"/>
      <point x="350" y="357"/>
      <point x="360" y="386"/>
    </contour>
  </outline>
</glyph>
<glyph name="W" format="1">
  <advance width="619"/>
  <unicode hex="0057"/>
  <outline>
    <contour>
      <point x="-4" y="412" type="qcurve"/>
      <point x="-7" y="416"/>
      <point x="-6" y="434"/>
      <point x="-4" y="437" type="qcurve"/>
      <point x="16" y="435"/>
      <point x="70" y="432"/>
      <point x="90" y="432" type="qcurve"/>
      <point x="111" y="432"/>
      <point x="164" y="435"/>
      <point x="183" y="437" type="qcurve"/>
      <point x="185" y="434"/>
      <point x="186" y="416"/>
      <point x="183" y="412" type="qcurve"/>
      <point x="180" y="412"/>
      <point x="167" y="411"/>
      <point x="153" y="408"/>
      <point x="143" y="401"/>
      <point x="143" y="395" type="qcurve"/>
      <point x="143" y="387"/>
      <point x="154" y="359"/>
      <point x="159" y="345" type="qcurve"/>
      <point x="224" y="166" type="line"/>
      <point x="312" y="412" type="line"/>
      <point x="315" y="422"/>
      <point x="327" y="437"/>
      <point x="332" y="437" type="qcurve"/>
      <point x="336" y="437"/>
      <point x="340" y="426" type="qcurve"/>
      <point x="453" y="141" type="line"/>
      <point x="517" y="344" type="line"/>
      <point x="522" y="357"/>
      <point x="531" y="386"/>
      <point x="531" y="397" type="qcurve" name="hr01"/>
      <point x="531" y="401"/>
      <point x="517" y="407"/>
      <point x="499" y="411"/>
      <point x="482" y="412"/>
      <point x="479" y="412" type="qcurve" name="hr02"/>
      <point x="477" y="416"/>
      <point x="477" y="434"/>
      <point x="479" y="437" type="qcurve" name="hr03"/>
      <point x="502" y="435"/>
      <point x="535" y="432"/>
      <point x="558" y="432" type="qcurve" name="hr04"/>
      <point x="580" y="432"/>
      <point x="612" y="436"/>
      <point x="632" y="437" type="qcurve"/>
      <point x="634" y="434"/>
      <point x="634" y="416"/>
      <point x="632" y="412" type="qcurve"/>
      <point x="625" y="412"/>
      <point x="591" y="408"/>
      <point x="585" y="401" type="qcurve"/>
      <point x="578" y="390"/>
      <point x="564" y="363"/>
      <point x="558" y="346" type="qcurve"/>
      <point x="450" y="26" type="line" name="hr05"/>
      <point x="445" y="14"/>
      <point x="430" y="-7"/>
      <point x="424" y="-7" type="qcurve" name="hr06"/>
      <point x="416" y="-7"/>
      <point x="411" y="2" type="qcurve"/>
      <point x="302" y="276" type="line"/>
      <point x="218" y="29" type="line"/>
      <point x="217" y="26"/>
      <point x="212" y="14"/>
      <point x="205" y="2"/>
      <point x="198" y="-7"/>
      <point x="195" y="-7" type="qcurve"/>
      <point x="188" y="-7"/>
      <point x="183" y="2" type="qcurve" name="hr07"/>
      <point x="64" y="337" type="line" name="hr08"/>
      <point x="59" y="351"/>
      <point x="46" y="381"/>
      <point x="41" y="391" type="qcurve" name="hr09"/>
      <point x="35" y="404"/>
      <point x="3" y="412"/>
    </contour>
  </outline>
</glyph>
<glyph name="X" format="1">
  <advance width="466"/>
  <unicode hex="0058"/>
  <outline>
    <contour>
      <point x="11" y="437" type="qcurve"/>
      <point x="35" y="436"/>
      <point x="89" y="433"/>
      <point x="114" y="433" type="qcurve" name="hr01"/>
      <point x="138" y="433"/>
      <point x="189" y="436"/>
      <point x="209" y="437" type="qcurve"/>
      <point x="210" y="434"/>
      <point x="210" y="412"/>
      <point x="207" y="412" type="qcurve"/>
      <point x="200" y="412"/>
      <point x="173" y="407"/>
      <point x="172" y="399" type="qcurve"/>
      <point x="172" y="392"/>
      <point x="178" y="384" type="qcurve"/>
      <point x="251" y="273" type="line"/>
      <point x="263" y="289"/>
      <point x="294" y="326"/>
      <point x="321" y="360"/>
      <point x="339" y="386"/>
      <point x="339" y="392" type="qcurve" name="hr02"/>
      <point x="339" y="400"/>
      <point x="307" y="412"/>
      <point x="290" y="412" type="qcurve" name="hr03"/>
      <point x="288" y="412"/>
      <point x="287" y="419"/>
      <point x="287" y="428"/>
      <point x="288" y="436"/>
      <point x="289" y="437" type="qcurve" name="hr04"/>
      <point x="306" y="435"/>
      <point x="358" y="432"/>
      <point x="377" y="432" type="qcurve" name="hr05"/>
      <point x="403" y="432"/>
      <point x="442" y="435"/>
      <point x="456" y="437" type="qcurve"/>
      <point x="458" y="434"/>
      <point x="458" y="412"/>
      <point x="455" y="412" type="qcurve"/>
      <point x="453" y="412"/>
      <point x="438" y="411"/>
      <point x="416" y="404"/>
      <point x="392" y="390"/>
      <point x="381" y="378" type="qcurve"/>
      <point x="269" y="244" type="line"/>
      <point x="290" y="212"/>
      <point x="333" y="147"/>
      <point x="371" y="92"/>
      <point x="397" y="54"/>
      <point x="401" y="50" type="qcurve"/>
      <point x="408" y="41"/>
      <point x="428" y="30"/>
      <point x="447" y="24"/>
      <point x="463" y="22"/>
      <point x="467" y="22" type="qcurve" name="hr06"/>
      <point x="469" y="17"/>
      <point x="469" y="2"/>
      <point x="467" y="-3" type="qcurve" name="hr07"/>
      <point x="457" y="-2"/>
      <point x="429" y="-1"/>
      <point x="399" y="0"/>
      <point x="371" y="1"/>
      <point x="361" y="1" type="qcurve" name="hr08"/>
      <point x="333" y="1"/>
      <point x="285" y="-1"/>
      <point x="257" y="-3" type="qcurve" name="hr09"/>
      <point x="254" y="0"/>
      <point x="256" y="22"/>
      <point x="258" y="22" type="qcurve"/>
      <point x="261" y="22"/>
      <point x="273" y="24"/>
      <point x="285" y="29"/>
      <point x="295" y="35"/>
      <point x="295" y="40" type="qcurve"/>
      <point x="295" y="44"/>
      <point x="293" y="48" type="qcurve"/>
      <point x="205" y="180" type="line"/>
      <point x="200" y="174"/>
      <point x="169" y="133"/>
      <point x="136" y="87"/>
      <point x="109" y="48"/>
      <point x="109" y="44" type="qcurve" name="hr10"/>
      <point x="109" y="38"/>
      <point x="121" y="30"/>
      <point x="137" y="24"/>
      <point x="156" y="22"/>
      <point x="164" y="22" type="qcurve" name="hr11"/>
      <point x="166" y="18"/>
      <point x="168" y="3"/>
      <point x="166" y="-3" type="qcurve" name="hr12"/>
      <point x="149" y="-1"/>
      <point x="97" y="1"/>
      <point x="79" y="1" type="qcurve" name="hr13"/>
      <point x="53" y="1"/>
      <point x="14" y="-1"/>
      <point x="-6" y="-3" type="qcurve"/>
      <point x="-8" y="0"/>
      <point x="-8" y="18"/>
      <point x="-6" y="22" type="qcurve"/>
      <point x="-4" y="22"/>
      <point x="13" y="23"/>
      <point x="35" y="29"/>
      <point x="58" y="41"/>
      <point x="66" y="52" type="qcurve"/>
      <point x="183" y="213" type="line"/>
      <point x="91" y="354" type="line"/>
      <point x="82" y="368"/>
      <point x="63" y="398"/>
      <point x="55" y="403" type="qcurve" name="hr14"/>
      <point x="52" y="405"/>
      <point x="39" y="409"/>
      <point x="25" y="411"/>
      <point x="14" y="412"/>
      <point x="11" y="412" type="qcurve"/>
      <point x="9" y="412"/>
      <point x="8" y="419"/>
      <point x="8" y="428"/>
      <point x="9" y="436"/>
    </contour>
  </outline>
</glyph>
<glyph name="Y" format="1">
  <advance width="413"/>
  <unicode hex="0059"/>
  <outline>
    <contour>
      <point x="150" y="191" type="line"/>
      <point x="150" y="195"/>
      <point x="123" y="246"/>
      <point x="107" y="276" type="qcurve"/>
      <point x="88" y="310"/>
      <point x="64" y="354" type="qcurve"/>
      <point x="56" y="368"/>
      <point x="49" y="381"/>
      <point x="44" y="391" type="qcurve"/>
      <point x="36" y="403"/>
      <point x="5" y="412"/>
      <point x="-1" y="412" type="qcurve"/>
      <point x="-4" y="416"/>
      <point x="-3" y="434"/>
      <point x="-1" y="437" type="qcurve"/>
      <point x="18" y="435"/>
      <point x="72" y="432"/>
      <point x="93" y="432" type="qcurve"/>
      <point x="114" y="432"/>
      <point x="166" y="435"/>
      <point x="186" y="437" type="qcurve"/>
      <point x="188" y="434"/>
      <point x="188" y="416"/>
      <point x="186" y="412" type="qcurve"/>
      <point x="183" y="412"/>
      <point x="170" y="411"/>
      <point x="156" y="408"/>
      <point x="146" y="401"/>
      <point x="146" y="395" type="qcurve"/>
      <point x="146" y="393"/>
      <point x="148" y="388"/>
      <point x="150" y="384" type="qcurve"/>
      <point x="230" y="238" type="line"/>
      <point x="231" y="237"/>
      <point x="249" y="267"/>
      <point x="274" y="311"/>
      <point x="302" y="361"/>
      <point x="313" y="381" type="qcurve" name="hr01"/>
      <point x="316" y="390"/>
      <point x="316" y="397" type="qcurve" name="hr02"/>
      <point x="316" y="401"/>
      <point x="303" y="407"/>
      <point x="287" y="411"/>
      <point x="270" y="412"/>
      <point x="267" y="412" type="qcurve" name="hr03"/>
      <point x="265" y="416"/>
      <point x="265" y="434"/>
      <point x="267" y="437" type="qcurve" name="hr04"/>
      <point x="279" y="436"/>
      <point x="297" y="434"/>
      <point x="313" y="433"/>
      <point x="331" y="432"/>
      <point x="342" y="432" type="qcurve"/>
      <point x="364" y="432"/>
      <point x="396" y="436"/>
      <point x="416" y="437" type="qcurve"/>
      <point x="418" y="434"/>
      <point x="418" y="416"/>
      <point x="416" y="412" type="qcurve"/>
      <point x="409" y="412"/>
      <point x="375" y="407"/>
      <point x="367" y="396" type="qcurve"/>
      <point x="363" y="390"/>
      <point x="342" y="357"/>
      <point x="315" y="313"/>
      <point x="285" y="263"/>
      <point x="260" y="221"/>
      <point x="244" y="190"/>
      <point x="244" y="187" type="qcurve"/>
      <point x="243" y="96" type="line"/>
      <point x="243" y="74"/>
      <point x="244" y="44"/>
      <point x="248" y="34" type="qcurve" name="hr05"/>
      <point x="249" y="31"/>
      <point x="260" y="26"/>
      <point x="274" y="23"/>
      <point x="287" y="22"/>
      <point x="290" y="22" type="qcurve" name="hr06"/>
      <point x="293" y="18"/>
      <point x="292" y="0"/>
      <point x="290" y="-3" type="qcurve" name="hr07"/>
      <point x="271" y="-1"/>
      <point x="217" y="2"/>
      <point x="196" y="2" type="qcurve" name="hr08"/>
      <point x="175" y="2"/>
      <point x="123" y="-1"/>
      <point x="103" y="-3" type="qcurve"/>
      <point x="101" y="0"/>
      <point x="101" y="18"/>
      <point x="103" y="22" type="qcurve"/>
      <point x="106" y="22"/>
      <point x="119" y="23"/>
      <point x="133" y="26"/>
      <point x="144" y="31"/>
      <point x="145" y="34" type="qcurve"/>
      <point x="149" y="44"/>
      <point x="150" y="74"/>
      <point x="150" y="96" type="qcurve"/>
    </contour>
  </outline>
</glyph>
<glyph name="Z" format="1">
  <advance width="419"/>
  <unicode hex="005A"/>
  <outline>
    <contour>
      <point x="367" y="1" type="qcurve"/>
      <point x="362" y="1"/>
      <point x="327" y="1"/>
      <point x="278" y="0"/>
      <point x="218" y="0"/>
      <point x="188" y="0" type="qcurve"/>
      <point x="30" y="0" type="line"/>
      <point x="27" y="2"/>
      <point x="18" y="15"/>
      <point x="18" y="22" type="qcurve"/>
      <point x="18" y="26"/>
      <point x="20" y="28" type="qcurve"/>
      <point x="272" y="403" type="line" name="hr01"/>
      <point x="151" y="403" type="line"/>
      <point x="125" y="403"/>
      <point x="93" y="386"/>
      <point x="73" y="360"/>
      <point x="61" y="328"/>
      <point x="55" y="313" type="qcurve"/>
      <point x="55" y="309"/>
      <point x="47" y="309" type="qcurve"/>
      <point x="42" y="309"/>
      <point x="30" y="310"/>
      <point x="28" y="312" type="qcurve"/>
      <point x="33" y="341"/>
      <point x="46" y="405"/>
      <point x="51" y="437" type="qcurve"/>
      <point x="55" y="436"/>
      <point x="87" y="434"/>
      <point x="123" y="433"/>
      <point x="155" y="433"/>
      <point x="158" y="433" type="qcurve"/>
      <point x="230" y="433" type="line"/>
      <point x="272" y="433"/>
      <point x="341" y="437"/>
      <point x="383" y="440" type="qcurve"/>
      <point x="385" y="439"/>
      <point x="390" y="423"/>
      <point x="390" y="418" type="qcurve"/>
      <point x="390" y="417"/>
      <point x="367" y="382"/>
      <point x="331" y="327"/>
      <point x="285" y="258"/>
      <point x="261" y="222" type="qcurve"/>
      <point x="205" y="138"/>
      <point x="133" y="31" type="qcurve"/>
      <point x="276" y="31" type="line"/>
      <point x="314" y="31"/>
      <point x="339" y="54" type="qcurve"/>
      <point x="349" y="65"/>
      <point x="365" y="89"/>
      <point x="374" y="112" type="qcurve" name="hr02"/>
      <point x="374" y="116"/>
      <point x="383" y="116" type="qcurve" name="hr03"/>
      <point x="388" y="116"/>
      <point x="401" y="114"/>
      <point x="403" y="112" type="qcurve"/>
      <point x="399" y="99"/>
      <point x="388" y="69"/>
      <point x="378" y="39"/>
      <point x="369" y="11"/>
    </contour>
  </outline>
</glyph>
<glyph name="bracketleft" format="1">
  <advance width="220"/>
  <unicode hex="005B"/>
  <outline>
    <contour>
      <point x="62" y="508" type="qcurve"/>
      <point x="113" y="508"/>
      <point x="180" y="515"/>
      <point x="197" y="519" type="qcurve"/>
      <point x="201" y="519"/>
      <point x="201" y="513" type="qcurve"/>
      <point x="201" y="506"/>
      <point x="196" y="496"/>
      <point x="195" y="496" type="qcurve"/>
      <point x="180" y="488"/>
      <point x="134" y="481"/>
      <point x="120" y="478" type="qcurve"/>
      <point x="120" y="-50" type="line" name="hr01"/>
      <point x="134" y="-53"/>
      <point x="180" y="-60"/>
      <point x="195" y="-68" type="qcurve"/>
      <point x="196" y="-69"/>
      <point x="201" y="-79"/>
      <point x="201" y="-85" type="qcurve" name="hr02"/>
      <point x="201" y="-91"/>
      <point x="197" y="-91" type="qcurve"/>
      <point x="180" y="-87"/>
      <point x="113" y="-81"/>
      <point x="62" y="-81" type="qcurve"/>
      <point x="55" y="-80"/>
      <point x="49" y="-71"/>
      <point x="49" y="-65" type="qcurve" name="hr03"/>
      <point x="49" y="493" type="line"/>
      <point x="49" y="498"/>
      <point x="55" y="508"/>
    </contour>
  </outline>
</glyph>
<glyph name="backslash" format="1">
  <advance width="293"/>
  <unicode hex="005C"/>
  <outline>
    <contour>
      <point x="55" y="492" type="qcurve" name="hr00"/>
      <point x="111" y="351"/>
      <point x="156" y="239" type="qcurve"/>
      <point x="175" y="191"/>
      <point x="211" y="100"/>
      <point x="239" y="28"/>
      <point x="257" y="-16"/>
      <point x="257" y="-17" type="qcurve"/>
      <point x="257" y="-19"/>
      <point x="246" y="-24"/>
      <point x="239" y="-24" type="qcurve"/>
      <point x="235" y="-24"/>
      <point x="222" y="-19"/>
      <point x="219" y="-12" type="qcurve"/>
      <point x="18" y="498" type="line"/>
      <point x="20" y="502"/>
      <point x="30" y="502" type="qcurve"/>
      <point x="42" y="502"/>
      <point x="53" y="496"/>
    </contour>
  </outline>
</glyph>
<glyph name="bracketright" format="1">
  <advance width="227"/>
  <unicode hex="005D"/>
  <outline>
    <contour>
      <point x="140" y="508" type="qcurve"/>
      <point x="146" y="508"/>
      <point x="152" y="498"/>
      <point x="152" y="493" type="qcurve"/>
      <point x="152" y="-65" type="line"/>
      <point x="152" y="-71"/>
      <point x="146" y="-80"/>
      <point x="140" y="-81" type="qcurve"/>
      <point x="89" y="-81"/>
      <point x="22" y="-87"/>
      <point x="5" y="-91" type="qcurve" name="hr01"/>
      <point x="1" y="-91"/>
      <point x="1" y="-85" type="qcurve"/>
      <point x="1" y="-79"/>
      <point x="6" y="-69"/>
      <point x="7" y="-68" type="qcurve"/>
      <point x="22" y="-60"/>
      <point x="68" y="-53"/>
      <point x="82" y="-50" type="qcurve" name="hr02"/>
      <point x="82" y="478" type="line"/>
      <point x="68" y="481"/>
      <point x="22" y="488"/>
      <point x="7" y="496" type="qcurve"/>
      <point x="6" y="496"/>
      <point x="1" y="506"/>
      <point x="1" y="513" type="qcurve"/>
      <point x="1" y="519"/>
      <point x="5" y="519" type="qcurve"/>
      <point x="22" y="515"/>
      <point x="89" y="508"/>
    </contour>
  </outline>
</glyph>
<glyph name="asciicircum" format="1">
  <advance width="247"/>
  <unicode hex="005E"/>
  <outline>
    <contour>
      <point x="123" y="442" type="qcurve" name="hr00"/>
      <point x="131" y="442"/>
      <point x="136" y="432" type="qcurve"/>
      <point x="149" y="410"/>
      <point x="168" y="376"/>
      <point x="186" y="343"/>
      <point x="206" y="309"/>
      <point x="220" y="288" type="qcurve"/>
      <point x="220" y="283"/>
      <point x="212" y="277"/>
      <point x="207" y="277" type="qcurve"/>
      <point x="193" y="290"/>
      <point x="163" y="321"/>
      <point x="151" y="335" type="qcurve"/>
      <point x="137" y="351"/>
      <point x="123" y="367" type="qcurve"/>
      <point x="109" y="351"/>
      <point x="95" y="335" type="qcurve"/>
      <point x="83" y="321"/>
      <point x="52" y="290"/>
      <point x="38" y="277" type="qcurve"/>
      <point x="34" y="277"/>
      <point x="25" y="283"/>
      <point x="25" y="288" type="qcurve"/>
      <point x="38" y="309"/>
      <point x="59" y="343"/>
      <point x="78" y="376"/>
      <point x="98" y="410"/>
      <point x="110" y="432" type="qcurve"/>
      <point x="117" y="442"/>
    </contour>
  </outline>
</glyph>
<glyph name="underscore" format="1">
  <advance width="321"/>
  <unicode hex="005F"/>
  <outline>
    <contour>
      <point x="5" y="-22" type="qcurve" name="hr00"/>
      <point x="6" y="-14"/>
      <point x="8" y="-7" type="qcurve"/>
      <point x="10" y="-1"/>
      <point x="13" y="9"/>
      <point x="15" y="9" type="qcurve"/>
      <point x="312" y="9" type="line"/>
      <point x="314" y="9"/>
      <point x="314" y="5" type="qcurve"/>
      <point x="314" y="-3"/>
      <point x="308" y="-24" type="qcurve"/>
      <point x="306" y="-28"/>
      <point x="305" y="-28" type="qcurve"/>
      <point x="304" y="-29"/>
      <point x="304" y="-28" type="qcurve"/>
      <point x="10" y="-28" type="line"/>
      <point x="8" y="-28"/>
      <point x="7" y="-27" type="qcurve"/>
      <point x="5" y="-25"/>
    </contour>
  </outline>
</glyph>
<glyph name="grave" format="1">
  <advance width="164"/>
  <unicode hex="0060"/>
  <outline>
    <contour>
      <point x="29" y="434" type="qcurve" name="hr00"/>
      <point x="29" y="439"/>
      <point x="42" y="453"/>
      <point x="59" y="453" type="qcurve"/>
      <point x="67" y="453"/>
      <point x="80" y="450"/>
      <point x="82" y="447" type="qcurve"/>
      <point x="91" y="436"/>
      <point x="112" y="407"/>
      <point x="131" y="378"/>
      <point x="143" y="357"/>
      <point x="143" y="356" type="qcurve"/>
      <point x="143" y="353"/>
      <point x="136" y="345"/>
      <point x="132" y="345" type="qcurve"/>
      <point x="129" y="345"/>
      <point x="97" y="366"/>
      <point x="59" y="394"/>
      <point x="29" y="425"/>
    </contour>
  </outline>
</glyph>
<glyph name="a" format="1">
  <advance width="303"/>
  <unicode hex="0061"/>
  <outline>
    <contour>
      <point x="148" y="41" type="qcurve"/>
      <point x="161" y="41"/>
      <point x="176" y="52"/>
      <point x="176" y="55" type="qcurve"/>
      <point x="176" y="147" type="line"/>
      <point x="165" y="142"/>
      <point x="142" y="133"/>
      <point x="132" y="126" type="qcurve"/>
      <point x="118" y="117"/>
      <point x="108" y="93"/>
      <point x="108" y="82" type="qcurve"/>
      <point x="109" y="60"/>
      <point x="135" y="41"/>
    </contour>
    <contour>
      <point x="162" y="296" type="qcurve" name="hr01"/>
      <point x="204" y="296"/>
      <point x="261" y="240"/>
      <point x="261" y="195" type="qcurve"/>
      <point x="261" y="72" type="line"/>
      <point x="261" y="58"/>
      <point x="271" y="45"/>
      <point x="277" y="45" type="qcurve"/>
      <point x="284" y="45"/>
      <point x="294" y="50"/>
      <point x="296" y="51" type="qcurve"/>
      <point x="298" y="50"/>
      <point x="301" y="43"/>
      <point x="301" y="40" type="qcurve"/>
      <point x="301" y="36"/>
      <point x="298" y="30" type="qcurve"/>
      <point x="295" y="27"/>
      <point x="280" y="16"/>
      <point x="262" y="4"/>
      <point x="240" y="-4"/>
      <point x="230" y="-4" type="qcurve"/>
      <point x="214" y="-4"/>
      <point x="185" y="17"/>
      <point x="180" y="29" type="qcurve" name="hr02"/>
      <point x="178" y="27"/>
      <point x="161" y="16"/>
      <point x="138" y="4"/>
      <point x="115" y="-5"/>
      <point x="106" y="-5" type="qcurve"/>
      <point x="87" y="-5"/>
      <point x="55" y="9"/>
      <point x="32" y="32"/>
      <point x="19" y="60"/>
      <point x="19" y="75" type="qcurve"/>
      <point x="19" y="95"/>
      <point x="40" y="124"/>
      <point x="53" y="128" type="qcurve"/>
      <point x="63" y="131"/>
      <point x="94" y="143"/>
      <point x="129" y="156"/>
      <point x="163" y="169"/>
      <point x="176" y="174" type="qcurve" name="hr03"/>
      <point x="176" y="188" type="line"/>
      <point x="176" y="205" type="line"/>
      <point x="176" y="230"/>
      <point x="154" y="271"/>
      <point x="137" y="271" type="qcurve"/>
      <point x="118" y="271"/>
      <point x="103" y="239"/>
      <point x="98" y="216" type="qcurve"/>
      <point x="96" y="205"/>
      <point x="78" y="187"/>
      <point x="61" y="187" type="qcurve"/>
      <point x="48" y="187"/>
      <point x="27" y="204"/>
      <point x="27" y="218" type="qcurve"/>
      <point x="27" y="225"/>
      <point x="32" y="238"/>
      <point x="36" y="246" type="qcurve"/>
      <point x="39" y="249"/>
      <point x="63" y="265"/>
      <point x="98" y="283"/>
      <point x="140" y="296"/>
    </contour>
  </outline>
</glyph>
<glyph name="b" format="1">
  <advance width="334"/>
  <unicode hex="0062"/>
  <outline>
    <contour>
      <point x="-1" y="412" type="qcurve" name="hr00"/>
      <point x="-3" y="412"/>
      <point x="-4" y="431"/>
      <point x="-1" y="433" type="qcurve"/>
      <point x="55" y="438"/>
      <point x="124" y="459"/>
      <point x="126" y="459" type="qcurve"/>
      <point x="129" y="458"/>
      <point x="135" y="450"/>
      <point x="136" y="447" type="qcurve"/>
      <point x="134" y="439"/>
      <point x="132" y="428" type="qcurve"/>
      <point x="129" y="410"/>
      <point x="129" y="381" type="qcurve"/>
      <point x="129" y="274" type="line"/>
      <point x="129" y="272"/>
      <point x="130" y="263"/>
      <point x="133" y="265" type="qcurve"/>
      <point x="137" y="268"/>
      <point x="152" y="278"/>
      <point x="170" y="289"/>
      <point x="190" y="296"/>
      <point x="198" y="296" type="qcurve"/>
      <point x="227" y="296"/>
      <point x="277" y="275"/>
      <point x="314" y="238"/>
      <point x="335" y="186"/>
      <point x="335" y="156" type="qcurve"/>
      <point x="335" y="116"/>
      <point x="304" y="56"/>
      <point x="254" y="15"/>
      <point x="190" y="-5"/>
      <point x="158" y="-5" type="qcurve"/>
      <point x="132" y="-5"/>
      <point x="88" y="10"/>
      <point x="75" y="10" type="qcurve"/>
      <point x="66" y="10"/>
      <point x="54" y="7"/>
      <point x="51" y="5" type="qcurve"/>
      <point x="49" y="5"/>
      <point x="35" y="18"/>
      <point x="35" y="22" type="qcurve"/>
      <point x="39" y="31"/>
      <point x="43" y="68"/>
      <point x="43" y="100" type="qcurve"/>
      <point x="43" y="368" type="line"/>
      <point x="43" y="376"/>
      <point x="42" y="392"/>
      <point x="38" y="400" type="qcurve"/>
      <point x="37" y="403"/>
      <point x="27" y="407"/>
      <point x="14" y="410"/>
      <point x="2" y="412"/>
    </contour>
    <contour>
      <point x="165" y="247" type="qcurve"/>
      <point x="151" y="247"/>
      <point x="136" y="238"/>
      <point x="131" y="233" type="qcurve"/>
      <point x="129" y="231"/>
      <point x="129" y="227" type="qcurve"/>
      <point x="129" y="65" type="line"/>
      <point x="129" y="48"/>
      <point x="152" y="24"/>
      <point x="172" y="24" type="qcurve"/>
      <point x="188" y="24"/>
      <point x="213" y="43"/>
      <point x="231" y="74"/>
      <point x="240" y="111"/>
      <point x="240" y="129" type="qcurve"/>
      <point x="240" y="197"/>
      <point x="196" y="247"/>
    </contour>
  </outline>
</glyph>
<glyph name="c" format="1">
  <advance width="281"/>
  <unicode hex="0063"/>
  <outline>
    <contour>
      <point x="19" y="132" type="qcurve"/>
      <point x="19" y="162"/>
      <point x="47" y="221"/>
      <point x="95" y="268"/>
      <point x="157" y="296"/>
      <point x="191" y="296" type="qcurve"/>
      <point x="219" y="296"/>
      <point x="253" y="287"/>
      <point x="258" y="284" type="qcurve"/>
      <point x="263" y="279"/>
      <point x="271" y="265"/>
      <point x="271" y="252" type="qcurve"/>
      <point x="271" y="238"/>
      <point x="251" y="211"/>
      <point x="233" y="211" type="qcurve"/>
      <point x="219" y="211"/>
      <point x="201" y="232"/>
      <point x="193" y="241" type="qcurve"/>
      <point x="175" y="261"/>
      <point x="148" y="261" type="qcurve"/>
      <point x="137" y="261"/>
      <point x="120" y="244"/>
      <point x="108" y="218"/>
      <point x="102" y="185"/>
      <point x="102" y="170" type="qcurve"/>
      <point x="102" y="135"/>
      <point x="120" y="89"/>
      <point x="148" y="61"/>
      <point x="181" y="49"/>
      <point x="197" y="49" type="qcurve"/>
      <point x="226" y="49"/>
      <point x="260" y="71"/>
      <point x="271" y="82" type="qcurve" name="hr01"/>
      <point x="275" y="81"/>
      <point x="279" y="74"/>
      <point x="279" y="71" type="qcurve"/>
      <point x="279" y="67"/>
      <point x="279" y="60"/>
      <point x="277" y="58" type="qcurve"/>
      <point x="272" y="51"/>
      <point x="252" y="30"/>
      <point x="221" y="9"/>
      <point x="181" y="-6"/>
      <point x="158" y="-6" type="qcurve"/>
      <point x="130" y="-6"/>
      <point x="80" y="13"/>
      <point x="42" y="49"/>
      <point x="19" y="100"/>
    </contour>
  </outline>
</glyph>
<glyph name="d" format="1">
  <advance width="330"/>
  <unicode hex="0064"/>
  <outline>
    <contour>
      <point x="193" y="294" type="qcurve" name="hr02"/>
      <point x="214" y="294"/>
      <point x="219" y="293" type="qcurve"/>
      <point x="221" y="293"/>
      <point x="222" y="304"/>
      <point x="222" y="308" type="qcurve"/>
      <point x="222" y="368" type="line"/>
      <point x="222" y="378"/>
      <point x="221" y="392"/>
      <point x="218" y="400" type="qcurve"/>
      <point x="215" y="406"/>
      <point x="184" y="412"/>
      <point x="178" y="412" type="qcurve"/>
      <point x="176" y="412"/>
      <point x="176" y="431"/>
      <point x="178" y="433" type="qcurve"/>
      <point x="234" y="438"/>
      <point x="304" y="459"/>
      <point x="306" y="459" type="qcurve"/>
      <point x="309" y="458"/>
      <point x="315" y="450"/>
      <point x="315" y="447" type="qcurve"/>
      <point x="313" y="439"/>
      <point x="311" y="428" type="qcurve"/>
      <point x="308" y="410"/>
      <point x="308" y="381" type="qcurve"/>
      <point x="308" y="71" type="line"/>
      <point x="308" y="63"/>
      <point x="309" y="51"/>
      <point x="314" y="46" type="qcurve"/>
      <point x="319" y="41"/>
      <point x="339" y="40"/>
      <point x="344" y="40" type="qcurve" name="hr01"/>
      <point x="346" y="36"/>
      <point x="346" y="31" type="qcurve"/>
      <point x="346" y="23"/>
      <point x="342" y="18" type="qcurve"/>
      <point x="327" y="17"/>
      <point x="291" y="9"/>
      <point x="257" y="1"/>
      <point x="231" y="-5"/>
      <point x="228" y="-5" type="qcurve"/>
      <point x="226" y="-5"/>
      <point x="222" y="3"/>
      <point x="222" y="11" type="qcurve"/>
      <point x="222" y="22" type="line"/>
      <point x="222" y="26"/>
      <point x="220" y="25" type="qcurve"/>
      <point x="216" y="22"/>
      <point x="200" y="12"/>
      <point x="178" y="2"/>
      <point x="152" y="-5"/>
      <point x="139" y="-5" type="qcurve"/>
      <point x="115" y="-5"/>
      <point x="72" y="16"/>
      <point x="39" y="53"/>
      <point x="20" y="103"/>
      <point x="20" y="132" type="qcurve"/>
      <point x="20" y="174"/>
      <point x="57" y="235"/>
      <point x="111" y="275"/>
      <point x="170" y="294"/>
    </contour>
    <contour>
      <point x="180" y="37" type="qcurve"/>
      <point x="194" y="37"/>
      <point x="222" y="55"/>
      <point x="222" y="61" type="qcurve"/>
      <point x="222" y="231" type="line"/>
      <point x="222" y="240"/>
      <point x="192" y="261"/>
      <point x="171" y="261" type="qcurve"/>
      <point x="155" y="261"/>
      <point x="133" y="244"/>
      <point x="120" y="216"/>
      <point x="114" y="180"/>
      <point x="114" y="160" type="qcurve"/>
      <point x="114" y="106"/>
      <point x="149" y="37"/>
    </contour>
  </outline>
</glyph>
<glyph name="e" format="1">
  <advance width="287"/>
  <unicode hex="0065"/>
  <outline>
    <contour>
      <point x="106" y="186" type="qcurve"/>
      <point x="108" y="186"/>
      <point x="131" y="187"/>
      <point x="159" y="188"/>
      <point x="185" y="190"/>
      <point x="191" y="191" type="qcurve"/>
      <point x="197" y="192"/>
      <point x="200" y="199"/>
      <point x="200" y="202" type="qcurve"/>
      <point x="200" y="213"/>
      <point x="196" y="237"/>
      <point x="186" y="256"/>
      <point x="171" y="268"/>
      <point x="160" y="268" type="qcurve"/>
      <point x="145" y="268"/>
      <point x="125" y="249"/>
      <point x="112" y="222"/>
      <point x="106" y="195"/>
    </contour>
    <contour>
      <point x="106" y="160" type="qcurve"/>
      <point x="106" y="125"/>
      <point x="126" y="82"/>
      <point x="155" y="58"/>
      <point x="187" y="49"/>
      <point x="198" y="49" type="qcurve"/>
      <point x="227" y="49"/>
      <point x="261" y="71"/>
      <point x="272" y="82" type="qcurve"/>
      <point x="276" y="81"/>
      <point x="280" y="74"/>
      <point x="280" y="71" type="qcurve"/>
      <point x="280" y="62"/>
      <point x="278" y="58" type="qcurve"/>
      <point x="273" y="51"/>
      <point x="253" y="30"/>
      <point x="222" y="9"/>
      <point x="182" y="-6"/>
      <point x="158" y="-6" type="qcurve"/>
      <point x="130" y="-6"/>
      <point x="80" y="13"/>
      <point x="42" y="49"/>
      <point x="20" y="100"/>
      <point x="20" y="132" type="qcurve"/>
      <point x="20" y="163"/>
      <point x="44" y="222"/>
      <point x="85" y="267"/>
      <point x="137" y="295"/>
      <point x="166" y="295" type="qcurve"/>
      <point x="199" y="295"/>
      <point x="243" y="275"/>
      <point x="270" y="245"/>
      <point x="282" y="210"/>
      <point x="282" y="195" type="qcurve" name="hr01"/>
      <point x="282" y="184"/>
      <point x="272" y="168"/>
      <point x="264" y="168" type="qcurve"/>
      <point x="230" y="165"/>
      <point x="142" y="161"/>
    </contour>
  </outline>
</glyph>
<glyph name="f" format="1">
  <advance width="206"/>
  <unicode hex="0066"/>
  <outline>
    <contour>
      <point x="201" y="461" type="qcurve"/>
      <point x="217" y="461"/>
      <point x="236" y="456"/>
      <point x="243" y="454" type="qcurve"/>
      <point x="251" y="449"/>
      <point x="269" y="436"/>
      <point x="269" y="424" type="qcurve"/>
      <point x="269" y="407"/>
      <point x="252" y="378"/>
      <point x="235" y="378" type="qcurve"/>
      <point x="220" y="378"/>
      <point x="201" y="395"/>
      <point x="191" y="403" type="qcurve"/>
      <point x="179" y="413"/>
      <point x="165" y="413" type="qcurve"/>
      <point x="157" y="413"/>
      <point x="145" y="382"/>
      <point x="145" y="359" type="qcurve"/>
      <point x="145" y="336"/>
      <point x="147" y="298"/>
      <point x="148" y="282" type="qcurve"/>
      <point x="225" y="282" type="line"/>
      <point x="227" y="282"/>
      <point x="229" y="276"/>
      <point x="229" y="274" type="qcurve"/>
      <point x="229" y="269"/>
      <point x="219" y="255"/>
      <point x="214" y="251" type="qcurve"/>
      <point x="150" y="251" type="line"/>
      <point x="150" y="96" type="line"/>
      <point x="150" y="74"/>
      <point x="151" y="44"/>
      <point x="155" y="34" type="qcurve"/>
      <point x="156" y="31"/>
      <point x="167" y="26"/>
      <point x="181" y="23"/>
      <point x="194" y="22"/>
      <point x="197" y="22" type="qcurve"/>
      <point x="200" y="18"/>
      <point x="199" y="0"/>
      <point x="197" y="-3" type="qcurve"/>
      <point x="178" y="-1"/>
      <point x="128" y="2"/>
      <point x="107" y="2" type="qcurve"/>
      <point x="86" y="2"/>
      <point x="36" y="-1"/>
      <point x="16" y="-3" type="qcurve"/>
      <point x="14" y="0"/>
      <point x="14" y="18"/>
      <point x="16" y="22" type="qcurve"/>
      <point x="19" y="22"/>
      <point x="33" y="23"/>
      <point x="46" y="26"/>
      <point x="57" y="31"/>
      <point x="59" y="34" type="qcurve"/>
      <point x="63" y="44"/>
      <point x="64" y="74"/>
      <point x="64" y="96" type="qcurve"/>
      <point x="64" y="251" type="line"/>
      <point x="17" y="251" type="line"/>
      <point x="14" y="253"/>
      <point x="14" y="260" type="qcurve"/>
      <point x="22" y="272"/>
      <point x="35" y="282" type="qcurve" name="hr01"/>
      <point x="64" y="282" type="line"/>
      <point x="64" y="292" type="line"/>
      <point x="64" y="326"/>
      <point x="93" y="387"/>
      <point x="135" y="434"/>
      <point x="182" y="461"/>
    </contour>
  </outline>
</glyph>
<glyph name="g" format="1">
  <advance width="315"/>
  <unicode hex="0067"/>
  <outline>
    <contour>
      <point x="251" y="244" type="qcurve" name="hr03"/>
      <point x="265" y="223"/>
      <point x="265" y="197" type="qcurve"/>
      <point x="265" y="177"/>
      <point x="247" y="141"/>
      <point x="214" y="114"/>
      <point x="170" y="98"/>
      <point x="145" y="98" type="qcurve"/>
      <point x="126" y="98"/>
      <point x="111" y="101" type="qcurve"/>
      <point x="106" y="96"/>
      <point x="95" y="86"/>
      <point x="95" y="81" type="qcurve"/>
      <point x="95" y="73"/>
      <point x="115" y="64"/>
      <point x="127" y="64" type="qcurve"/>
      <point x="146" y="64"/>
      <point x="197" y="65"/>
      <point x="214" y="63" type="qcurve" name="hr01"/>
      <point x="237" y="62"/>
      <point x="270" y="45"/>
      <point x="292" y="23"/>
      <point x="302" y="-1"/>
      <point x="302" y="-9" type="qcurve"/>
      <point x="302" y="-39"/>
      <point x="272" y="-89"/>
      <point x="222" y="-124"/>
      <point x="158" y="-144"/>
      <point x="125" y="-144" type="qcurve"/>
      <point x="76" y="-144"/>
      <point x="15" y="-102"/>
      <point x="15" y="-68" type="qcurve"/>
      <point x="15" y="-48"/>
      <point x="52" y="-13"/>
      <point x="71" y="-4" type="qcurve"/>
      <point x="54" y="1"/>
      <point x="31" y="40"/>
      <point x="31" y="61" type="qcurve"/>
      <point x="31" y="70"/>
      <point x="67" y="98"/>
      <point x="86" y="109" type="qcurve"/>
      <point x="57" y="120"/>
      <point x="24" y="165"/>
      <point x="24" y="194" type="qcurve"/>
      <point x="24" y="215"/>
      <point x="43" y="250"/>
      <point x="75" y="277"/>
      <point x="119" y="292"/>
      <point x="144" y="292" type="qcurve"/>
      <point x="167" y="292"/>
      <point x="200" y="285"/>
      <point x="214" y="276" type="qcurve"/>
      <point x="216" y="274"/>
      <point x="218" y="274" type="qcurve"/>
      <point x="301" y="282" type="line"/>
      <point x="303" y="281"/>
      <point x="308" y="278"/>
      <point x="308" y="275" type="qcurve"/>
      <point x="308" y="271"/>
      <point x="297" y="245"/>
      <point x="292" y="242" type="qcurve"/>
      <point x="281" y="243"/>
      <point x="268" y="244"/>
      <point x="255" y="246" type="qcurve"/>
      <point x="251" y="246"/>
    </contour>
    <contour>
      <point x="98" y="-9" type="line"/>
      <point x="94" y="-14"/>
      <point x="87" y="-27"/>
      <point x="87" y="-38" type="qcurve" name="hr02"/>
      <point x="87" y="-71"/>
      <point x="131" y="-107"/>
      <point x="166" y="-107" type="qcurve"/>
      <point x="190" y="-107"/>
      <point x="220" y="-96"/>
      <point x="238" y="-80"/>
      <point x="244" y="-60"/>
      <point x="244" y="-52" type="qcurve"/>
      <point x="244" y="-31"/>
      <point x="202" y="-9"/>
      <point x="170" y="-9" type="qcurve"/>
    </contour>
    <contour>
      <point x="141" y="268" type="qcurve"/>
      <point x="128" y="268"/>
      <point x="113" y="256"/>
      <point x="106" y="237"/>
      <point x="104" y="214"/>
      <point x="104" y="203" type="qcurve"/>
      <point x="104" y="189"/>
      <point x="109" y="160"/>
      <point x="120" y="137"/>
      <point x="138" y="122"/>
      <point x="151" y="122" type="qcurve"/>
      <point x="164" y="122"/>
      <point x="178" y="134"/>
      <point x="184" y="154"/>
      <point x="185" y="177"/>
      <point x="185" y="188" type="qcurve"/>
      <point x="185" y="201"/>
      <point x="181" y="230"/>
      <point x="171" y="253"/>
      <point x="154" y="268"/>
    </contour>
  </outline>
</glyph>
<glyph name="h" format="1">
  <advance width="381"/>
  <unicode hex="0068"/>
  <outline>
    <contour>
      <point x="140" y="459" type="qcurve" name="hr00"/>
      <point x="143" y="458"/>
      <point x="149" y="450"/>
      <point x="150" y="447" type="qcurve"/>
      <point x="148" y="435"/>
      <point x="146" y="424" type="qcurve"/>
      <point x="144" y="414"/>
      <point x="143" y="390"/>
      <point x="143" y="380" type="qcurve"/>
      <point x="143" y="246" type="line"/>
      <point x="143" y="242" type="line"/>
      <point x="145" y="242"/>
      <point x="148" y="245" type="qcurve"/>
      <point x="155" y="253"/>
      <point x="177" y="270"/>
      <point x="203" y="285"/>
      <point x="230" y="294"/>
      <point x="241" y="294" type="qcurve"/>
      <point x="269" y="294"/>
      <point x="304" y="275"/>
      <point x="324" y="236"/>
      <point x="331" y="178"/>
      <point x="331" y="139" type="qcurve"/>
      <point x="331" y="96" type="line"/>
      <point x="331" y="74"/>
      <point x="332" y="44"/>
      <point x="336" y="34" type="qcurve"/>
      <point x="337" y="31"/>
      <point x="348" y="26"/>
      <point x="362" y="23"/>
      <point x="375" y="22"/>
      <point x="378" y="22" type="qcurve"/>
      <point x="380" y="18"/>
      <point x="380" y="0"/>
      <point x="378" y="-3" type="qcurve"/>
      <point x="358" y="-1"/>
      <point x="308" y="2"/>
      <point x="288" y="2" type="qcurve"/>
      <point x="267" y="2"/>
      <point x="225" y="-1"/>
      <point x="205" y="-3" type="qcurve"/>
      <point x="203" y="0"/>
      <point x="203" y="18"/>
      <point x="205" y="22" type="qcurve"/>
      <point x="212" y="22"/>
      <point x="237" y="27"/>
      <point x="240" y="34" type="qcurve"/>
      <point x="244" y="44"/>
      <point x="245" y="74"/>
      <point x="245" y="96" type="qcurve"/>
      <point x="245" y="148" type="line"/>
      <point x="245" y="166"/>
      <point x="241" y="199"/>
      <point x="231" y="225"/>
      <point x="214" y="241"/>
      <point x="201" y="241" type="qcurve"/>
      <point x="191" y="241"/>
      <point x="170" y="233"/>
      <point x="154" y="222"/>
      <point x="143" y="209"/>
      <point x="143" y="204" type="qcurve"/>
      <point x="143" y="96" type="line"/>
      <point x="143" y="77"/>
      <point x="144" y="44"/>
      <point x="148" y="34" type="qcurve"/>
      <point x="149" y="31"/>
      <point x="159" y="26"/>
      <point x="171" y="23"/>
      <point x="182" y="22"/>
      <point x="185" y="22" type="qcurve"/>
      <point x="188" y="18"/>
      <point x="187" y="0"/>
      <point x="185" y="-3" type="qcurve"/>
      <point x="166" y="-1"/>
      <point x="120" y="2"/>
      <point x="100" y="2" type="qcurve"/>
      <point x="79" y="2"/>
      <point x="29" y="-1"/>
      <point x="9" y="-3" type="qcurve"/>
      <point x="7" y="0"/>
      <point x="7" y="18"/>
      <point x="9" y="22" type="qcurve"/>
      <point x="12" y="22"/>
      <point x="25" y="23"/>
      <point x="39" y="26"/>
      <point x="50" y="31"/>
      <point x="51" y="34" type="qcurve"/>
      <point x="56" y="44"/>
      <point x="57" y="74"/>
      <point x="57" y="96" type="qcurve"/>
      <point x="57" y="368" type="line"/>
      <point x="57" y="376"/>
      <point x="56" y="392"/>
      <point x="52" y="400" type="qcurve"/>
      <point x="51" y="403"/>
      <point x="40" y="407"/>
      <point x="28" y="410"/>
      <point x="16" y="412"/>
      <point x="13" y="412" type="qcurve"/>
      <point x="11" y="412"/>
      <point x="10" y="431"/>
      <point x="13" y="433" type="qcurve"/>
      <point x="40" y="436"/>
      <point x="86" y="444"/>
      <point x="120" y="453"/>
      <point x="139" y="459"/>
    </contour>
  </outline>
</glyph>
<glyph name="i" format="1">
  <advance width="185"/>
  <unicode hex="0069"/>
  <outline>
    <contour>
      <point x="152" y="96" type="line"/>
      <point x="152" y="77"/>
      <point x="153" y="44"/>
      <point x="157" y="34" type="qcurve"/>
      <point x="158" y="31"/>
      <point x="168" y="26"/>
      <point x="180" y="23"/>
      <point x="192" y="22"/>
      <point x="195" y="22" type="qcurve"/>
      <point x="197" y="18"/>
      <point x="197" y="0"/>
      <point x="195" y="-3" type="qcurve"/>
      <point x="175" y="-1"/>
      <point x="130" y="2"/>
      <point x="109" y="2" type="qcurve"/>
      <point x="88" y="2"/>
      <point x="38" y="-1"/>
      <point x="18" y="-3" type="qcurve"/>
      <point x="16" y="0"/>
      <point x="16" y="18"/>
      <point x="18" y="22" type="qcurve"/>
      <point x="21" y="22"/>
      <point x="35" y="23"/>
      <point x="48" y="26"/>
      <point x="59" y="31"/>
      <point x="61" y="34" type="qcurve"/>
      <point x="65" y="44"/>
      <point x="66" y="74"/>
      <point x="66" y="96" type="qcurve"/>
      <point x="66" y="172" type="line"/>
      <point x="66" y="174"/>
      <point x="66" y="189"/>
      <point x="64" y="206"/>
      <point x="62" y="222"/>
      <point x="60" y="226" type="qcurve"/>
      <point x="58" y="230"/>
      <point x="46" y="235"/>
      <point x="32" y="238"/>
      <point x="20" y="239"/>
      <point x="18" y="239" type="qcurve"/>
      <point x="16" y="240"/>
      <point x="17" y="259"/>
      <point x="19" y="259" type="qcurve" name="hr01"/>
      <point x="57" y="262"/>
      <point x="129" y="285"/>
      <point x="148" y="294" type="qcurve"/>
      <point x="151" y="293"/>
      <point x="159" y="285"/>
      <point x="159" y="283" type="qcurve"/>
      <point x="157" y="279"/>
      <point x="153" y="253"/>
      <point x="152" y="246" type="qcurve"/>
      <point x="152" y="204" type="line"/>
    </contour>
    <contour>
      <point x="55" y="407" type="qcurve"/>
      <point x="55" y="427"/>
      <point x="82" y="454"/>
      <point x="102" y="454" type="qcurve"/>
      <point x="122" y="454"/>
      <point x="150" y="427"/>
      <point x="150" y="407" type="qcurve"/>
      <point x="150" y="387"/>
      <point x="122" y="359"/>
      <point x="102" y="359" type="qcurve"/>
      <point x="82" y="359"/>
      <point x="55" y="387"/>
    </contour>
  </outline>
</glyph>
<glyph name="j" format="1">
  <advance width="168"/>
  <unicode hex="006A"/>
  <outline>
    <contour>
      <point x="56" y="172" type="line"/>
      <point x="56" y="174"/>
      <point x="56" y="189"/>
      <point x="54" y="206"/>
      <point x="52" y="222"/>
      <point x="50" y="226" type="qcurve"/>
      <point x="48" y="230"/>
      <point x="36" y="235"/>
      <point x="22" y="238"/>
      <point x="10" y="239"/>
      <point x="9" y="239" type="qcurve"/>
      <point x="7" y="240"/>
      <point x="7" y="259"/>
      <point x="9" y="259" type="qcurve"/>
      <point x="47" y="262"/>
      <point x="119" y="285"/>
      <point x="138" y="294" type="qcurve"/>
      <point x="142" y="293"/>
      <point x="149" y="285"/>
      <point x="149" y="283" type="qcurve" name="hr01"/>
      <point x="147" y="279"/>
      <point x="143" y="253"/>
      <point x="143" y="246" type="qcurve"/>
      <point x="142" y="235"/>
      <point x="142" y="207"/>
      <point x="142" y="204" type="qcurve"/>
      <point x="142" y="79" type="line"/>
      <point x="142" y="37"/>
      <point x="129" y="-41"/>
      <point x="110" y="-67" type="qcurve"/>
      <point x="98" y="-84"/>
      <point x="67" y="-112"/>
      <point x="35" y="-133"/>
      <point x="7" y="-144"/>
      <point x="-1" y="-144" type="qcurve"/>
      <point x="-5" y="-142"/>
      <point x="-11" y="-136"/>
      <point x="-11" y="-133" type="qcurve"/>
      <point x="-11" y="-129"/>
      <point x="-10" y="-128" type="qcurve"/>
      <point x="-9" y="-128"/>
      <point x="12" y="-113"/>
      <point x="36" y="-75"/>
      <point x="56" y="-9"/>
      <point x="56" y="42" type="qcurve"/>
    </contour>
    <contour>
      <point x="45" y="407" type="qcurve"/>
      <point x="45" y="427"/>
      <point x="74" y="455"/>
      <point x="94" y="455" type="qcurve"/>
      <point x="114" y="455"/>
      <point x="143" y="427"/>
      <point x="143" y="407" type="qcurve"/>
      <point x="143" y="386"/>
      <point x="114" y="358"/>
      <point x="94" y="358" type="qcurve"/>
      <point x="74" y="358"/>
      <point x="45" y="386"/>
    </contour>
  </outline>
</glyph>
<glyph name="k" format="1">
  <advance width="369"/>
  <unicode hex="006B"/>
  <outline>
    <contour>
      <point x="143" y="96" type="line" name="hr00"/>
      <point x="143" y="74"/>
      <point x="144" y="44"/>
      <point x="148" y="34" type="qcurve"/>
      <point x="149" y="31"/>
      <point x="160" y="26"/>
      <point x="173" y="23"/>
      <point x="187" y="22"/>
      <point x="190" y="22" type="qcurve"/>
      <point x="192" y="18"/>
      <point x="192" y="0"/>
      <point x="190" y="-3" type="qcurve"/>
      <point x="170" y="-1"/>
      <point x="120" y="2"/>
      <point x="100" y="2" type="qcurve"/>
      <point x="79" y="2"/>
      <point x="29" y="-1"/>
      <point x="9" y="-3" type="qcurve"/>
      <point x="7" y="0"/>
      <point x="7" y="18"/>
      <point x="9" y="22" type="qcurve"/>
      <point x="12" y="22"/>
      <point x="25" y="23"/>
      <point x="39" y="26"/>
      <point x="50" y="31"/>
      <point x="51" y="34" type="qcurve"/>
      <point x="56" y="44"/>
      <point x="57" y="74"/>
      <point x="57" y="96" type="qcurve"/>
      <point x="57" y="368" type="line"/>
      <point x="57" y="376"/>
      <point x="56" y="392"/>
      <point x="52" y="400" type="qcurve"/>
      <point x="51" y="403"/>
      <point x="40" y="407"/>
      <point x="28" y="410"/>
      <point x="16" y="412"/>
      <point x="13" y="412" type="qcurve"/>
      <point x="11" y="412"/>
      <point x="10" y="431"/>
      <point x="13" y="433" type="qcurve"/>
      <point x="40" y="436"/>
      <point x="86" y="444"/>
      <point x="120" y="453"/>
      <point x="139" y="459"/>
      <point x="140" y="459" type="qcurve"/>
      <point x="143" y="458"/>
      <point x="149" y="450"/>
      <point x="150" y="447" type="qcurve"/>
      <point x="148" y="435"/>
      <point x="146" y="424" type="qcurve"/>
      <point x="144" y="414"/>
      <point x="143" y="390"/>
      <point x="143" y="380" type="qcurve"/>
      <point x="142" y="156" type="line"/>
      <point x="158" y="162"/>
      <point x="191" y="189" type="qcurve"/>
      <point x="226" y="219"/>
      <point x="249" y="245"/>
      <point x="249" y="253" type="qcurve"/>
      <point x="249" y="256"/>
      <point x="239" y="261"/>
      <point x="226" y="265"/>
      <point x="211" y="267"/>
      <point x="207" y="267" type="qcurve"/>
      <point x="205" y="272"/>
      <point x="206" y="288"/>
      <point x="209" y="290" type="qcurve"/>
      <point x="225" y="289"/>
      <point x="241" y="288" type="qcurve"/>
      <point x="255" y="287"/>
      <point x="284" y="287"/>
      <point x="295" y="287" type="qcurve"/>
      <point x="313" y="287"/>
      <point x="346" y="289"/>
      <point x="368" y="290" type="qcurve"/>
      <point x="371" y="285"/>
      <point x="369" y="269"/>
      <point x="366" y="267" type="qcurve"/>
      <point x="351" y="265"/>
      <point x="314" y="256"/>
      <point x="301" y="247" type="qcurve"/>
      <point x="290" y="239"/>
      <point x="244" y="196"/>
      <point x="214" y="169" type="qcurve"/>
      <point x="232" y="148"/>
      <point x="255" y="122"/>
      <point x="274" y="101"/>
      <point x="294" y="80"/>
      <point x="308" y="65" type="qcurve"/>
      <point x="321" y="50"/>
      <point x="343" y="33"/>
      <point x="362" y="25"/>
      <point x="378" y="24"/>
      <point x="386" y="24" type="qcurve"/>
      <point x="389" y="18"/>
      <point x="387" y="5"/>
      <point x="386" y="4" type="qcurve"/>
      <point x="378" y="1"/>
      <point x="339" y="-4"/>
      <point x="319" y="-4" type="qcurve"/>
      <point x="290" y="-4"/>
      <point x="244" y="18"/>
      <point x="229" y="35" type="qcurve"/>
      <point x="215" y="49"/>
      <point x="202" y="64" type="qcurve"/>
      <point x="190" y="77"/>
      <point x="163" y="109"/>
      <point x="151" y="124" type="qcurve"/>
      <point x="149" y="126"/>
      <point x="148" y="128"/>
      <point x="146" y="130" type="qcurve"/>
      <point x="143" y="133" type="line"/>
    </contour>
  </outline>
</glyph>
<glyph name="l" format="1">
  <advance width="171"/>
  <unicode hex="006C"/>
  <outline>
    <contour>
      <point x="57" y="368" type="line" name="hr00"/>
      <point x="57" y="376"/>
      <point x="56" y="392"/>
      <point x="52" y="400" type="qcurve"/>
      <point x="51" y="403"/>
      <point x="40" y="407"/>
      <point x="28" y="410"/>
      <point x="16" y="412"/>
      <point x="13" y="412" type="qcurve"/>
      <point x="11" y="412"/>
      <point x="10" y="431"/>
      <point x="13" y="433" type="qcurve"/>
      <point x="40" y="436"/>
      <point x="86" y="444"/>
      <point x="120" y="453"/>
      <point x="139" y="459"/>
      <point x="140" y="459" type="qcurve"/>
      <point x="143" y="458"/>
      <point x="149" y="450"/>
      <point x="150" y="447" type="qcurve"/>
      <point x="148" y="435"/>
      <point x="146" y="424" type="qcurve"/>
      <point x="144" y="414"/>
      <point x="143" y="390"/>
      <point x="143" y="380" type="qcurve"/>
      <point x="143" y="96" type="line"/>
      <point x="143" y="74"/>
      <point x="144" y="44"/>
      <point x="148" y="34" type="qcurve"/>
      <point x="149" y="31"/>
      <point x="160" y="26"/>
      <point x="173" y="23"/>
      <point x="187" y="22"/>
      <point x="190" y="22" type="qcurve"/>
      <point x="192" y="18"/>
      <point x="192" y="0"/>
      <point x="190" y="-3" type="qcurve"/>
      <point x="170" y="-1"/>
      <point x="120" y="2"/>
      <point x="100" y="2" type="qcurve"/>
      <point x="79" y="2"/>
      <point x="29" y="-1"/>
      <point x="9" y="-3" type="qcurve"/>
      <point x="7" y="0"/>
      <point x="7" y="18"/>
      <point x="9" y="22" type="qcurve"/>
      <point x="12" y="22"/>
      <point x="25" y="23"/>
      <point x="39" y="26"/>
      <point x="50" y="31"/>
      <point x="51" y="34" type="qcurve"/>
      <point x="56" y="44"/>
      <point x="57" y="74"/>
      <point x="57" y="96" type="qcurve"/>
    </contour>
  </outline>
</glyph>
<glyph name="m" format="1">
  <advance width="561"/>
  <unicode hex="006D"/>
  <outline>
    <contour>
      <point x="331" y="238" type="qcurve"/>
      <point x="333" y="238"/>
      <point x="336" y="241" type="qcurve"/>
      <point x="343" y="249"/>
      <point x="368" y="267"/>
      <point x="398" y="283"/>
      <point x="428" y="294"/>
      <point x="440" y="294" type="qcurve"/>
      <point x="468" y="294"/>
      <point x="503" y="275"/>
      <point x="522" y="236"/>
      <point x="529" y="178"/>
      <point x="529" y="139" type="qcurve"/>
      <point x="529" y="96" type="line"/>
      <point x="529" y="74"/>
      <point x="530" y="44"/>
      <point x="535" y="34" type="qcurve"/>
      <point x="536" y="31"/>
      <point x="547" y="26"/>
      <point x="560" y="23"/>
      <point x="574" y="22"/>
      <point x="577" y="22" type="qcurve"/>
      <point x="579" y="18"/>
      <point x="579" y="0"/>
      <point x="577" y="-3" type="qcurve"/>
      <point x="557" y="-1"/>
      <point x="507" y="2"/>
      <point x="486" y="2" type="qcurve" name="hr01"/>
      <point x="466" y="2"/>
      <point x="424" y="-1"/>
      <point x="404" y="-3" type="qcurve"/>
      <point x="402" y="0"/>
      <point x="402" y="18"/>
      <point x="404" y="22" type="qcurve"/>
      <point x="410" y="22"/>
      <point x="436" y="27"/>
      <point x="438" y="34" type="qcurve"/>
      <point x="443" y="44"/>
      <point x="444" y="74"/>
      <point x="444" y="96" type="qcurve"/>
      <point x="444" y="148" type="line"/>
      <point x="444" y="166"/>
      <point x="440" y="199"/>
      <point x="429" y="225"/>
      <point x="412" y="241"/>
      <point x="399" y="241" type="qcurve"/>
      <point x="389" y="241"/>
      <point x="367" y="233"/>
      <point x="349" y="222"/>
      <point x="337" y="210"/>
      <point x="337" y="205" type="qcurve"/>
      <point x="337" y="201" type="line"/>
      <point x="340" y="172"/>
      <point x="340" y="139" type="qcurve"/>
      <point x="340" y="96" type="line"/>
      <point x="340" y="74"/>
      <point x="341" y="44"/>
      <point x="345" y="34" type="qcurve"/>
      <point x="346" y="31"/>
      <point x="357" y="26"/>
      <point x="370" y="23"/>
      <point x="383" y="22"/>
      <point x="386" y="22" type="qcurve"/>
      <point x="388" y="18"/>
      <point x="388" y="0"/>
      <point x="386" y="-3" type="qcurve"/>
      <point x="366" y="-1"/>
      <point x="318" y="2"/>
      <point x="297" y="2" type="qcurve"/>
      <point x="276" y="2"/>
      <point x="233" y="-1"/>
      <point x="213" y="-3" type="qcurve"/>
      <point x="211" y="0"/>
      <point x="211" y="18"/>
      <point x="213" y="22" type="qcurve"/>
      <point x="220" y="22"/>
      <point x="247" y="27"/>
      <point x="249" y="34" type="qcurve"/>
      <point x="253" y="44"/>
      <point x="254" y="74"/>
      <point x="254" y="96" type="qcurve"/>
      <point x="254" y="148" type="line"/>
      <point x="254" y="166"/>
      <point x="250" y="199"/>
      <point x="240" y="225"/>
      <point x="223" y="241"/>
      <point x="210" y="241" type="qcurve"/>
      <point x="200" y="241"/>
      <point x="179" y="233"/>
      <point x="163" y="222"/>
      <point x="152" y="209"/>
      <point x="152" y="204" type="qcurve"/>
      <point x="152" y="96" type="line"/>
      <point x="152" y="77"/>
      <point x="153" y="44"/>
      <point x="157" y="34" type="qcurve"/>
      <point x="158" y="31"/>
      <point x="168" y="26"/>
      <point x="180" y="23"/>
      <point x="192" y="22"/>
      <point x="195" y="22" type="qcurve"/>
      <point x="197" y="18"/>
      <point x="197" y="0"/>
      <point x="195" y="-3" type="qcurve"/>
      <point x="175" y="-1"/>
      <point x="130" y="2"/>
      <point x="109" y="2" type="qcurve"/>
      <point x="88" y="2"/>
      <point x="38" y="-1"/>
      <point x="18" y="-3" type="qcurve"/>
      <point x="16" y="0"/>
      <point x="16" y="18"/>
      <point x="18" y="22" type="qcurve"/>
      <point x="21" y="22"/>
      <point x="35" y="23"/>
      <point x="48" y="26"/>
      <point x="59" y="31"/>
      <point x="61" y="34" type="qcurve"/>
      <point x="65" y="44"/>
      <point x="66" y="74"/>
      <point x="66" y="96" type="qcurve"/>
      <point x="66" y="172" type="line"/>
      <point x="66" y="174"/>
      <point x="66" y="189"/>
      <point x="64" y="206"/>
      <point x="62" y="222"/>
      <point x="60" y="226" type="qcurve"/>
      <point x="58" y="230"/>
      <point x="46" y="235"/>
      <point x="32" y="238"/>
      <point x="20" y="239"/>
      <point x="18" y="239" type="qcurve"/>
      <point x="16" y="240"/>
      <point x="17" y="259"/>
      <point x="19" y="259" type="qcurve"/>
      <point x="57" y="262"/>
      <point x="129" y="285"/>
      <point x="148" y="294" type="qcurve"/>
      <point x="151" y="293"/>
      <point x="159" y="285"/>
      <point x="159" y="283" type="qcurve"/>
      <point x="158" y="281"/>
      <point x="156" y="270"/>
      <point x="155" y="263" type="qcurve"/>
      <point x="153" y="255"/>
      <point x="152" y="246" type="qcurve"/>
      <point x="152" y="242"/>
      <point x="153" y="242" type="qcurve"/>
      <point x="154" y="242"/>
      <point x="156" y="244"/>
      <point x="158" y="245" type="qcurve" name="hr02"/>
      <point x="165" y="253"/>
      <point x="187" y="270"/>
      <point x="212" y="285"/>
      <point x="239" y="294"/>
      <point x="250" y="294" type="qcurve"/>
      <point x="282" y="294"/>
      <point x="319" y="270"/>
    </contour>
  </outline>
</glyph>
<glyph name="n" format="1">
  <advance width="373"/>
  <unicode hex="006E"/>
  <outline>
    <contour>
      <point x="250" y="294" type="qcurve"/>
      <point x="278" y="294"/>
      <point x="313" y="275"/>
      <point x="333" y="236"/>
      <point x="340" y="178"/>
      <point x="340" y="139" type="qcurve"/>
      <point x="340" y="96" type="line"/>
      <point x="340" y="74"/>
      <point x="341" y="44"/>
      <point x="345" y="34" type="qcurve"/>
      <point x="346" y="31"/>
      <point x="357" y="26"/>
      <point x="371" y="23"/>
      <point x="384" y="22"/>
      <point x="387" y="22" type="qcurve"/>
      <point x="390" y="18"/>
      <point x="389" y="0"/>
      <point x="387" y="-3" type="qcurve"/>
      <point x="368" y="-1"/>
      <point x="318" y="2"/>
      <point x="297" y="2" type="qcurve"/>
      <point x="276" y="2"/>
      <point x="234" y="-1"/>
      <point x="214" y="-3" type="qcurve" name="hr01"/>
      <point x="212" y="0"/>
      <point x="212" y="18"/>
      <point x="214" y="22" type="qcurve"/>
      <point x="221" y="22"/>
      <point x="247" y="27"/>
      <point x="249" y="34" type="qcurve"/>
      <point x="253" y="44"/>
      <point x="254" y="74"/>
      <point x="254" y="96" type="qcurve"/>
      <point x="254" y="148" type="line"/>
      <point x="254" y="166"/>
      <point x="250" y="199"/>
      <point x="240" y="225"/>
      <point x="223" y="241"/>
      <point x="210" y="241" type="qcurve"/>
      <point x="200" y="241"/>
      <point x="179" y="233"/>
      <point x="163" y="222"/>
      <point x="152" y="209"/>
      <point x="152" y="204" type="qcurve"/>
      <point x="152" y="96" type="line"/>
      <point x="152" y="77"/>
      <point x="153" y="44"/>
      <point x="157" y="34" type="qcurve"/>
      <point x="158" y="31"/>
      <point x="168" y="26"/>
      <point x="180" y="23"/>
      <point x="192" y="22"/>
      <point x="195" y="22" type="qcurve"/>
      <point x="197" y="18"/>
      <point x="197" y="0"/>
      <point x="195" y="-3" type="qcurve"/>
      <point x="175" y="-1"/>
      <point x="130" y="2"/>
      <point x="109" y="2" type="qcurve"/>
      <point x="88" y="2"/>
      <point x="38" y="-1"/>
      <point x="18" y="-3" type="qcurve"/>
      <point x="16" y="0"/>
      <point x="16" y="18"/>
      <point x="18" y="22" type="qcurve"/>
      <point x="21" y="22"/>
      <point x="35" y="23"/>
      <point x="48" y="26"/>
      <point x="59" y="31"/>
      <point x="61" y="34" type="qcurve"/>
      <point x="65" y="44"/>
      <point x="66" y="74"/>
      <point x="66" y="96" type="qcurve"/>
      <point x="66" y="172" type="line"/>
      <point x="66" y="174"/>
      <point x="66" y="189"/>
      <point x="64" y="206"/>
      <point x="62" y="222"/>
      <point x="60" y="226" type="qcurve"/>
      <point x="58" y="230"/>
      <point x="46" y="235"/>
      <point x="32" y="238"/>
      <point x="20" y="239"/>
      <point x="18" y="239" type="qcurve"/>
      <point x="16" y="240"/>
      <point x="17" y="259"/>
      <point x="19" y="259" type="qcurve"/>
      <point x="57" y="262"/>
      <point x="129" y="285"/>
      <point x="148" y="294" type="qcurve"/>
      <point x="151" y="294"/>
      <point x="159" y="285"/>
      <point x="159" y="283" type="qcurve"/>
      <point x="158" y="281"/>
      <point x="157" y="270"/>
      <point x="155" y="263" type="qcurve"/>
      <point x="153" y="255"/>
      <point x="152" y="246" type="qcurve"/>
      <point x="152" y="242"/>
      <point x="153" y="242" type="qcurve"/>
      <point x="154" y="242"/>
      <point x="156" y="244"/>
      <point x="158" y="245" type="qcurve"/>
      <point x="165" y="253"/>
      <point x="187" y="270"/>
      <point x="212" y="285"/>
      <point x="239" y="294"/>
    </contour>
  </outline>
</glyph>
<glyph name="o" format="1">
  <advance width="330"/>
  <unicode hex="006F"/>
  <outline>
    <contour>
      <point x="166" y="268" type="qcurve" name="hr00"/>
      <point x="148" y="268"/>
      <point x="127" y="247"/>
      <point x="117" y="214"/>
      <point x="114" y="174"/>
      <point x="114" y="156" type="qcurve"/>
      <point x="114" y="134"/>
      <point x="121" y="87"/>
      <point x="138" y="48"/>
      <point x="163" y="23"/>
      <point x="181" y="23" type="qcurve"/>
      <point x="199" y="23"/>
      <point x="221" y="44"/>
      <point x="232" y="77"/>
      <point x="235" y="115"/>
      <point x="235" y="133" type="qcurve"/>
      <point x="235" y="155"/>
      <point x="227" y="203"/>
      <point x="210" y="242"/>
      <point x="184" y="268"/>
    </contour>
    <contour>
      <point x="174" y="295" type="qcurve"/>
      <point x="208" y="295"/>
      <point x="265" y="273"/>
      <point x="306" y="233"/>
      <point x="329" y="179"/>
      <point x="329" y="148" type="qcurve"/>
      <point x="329" y="117"/>
      <point x="305" y="61"/>
      <point x="264" y="19"/>
      <point x="208" y="-5"/>
      <point x="175" y="-5" type="qcurve"/>
      <point x="140" y="-5"/>
      <point x="83" y="18"/>
      <point x="43" y="58"/>
      <point x="20" y="112"/>
      <point x="20" y="143" type="qcurve"/>
      <point x="20" y="174"/>
      <point x="44" y="229"/>
      <point x="85" y="271"/>
      <point x="141" y="295"/>
    </contour>
  </outline>
</glyph>
<glyph name="p" format="1">
  <advance width="344"/>
  <unicode hex="0070"/>
  <outline>
    <contour>
      <point x="54" y="172" type="line"/>
      <point x="54" y="174"/>
      <point x="54" y="189"/>
      <point x="52" y="206"/>
      <point x="50" y="222"/>
      <point x="48" y="226" type="qcurve"/>
      <point x="46" y="230"/>
      <point x="34" y="235"/>
      <point x="20" y="238"/>
      <point x="8" y="239"/>
      <point x="7" y="239" type="qcurve"/>
      <point x="5" y="240"/>
      <point x="5" y="259"/>
      <point x="7" y="259" type="qcurve"/>
      <point x="45" y="262"/>
      <point x="117" y="285"/>
      <point x="136" y="294" type="qcurve"/>
      <point x="140" y="293"/>
      <point x="147" y="285"/>
      <point x="147" y="283" type="qcurve"/>
      <point x="146" y="280"/>
      <point x="141" y="269"/>
      <point x="141" y="261" type="qcurve"/>
      <point x="141" y="258"/>
      <point x="143" y="255"/>
      <point x="144" y="257" type="qcurve"/>
      <point x="159" y="273"/>
      <point x="197" y="296"/>
      <point x="213" y="296" type="qcurve" name="hr01"/>
      <point x="243" y="296"/>
      <point x="290" y="272"/>
      <point x="324" y="233"/>
      <point x="342" y="182"/>
      <point x="342" y="154" type="qcurve" name="hr02"/>
      <point x="342" y="116"/>
      <point x="312" y="57"/>
      <point x="265" y="16"/>
      <point x="207" y="-5"/>
      <point x="180" y="-5" type="qcurve" name="hr03"/>
      <point x="166" y="-5"/>
      <point x="144" y="1"/>
      <point x="142" y="1" type="qcurve"/>
      <point x="140" y="1"/>
      <point x="140" y="-10" type="qcurve"/>
      <point x="140" y="-46" type="line"/>
      <point x="140" y="-67"/>
      <point x="141" y="-97"/>
      <point x="145" y="-108" type="qcurve"/>
      <point x="146" y="-111"/>
      <point x="157" y="-115"/>
      <point x="171" y="-118"/>
      <point x="184" y="-119"/>
      <point x="187" y="-119" type="qcurve"/>
      <point x="190" y="-123"/>
      <point x="189" y="-141"/>
      <point x="187" y="-144" type="qcurve"/>
      <point x="168" y="-142"/>
      <point x="118" y="-139"/>
      <point x="97" y="-139" type="qcurve"/>
      <point x="76" y="-139"/>
      <point x="26" y="-142"/>
      <point x="7" y="-144" type="qcurve"/>
      <point x="5" y="-141"/>
      <point x="4" y="-123"/>
      <point x="7" y="-119" type="qcurve"/>
      <point x="10" y="-119"/>
      <point x="23" y="-118"/>
      <point x="37" y="-115"/>
      <point x="48" y="-111"/>
      <point x="49" y="-108" type="qcurve"/>
      <point x="53" y="-97"/>
      <point x="54" y="-67"/>
      <point x="54" y="-46" type="qcurve"/>
    </contour>
    <contour>
      <point x="140" y="63" type="line"/>
      <point x="140" y="43"/>
      <point x="168" y="24"/>
      <point x="185" y="24" type="qcurve"/>
      <point x="193" y="24"/>
      <point x="215" y="36"/>
      <point x="234" y="62"/>
      <point x="247" y="102"/>
      <point x="247" y="131" type="qcurve"/>
      <point x="247" y="182"/>
      <point x="217" y="247"/>
      <point x="176" y="247" type="qcurve"/>
      <point x="158" y="247"/>
      <point x="140" y="231"/>
      <point x="140" y="229" type="qcurve"/>
    </contour>
  </outline>
</glyph>
<glyph name="q" format="1">
  <advance width="330"/>
  <unicode hex="0071"/>
  <outline>
    <contour>
      <point x="197" y="294" type="qcurve"/>
      <point x="216" y="294"/>
      <point x="260" y="279"/>
      <point x="275" y="279" type="qcurve"/>
      <point x="285" y="279"/>
      <point x="295" y="282"/>
      <point x="298" y="284" type="qcurve"/>
      <point x="301" y="282"/>
      <point x="314" y="271"/>
      <point x="314" y="267" type="qcurve"/>
      <point x="312" y="261"/>
      <point x="306" y="227"/>
      <point x="306" y="192" type="qcurve"/>
      <point x="306" y="-46" type="line"/>
      <point x="306" y="-67"/>
      <point x="307" y="-97"/>
      <point x="312" y="-108" type="qcurve"/>
      <point x="313" y="-111"/>
      <point x="324" y="-115"/>
      <point x="337" y="-118"/>
      <point x="351" y="-119"/>
      <point x="354" y="-119" type="qcurve"/>
      <point x="356" y="-123"/>
      <point x="356" y="-141"/>
      <point x="354" y="-144" type="qcurve"/>
      <point x="334" y="-142"/>
      <point x="284" y="-139"/>
      <point x="263" y="-139" type="qcurve"/>
      <point x="243" y="-139"/>
      <point x="193" y="-142"/>
      <point x="173" y="-144" type="qcurve"/>
      <point x="171" y="-141"/>
      <point x="171" y="-123"/>
      <point x="173" y="-119" type="qcurve"/>
      <point x="176" y="-119"/>
      <point x="189" y="-118"/>
      <point x="203" y="-115"/>
      <point x="214" y="-111"/>
      <point x="215" y="-108" type="qcurve"/>
      <point x="219" y="-97"/>
      <point x="220" y="-67"/>
      <point x="220" y="-46" type="qcurve"/>
      <point x="220" y="11" type="line"/>
      <point x="220" y="14"/>
      <point x="219" y="22"/>
      <point x="216" y="20" type="qcurve" name="hr01"/>
      <point x="213" y="17"/>
      <point x="197" y="9"/>
      <point x="176" y="1"/>
      <point x="153" y="-5"/>
      <point x="141" y="-5" type="qcurve" name="hr02"/>
      <point x="116" y="-5"/>
      <point x="72" y="16"/>
      <point x="39" y="52"/>
      <point x="20" y="100"/>
      <point x="20" y="127" type="qcurve"/>
      <point x="20" y="166"/>
      <point x="52" y="227"/>
      <point x="102" y="271"/>
      <point x="165" y="294"/>
    </contour>
    <contour>
      <point x="172" y="260" type="qcurve"/>
      <point x="154" y="260"/>
      <point x="132" y="242"/>
      <point x="119" y="213"/>
      <point x="114" y="178"/>
      <point x="114" y="160" type="qcurve"/>
      <point x="114" y="140"/>
      <point x="121" y="96"/>
      <point x="136" y="60"/>
      <point x="162" y="37"/>
      <point x="181" y="37" type="qcurve"/>
      <point x="199" y="37"/>
      <point x="220" y="51"/>
      <point x="220" y="53" type="qcurve"/>
      <point x="220" y="227" type="line"/>
      <point x="220" y="230"/>
      <point x="215" y="241"/>
      <point x="203" y="252"/>
      <point x="185" y="260"/>
    </contour>
  </outline>
</glyph>
<glyph name="r" format="1">
  <advance width="294"/>
  <unicode hex="0072"/>
  <outline>
    <contour>
      <point x="148" y="294" type="qcurve"/>
      <point x="151" y="293"/>
      <point x="159" y="285"/>
      <point x="159" y="283" type="qcurve"/>
      <point x="158" y="281"/>
      <point x="156" y="267"/>
      <point x="154" y="250"/>
      <point x="152" y="234"/>
      <point x="152" y="231" type="qcurve"/>
      <point x="152" y="229"/>
      <point x="156" y="228"/>
      <point x="156" y="229" type="qcurve"/>
      <point x="162" y="239"/>
      <point x="178" y="263"/>
      <point x="198" y="282"/>
      <point x="223" y="295"/>
      <point x="239" y="295" type="qcurve"/>
      <point x="251" y="295"/>
      <point x="274" y="290"/>
      <point x="280" y="284" type="qcurve"/>
      <point x="282" y="281"/>
      <point x="288" y="262"/>
      <point x="288" y="251" type="qcurve"/>
      <point x="288" y="243"/>
      <point x="282" y="224"/>
      <point x="271" y="209"/>
      <point x="257" y="199"/>
      <point x="248" y="199" type="qcurve"/>
      <point x="239" y="199"/>
      <point x="226" y="211"/>
      <point x="220" y="216" type="qcurve"/>
      <point x="215" y="221"/>
      <point x="204" y="230"/>
      <point x="196" y="230" type="qcurve"/>
      <point x="186" y="230"/>
      <point x="170" y="217"/>
      <point x="158" y="199"/>
      <point x="152" y="181"/>
      <point x="152" y="176" type="qcurve"/>
      <point x="152" y="96" type="line"/>
      <point x="152" y="77"/>
      <point x="153" y="44"/>
      <point x="157" y="34" type="qcurve"/>
      <point x="158" y="31"/>
      <point x="168" y="26"/>
      <point x="180" y="23"/>
      <point x="192" y="22"/>
      <point x="195" y="22" type="qcurve"/>
      <point x="197" y="18"/>
      <point x="197" y="0"/>
      <point x="195" y="-3" type="qcurve"/>
      <point x="175" y="-1"/>
      <point x="130" y="2"/>
      <point x="109" y="2" type="qcurve"/>
      <point x="88" y="2"/>
      <point x="38" y="-1"/>
      <point x="18" y="-3" type="qcurve"/>
      <point x="16" y="0"/>
      <point x="16" y="18"/>
      <point x="18" y="22" type="qcurve" name="hr01"/>
      <point x="21" y="22"/>
      <point x="35" y="23"/>
      <point x="48" y="26"/>
      <point x="59" y="31"/>
      <point x="61" y="34" type="qcurve"/>
      <point x="65" y="44"/>
      <point x="66" y="74"/>
      <point x="66" y="96" type="qcurve"/>
      <point x="66" y="172" type="line"/>
      <point x="66" y="174"/>
      <point x="66" y="189"/>
      <point x="64" y="206"/>
      <point x="62" y="222"/>
      <point x="60" y="226" type="qcurve"/>
      <point x="58" y="230"/>
      <point x="46" y="235"/>
      <point x="32" y="238"/>
      <point x="20" y="239"/>
      <point x="18" y="239" type="qcurve"/>
      <point x="16" y="240"/>
      <point x="17" y="259"/>
      <point x="19" y="259" type="qcurve"/>
      <point x="57" y="262"/>
      <point x="129" y="285"/>
    </contour>
  </outline>
</glyph>
<glyph name="s" format="1">
  <advance width="244"/>
  <unicode hex="0073"/>
  <outline>
    <contour>
      <point x="147" y="296" type="qcurve" name="hr00"/>
      <point x="170" y="296"/>
      <point x="204" y="287"/>
      <point x="221" y="283" type="qcurve"/>
      <point x="223" y="275"/>
      <point x="228" y="250"/>
      <point x="232" y="226"/>
      <point x="235" y="206"/>
      <point x="235" y="202" type="qcurve"/>
      <point x="235" y="200"/>
      <point x="227" y="197"/>
      <point x="223" y="197" type="qcurve"/>
      <point x="217" y="197"/>
      <point x="211" y="203" type="qcurve"/>
      <point x="208" y="214"/>
      <point x="199" y="237"/>
      <point x="182" y="257"/>
      <point x="158" y="269"/>
      <point x="141" y="269" type="qcurve"/>
      <point x="124" y="269"/>
      <point x="103" y="251"/>
      <point x="103" y="234" type="qcurve"/>
      <point x="103" y="221"/>
      <point x="116" y="203"/>
      <point x="135" y="190"/>
      <point x="159" y="180"/>
      <point x="170" y="175" type="qcurve"/>
      <point x="183" y="169"/>
      <point x="209" y="155"/>
      <point x="229" y="135"/>
      <point x="242" y="107"/>
      <point x="242" y="86" type="qcurve"/>
      <point x="242" y="61"/>
      <point x="220" y="27"/>
      <point x="184" y="5"/>
      <point x="137" y="-5"/>
      <point x="112" y="-5" type="qcurve"/>
      <point x="89" y="-5"/>
      <point x="47" y="6"/>
      <point x="34" y="9" type="qcurve"/>
      <point x="33" y="15"/>
      <point x="31" y="41"/>
      <point x="30" y="68"/>
      <point x="29" y="91"/>
      <point x="29" y="94" type="qcurve"/>
      <point x="29" y="97"/>
      <point x="37" y="99"/>
      <point x="39" y="99" type="qcurve"/>
      <point x="49" y="99"/>
      <point x="53" y="92" type="qcurve"/>
      <point x="57" y="71"/>
      <point x="73" y="43"/>
      <point x="93" y="27"/>
      <point x="115" y="21"/>
      <point x="125" y="21" type="qcurve"/>
      <point x="142" y="21"/>
      <point x="162" y="43"/>
      <point x="162" y="57" type="qcurve"/>
      <point x="162" y="69"/>
      <point x="149" y="86"/>
      <point x="130" y="98"/>
      <point x="106" y="109"/>
      <point x="94" y="115" type="qcurve"/>
      <point x="65" y="132"/>
      <point x="24" y="171"/>
      <point x="24" y="205" type="qcurve"/>
      <point x="24" y="230"/>
      <point x="48" y="264"/>
      <point x="84" y="286"/>
      <point x="127" y="296"/>
    </contour>
  </outline>
</glyph>
<glyph name="t" format="1">
  <advance width="213"/>
  <unicode hex="0074"/>
  <outline>
    <contour>
      <point x="213" y="282" type="line" name="hr00"/>
      <point x="215" y="282"/>
      <point x="217" y="276"/>
      <point x="217" y="274" type="qcurve"/>
      <point x="217" y="269"/>
      <point x="207" y="255"/>
      <point x="202" y="251" type="qcurve"/>
      <point x="138" y="251" type="line"/>
      <point x="138" y="88" type="line"/>
      <point x="138" y="38"/>
      <point x="174" y="38" type="qcurve"/>
      <point x="185" y="38"/>
      <point x="207" y="51"/>
      <point x="209" y="53" type="qcurve"/>
      <point x="210" y="52"/>
      <point x="213" y="47"/>
      <point x="213" y="44" type="qcurve"/>
      <point x="213" y="42"/>
      <point x="209" y="33"/>
      <point x="208" y="32" type="qcurve"/>
      <point x="206" y="29"/>
      <point x="193" y="17"/>
      <point x="174" y="5"/>
      <point x="151" y="-5"/>
      <point x="138" y="-5" type="qcurve"/>
      <point x="123" y="-5"/>
      <point x="92" y="4"/>
      <point x="67" y="27"/>
      <point x="52" y="64"/>
      <point x="52" y="92" type="qcurve"/>
      <point x="52" y="251" type="line"/>
      <point x="5" y="251" type="line"/>
      <point x="2" y="253"/>
      <point x="2" y="260" type="qcurve"/>
      <point x="7" y="267"/>
      <point x="17" y="277"/>
      <point x="23" y="282" type="qcurve"/>
      <point x="52" y="282" type="line"/>
      <point x="52" y="317" type="line"/>
      <point x="71" y="334"/>
      <point x="106" y="372"/>
      <point x="121" y="387" type="qcurve"/>
      <point x="127" y="391"/>
      <point x="137" y="390"/>
      <point x="138" y="387" type="qcurve"/>
      <point x="138" y="282" type="line"/>
    </contour>
  </outline>
</glyph>
